<?xml version="1.0" encoding="UTF-8"?>
<!DOCTYPE svg PUBLIC "-//W3C//DTD SVG 1.1//EN" "http://www.w3.org/Graphics/SVG/1.1/DTD/svg11.dtd">
<svg version="1.1" xmlns="http://www.w3.org/2000/svg" xmlns:xlink="http://www.w3.org/1999/xlink" x="0" y="0" width="577" height="409" viewBox="0, 0, 577, 409">
  <g id="Layer_1">
    <path d="M231.063,231.88 L231.202,233.761 L231.348,233.745 L231.063,231.88 z M231.426,236.757 L231.921,242.745 L232.734,242.645 L231.808,236.713 L231.426,236.757 z M232.193,245.739 L232.774,251.717 L234.146,251.538 L233.2,245.613 L232.193,245.739 z M235.606,260.415 L234.623,254.499 L233.091,254.705 L233.755,260.678 L235.606,260.415 z M237.142,269.273 L236.113,263.368 L234.109,263.663 L234.89,269.628 L237.142,269.273 z M237.681,272.22 L235.304,272.611 L236.199,278.554 L238.818,278.08 L237.681,272.22 z M238.408,287.706 L241.02,286.317 C240.593,285.547 240.265,284.73 240.046,283.879 C239.944,283.48 239.838,282.931 239.734,282.464 L239.421,281.006 L236.697,281.531 L236.969,283.017 C237.067,283.53 237.133,283.968 237.258,284.543 C237.503,285.641 237.896,286.708 238.408,287.706 M245.39,294.556 L246.896,291.696 C245.265,290.871 243.769,289.789 242.568,288.466 L240.274,290.476 C241.717,292.166 243.484,293.517 245.39,294.556 M248.352,295.886 C250.385,296.626 252.528,297.046 254.704,297.155 L254.837,293.702 C253.015,293.652 251.187,293.309 249.438,292.745 L248.352,295.886 z M259.62,296.768 C260.177,296.678 260.623,296.534 261.128,296.419 L264.082,295.689 L263.127,292.195 L260.27,292.959 C259.803,293.073 259.292,293.241 258.863,293.312 L257.548,293.564 L257.982,297.048 L259.62,296.768 z M267.005,294.894 L272.798,293.212 L271.683,289.592 L265.982,291.362 L267.005,294.894 z M275.679,292.342 L281.411,290.577 L280.265,286.879 L274.539,288.683 L275.679,292.342 z M284.275,289.705 L290.004,288.015 L289.77,287.207 L289.634,286.74 L288.912,284.245 L283.141,285.985 L284.275,289.705 z M292.877,287.206 L298.634,285.68 L297.647,281.824 L291.813,283.408 L292.164,284.655 L292.877,287.206 z M301.524,284.971 L307.314,283.644 L306.5,279.764 L300.586,281.084 L301.524,284.971 z M310.225,283.048 L316.063,282.011 L315.461,278.148 L309.478,279.173 L310.225,283.048 z M318.996,281.574 L324.875,280.876 L324.512,277.039 L318.471,277.717 L318.996,281.574 z M327.825,280.621 L333.73,280.277 L333.627,276.535 L327.546,276.793 L327.825,280.621 z M336.68,280.206 L342.57,280.322 L342.783,276.75 L336.677,276.517 L336.68,280.206 z M345.504,280.515 L351.349,281.192 L351.887,277.822 L345.826,277.007 L345.504,280.515 z M354.25,281.673 L359.994,282.923 L360.828,279.872 L354.893,278.39 L354.25,281.673 z M362.826,283.708 L368.396,285.603 L369.475,282.922 L363.747,280.777 L362.826,283.708 z M371.121,286.714 L376.442,289.241 L377.681,286.989 L372.268,284.161 L371.121,286.714 z M384.019,293.81 L385.3,292.033 L380.291,288.569 L379.027,290.66 L384.019,293.81 z M386.418,295.535 L391.029,299.256 L392.22,297.961 L387.692,293.911 L386.418,295.535 z M393.226,301.25 L397.388,305.492 L398.355,304.661 L394.354,300.117 L393.226,301.25 z M399.359,307.722 L403.051,312.41 L403.625,312.02 L400.206,307.047 L399.359,307.722 z M407.948,319.932 L405.174,314.601 L404.774,314.85 L407.948,319.932 z M374.653,32.047 C374.1,28.646 370.884,26.328 367.481,26.879 C364.081,27.431 361.762,30.648 362.313,34.049 C362.866,37.451 366.083,39.771 369.485,39.218 C372.886,38.667 375.205,35.449 374.653,32.047 M495.952,48.634 L495.92,49.338 L501.913,49.505 L501.937,49.051 L495.952,48.634 z M486.97,48.089 L486.93,49.138 L492.923,49.271 L492.958,48.441 L486.97,48.089 z M477.981,47.643 L477.936,48.921 L483.932,49.064 L483.974,47.939 L477.981,47.643 z M468.994,47.216 L468.943,48.723 L474.942,48.854 L474.99,47.5 L468.994,47.216 z M460.001,46.818 L459.946,48.521 L465.944,48.662 L465.998,47.078 L460.001,46.818 z M451.008,46.484 L450.951,48.263 L456.949,48.436 L457.005,46.707 L451.008,46.484 z M442.015,46.152 L441.955,48.007 L447.954,48.178 L448.012,46.375 L442.015,46.152 z M433.028,45.817 L432.964,47.749 L438.958,47.921 L439.019,46.042 L433.028,45.817 z M424.038,45.484 L423.969,47.476 L429.966,47.661 L430.032,45.705 L424.038,45.484 z M415.04,45.211 L414.972,47.125 L420.971,47.36 L421.04,45.395 L415.04,45.211 z M406.044,44.924 L405.977,46.763 L411.973,47.006 L412.041,45.117 L406.044,44.924 z M397.049,44.623 L396.98,46.383 L402.976,46.638 L403.044,44.826 L397.049,44.623 z M388.053,44.298 L387.983,45.982 L393.978,46.253 L394.047,44.518 L388.053,44.298 z M379.059,44.023 L378.993,45.476 L384.986,45.817 L385.054,44.211 L379.059,44.023 z M366.841,22.931 C361.262,23.836 357.46,29.111 358.366,34.691 C359.271,40.27 364.546,44.071 370.125,43.167 C375.704,42.261 379.506,36.985 378.601,31.406 C377.696,25.829 372.42,22.026 366.841,22.931 M352.083,42.957 L352.041,43.565 L358.024,44.083 L358.078,43.224 L352.083,42.957 z M367.008,44.736 L367.069,43.591 L361.075,43.339 L361.018,44.325 L367.008,44.736 z M375.997,45.298 L376.061,43.922 L370.065,43.708 L370.004,44.929 L375.997,45.298 z M343.097,42.427 L343.078,42.629 L349.05,43.28 L349.087,42.799 L343.097,42.427 z M321.636,38.25 C321.271,37.21 320.766,36.188 319.995,35.336 C319.241,34.485 318.204,33.797 317,33.566 C315.799,33.351 314.522,33.609 313.452,34.174 C312.376,34.744 311.471,35.564 310.745,36.495 C309.284,38.367 308.491,40.635 308.156,42.928 C308.003,44.278 308.01,45.659 308.226,47.012 C308.302,47.267 308.353,47.527 308.377,47.797 C308.532,48.482 308.737,49.157 309.018,49.813 C309.48,50.899 310.152,51.922 311.047,52.747 C311.938,53.567 313.11,54.143 314.328,54.238 C315.551,54.32 316.73,53.919 317.676,53.286 C318.638,52.658 319.387,51.798 320.003,50.883 C321.221,49.032 321.896,46.899 322.182,44.742 C322.456,42.585 322.342,40.349 321.636,38.25 M286.091,81.699 C282.565,84.954 280.898,88.429 281.14,92.03 C281.496,97.343 285.884,101.747 288.114,103.655 L289.376,96.07 C288.511,95.55 287.187,94.468 287.021,92.665 C286.756,89.79 289.5,86.62 295.406,82.976 C316.667,69.854 340.256,66.832 340.495,66.802 C340.594,66.791 340.688,66.809 340.783,66.824 L342.149,58.838 L340.339,59.128 C326.887,61.256 304.367,64.839 286.091,81.699 M333.604,95.776 L336.015,95.388 C336.145,94.774 336.271,94.164 336.394,93.554 C333.122,91.007 322.03,86.151 315.845,83.731 C315.722,84.316 315.6,84.899 315.48,85.469 C314.431,90.447 313.114,95.546 311.689,100.498 C320.958,97.783 329.346,96.45 333.604,95.776 M283.4,117.096 C280.193,120.064 278.701,123.085 278.962,126.076 C279.269,129.555 281.881,132.288 283.501,133.667 C283.986,130.667 285.154,124.757 287.078,122.76 C298.803,110.582 319.453,105.907 329.294,104.311 C330.866,104.055 332.162,103.879 333.102,103.762 L333.757,97.777 C324.744,99.206 298.088,103.503 283.4,117.096 M282.918,145.799 L282.804,146.767 C282.782,146.95 282.271,151.225 281.146,155.638 C281.179,156.889 281.285,158.083 281.422,159.176 C291.624,157.832 302.255,157.344 307.16,158.454 C306.369,157.208 305.535,155.351 304.98,152.598 C303.828,146.877 308.837,139.554 318.118,135.283 L289.99,138.407 C288.479,139.214 287.015,140.236 285.792,141.528 C284.547,142.846 283.612,144.293 282.918,145.799 M268.163,161.321 C270.004,161.085 273.187,160.51 275.272,160.114 C275.54,158.878 276.411,156.511 279.251,154.978 C279.955,152.179 280.411,149.406 280.641,147.837 C273.915,149.204 268.564,155.836 268.163,161.321 M250.697,176.965 C250.478,177.519 250.276,178.022 250.073,178.457 C249.741,179.168 249.792,179.454 249.776,179.461 C249.898,179.527 250.249,179.48 250.449,179.383 C250.749,176.984 257.774,173.325 264.917,170.823 C274.223,167.564 295.24,164.374 302.317,164.654 C302.934,163.942 304.38,162.309 306.355,160.317 C300.937,159.259 287.42,160.106 275.918,162.027 C275.176,162.169 273.586,162.468 271.928,162.754 C269.715,163.194 267.634,163.675 265.772,164.189 C254.554,167.289 252.233,173.111 250.697,176.965 M241.287,184.507 C226.425,189.861 223.873,197.719 223.53,201.34 C224.168,200.78 224.761,200.231 225.342,199.692 C228.051,197.188 230.61,194.821 236.303,192.637 C243.862,189.737 256.854,186.546 259.879,185.897 C274.583,182.425 282.53,186.29 284.716,187.631 C285.271,187.112 286.519,185.682 288.684,181.888 C288.715,181.833 288.725,181.797 288.726,181.797 C288.711,181.742 288.554,181.523 288.035,181.249 C282.948,178.549 259.171,178.064 241.287,184.507 M205.63,213.842 C204.72,213.99 203.922,214.158 203.26,214.349 C195.785,216.503 192.897,220.042 191.792,222.628 C191.23,223.945 191.094,225.105 191.127,225.917 C192.86,224.921 196.058,223.056 197.465,222.042 L197.467,222.043 C199.303,220.674 208.714,220.351 218.191,220.392 C218.283,220.364 218.377,220.325 218.467,220.3 L218.61,220.26 L218.76,220.264 C227.947,220.495 236.442,220.812 236.752,220.823 C236.754,220.824 236.757,220.825 236.76,220.824 L236.76,220.829 C237.985,220.876 238.896,220.917 239.369,220.938 C251.395,221.482 255.258,224.217 259.859,230.548 C262.552,234.253 266.987,235.071 269.029,234.228 C270.354,233.676 270.195,232.698 270.144,232.376 C268.543,222.524 255.979,213.329 243.782,213.083 L243.275,213.073 C232.054,212.845 214.017,212.482 205.63,213.842 M208.521,232.582 C209.759,232.914 212.286,232.009 214.154,230.569 C216.783,228.542 222.148,224.739 227.977,222.527 C225.251,222.441 222.104,222.349 218.864,222.268 C214.39,223.618 207.864,230.739 208.04,232.22 C208.093,232.349 208.191,232.494 208.521,232.582 M284.122,275.19 L284.647,275.079 C284.265,273.135 284.098,271.153 284.149,269.177 L283.456,269.168 C283.455,271.195 283.678,273.218 284.122,275.19 M284.385,266.229 C284.646,264.272 285.106,262.345 285.723,260.469 L284.834,260.191 C284.253,262.13 283.833,264.122 283.619,266.137 L284.385,266.229 z M286.752,257.694 C287.501,255.864 288.38,254.085 289.35,252.357 L288.384,251.826 C287.425,253.604 286.557,255.434 285.818,257.321 L286.752,257.694 z M289.354,277.899 L289.879,277.789 C289.497,275.844 289.33,273.862 289.381,271.887 L288.688,271.877 C288.687,273.904 288.911,275.928 289.354,277.899 M290.954,263.178 L290.065,262.902 C289.485,264.84 289.063,266.832 288.85,268.846 L289.618,268.938 C289.877,266.982 290.338,265.054 290.954,263.178 M291.984,260.404 C292.733,258.574 293.612,256.795 294.582,255.066 L293.617,254.536 C292.657,256.313 291.788,258.144 291.051,260.031 L291.984,260.404 z M296.1,252.507 L299.46,247.59 L298.453,246.86 L295.122,251.906 L296.1,252.507 z M301.267,245.219 L305.068,240.617 L304.01,239.717 L300.244,244.429 L301.267,245.219 z M307.042,238.376 L311.103,233.987 L309.984,232.939 L305.965,237.424 L307.042,238.376 z M313.177,231.831 L317.388,227.575 L316.196,226.396 L312.035,230.738 L313.177,231.831 z M319.508,225.46 L323.777,221.251 L322.562,220.017 L318.307,224.257 L319.508,225.46 z M325.924,219.153 L330.222,214.965 L328.977,213.695 L324.702,217.905 L325.924,219.153 z M332.373,212.868 L336.658,208.661 L335.372,207.365 L331.115,211.587 L332.373,212.868 z M338.793,206.544 L343.031,202.282 L341.69,200.972 L337.49,205.243 L338.793,206.544 z M345.132,200.13 L349.288,195.782 L347.883,194.469 L343.771,198.817 L345.132,200.13 z M351.338,193.579 L355.377,189.109 L353.899,187.81 L349.912,192.268 L351.338,193.579 z M357.359,186.836 L361.195,182.178 L359.642,180.943 L355.848,185.548 L357.359,186.836 z M363.044,179.795 L366.617,174.934 L365.039,173.812 L361.484,178.598 L363.044,179.795 z M368.334,172.457 L371.635,167.403 L370.039,166.397 L366.75,171.373 L368.334,172.457 z M373.214,164.833 L376.225,159.603 L374.614,158.71 L371.612,163.863 L373.214,164.833 z M377.655,156.945 L380.361,151.552 L378.744,150.774 L376.042,156.091 L377.655,156.945 z M377.184,139.906 L374.788,145.37 L376.404,146.109 L378.798,140.573 L377.184,139.906 z M381.636,148.819 L384.03,143.282 L382.416,142.615 L380.019,148.079 L381.636,148.819 z M385.147,140.483 L387.229,134.823 L385.625,134.262 L383.537,139.852 L385.147,140.483 z M408.894,203.089 C410.061,204.108 411.568,204.487 412.986,204.258 C413.565,204.164 414.128,203.962 414.649,203.667 L431.039,217.552 L432.978,215.263 L416.681,201.456 C417.616,199.485 417.196,197.063 415.471,195.556 C407.179,188.316 403.196,179.459 403.952,169.939 C404.896,158.045 412.963,146.247 425.533,138.379 C445.748,125.723 454.889,114.116 453.479,102.894 C451.283,85.414 423.907,75.594 397.926,67.222 L398.016,63.77 L397.703,63.759 L397.529,67.094 C395.901,66.57 394.278,66.051 392.667,65.538 L392.784,61.061 L392.471,61.049 L392.245,65.401 C388.909,64.336 385.664,63.295 382.569,62.271 C381.848,62.031 381.137,61.794 380.434,61.556 C379.285,55.946 373.896,52.175 368.192,53.102 C362.339,54.051 358.35,59.586 359.3,65.439 C360.25,71.291 365.784,75.279 371.636,74.33 C374.02,73.943 376.084,72.788 377.642,71.169 C378.323,71.398 379.013,71.628 379.708,71.857 C382.884,72.906 386.195,73.966 389.596,75.053 C390.239,75.259 390.891,75.467 391.547,75.677 L391.521,76.007 L392.224,76.057 L392.231,75.898 C393.747,76.382 395.291,76.879 396.854,77.388 L396.754,78.717 L397.456,78.768 L397.513,77.603 C418.315,84.39 442.185,93.226 443.556,104.14 C444.149,108.859 440.583,117.158 420.226,129.902 C404.987,139.442 395.176,154.113 393.983,169.147 C393.274,178.073 395.286,191.208 408.894,203.089 M310.737,79.149 C336.949,80.477 358.267,94.612 362.296,101.878 C362.964,102.315 365.469,103.715 367.588,101.748 C369.999,99.507 366.826,94.031 366.815,94.014 C362.518,87.52 342.718,73.057 323.461,72.752 C320.811,73.556 317.966,74.512 315.006,75.639 L310.737,79.149 z M324.092,131.602 C324.776,130.144 325.429,128.695 326.05,127.257 C318.47,119.043 311.386,116.421 307.85,115.587 C307.489,115.745 307.126,115.901 306.767,116.064 C303.785,124.768 301.086,131.602 300.005,134.276 L324.092,131.602 z M257.416,190.594 C253.538,193.493 251.945,196.862 252.671,200.626 C254.428,199.218 257.179,197.133 260.125,195.559 C263.945,193.515 272.587,190.725 277.945,194.784 C280.604,196.799 283.815,200.487 284.021,206.614 C284.237,213.093 285.082,215.86 287.248,217.18 C288.536,217.967 290.445,218.427 291.807,217.672 C293.41,216.79 293.778,214.457 293.805,212.656 C293.985,200.67 287.654,190.458 278.05,187.243 C277.976,187.218 277.896,187.198 277.819,187.175 C276.58,186.906 275.149,186.692 273.527,186.582 C266.907,186.517 258.938,189.457 257.416,190.594 M271.252,200.921 C267.926,199.784 262.81,198.42 258.663,198.997 C257.18,200.77 255.854,202.255 254.787,203.293 C252.714,205.307 249.063,208.117 244.863,211.128 C249.237,211.387 253.62,212.708 257.56,214.751 C261.38,211.036 265.911,206.519 271.252,200.921 M304.752,230.23 L300.734,234.715 L301.811,235.666 L305.872,231.277 L304.752,230.23 z M310.964,223.686 L306.803,228.028 L307.945,229.121 L312.156,224.865 L310.964,223.686 z M313.076,221.547 L314.277,222.75 L318.545,218.542 L317.331,217.308 L313.076,221.547 z M330.139,204.655 L325.883,208.877 L327.141,210.158 L331.426,205.952 L330.139,204.655 z M336.459,198.262 L332.258,202.532 L333.561,203.835 L337.799,199.573 L336.459,198.262 z M342.652,191.759 L338.541,196.11 L339.901,197.421 L344.056,193.071 L342.652,191.759 z M348.667,185.1 L344.679,189.56 L346.106,190.868 L350.146,186.4 L348.667,185.1 z M354.411,178.234 L350.617,182.839 L352.127,184.127 L355.962,179.468 L354.411,178.234 z M364.806,163.688 L361.518,168.663 L363.103,169.747 L366.404,164.694 L364.806,163.688 z M373.512,148.065 L370.809,153.381 L372.423,154.235 L375.129,148.843 L373.512,148.065 z M380.393,131.552 L378.304,137.142 L379.917,137.773 L381.998,132.113 L380.393,131.552 z M383.181,123.044 L381.365,128.731 L382.957,129.256 L384.699,123.487 L383.181,123.044 z M342.437,132.496 C346.227,137.032 351.239,138.047 352.892,136.729 C354.229,135.662 353.432,132.864 350.812,129.428 C342.588,118.647 330.664,112.895 323.262,110.172 C320.313,111.01 316.996,112.05 313.591,113.297 C325.013,116.445 336.791,125.734 342.437,132.496 M328.907,163.684 C330.356,165.166 331.609,166.444 332.238,166.805 C333.527,167.545 336.5,167.556 337.971,166.059 C339.614,164.383 338.48,161.568 337.241,159.502 C334.342,154.671 322.264,145.018 311.751,143.991 C309.45,146.52 308.927,148.295 308.986,151.532 C316.774,151.29 324.317,158.996 328.907,163.684 M314.154,180.439 C314.872,181.422 315.477,182.361 315.964,183.219 C316.255,183.732 316.477,184.297 316.646,184.89 C318.543,185.894 319.968,187.734 320.338,190.015 C320.965,193.876 318.343,197.515 314.481,198.143 C310.621,198.768 306.981,196.147 306.355,192.284 C306.241,191.579 306.237,190.881 306.328,190.208 C305.683,189.098 304.749,187.924 303.549,186.737 C302.708,188.597 302.382,190.712 302.733,192.873 C303.682,198.725 309.216,202.713 315.069,201.763 C320.922,200.813 324.911,195.28 323.961,189.427 C323.149,184.43 318.994,180.803 314.154,180.439 M348.708,123.936 C349.994,125.272 351.237,126.689 352.402,128.215 C352.568,128.434 352.706,128.635 352.855,128.844 C354.391,129.901 355.512,131.554 355.833,133.54 C356.46,137.401 353.838,141.04 349.977,141.667 C346.115,142.293 342.477,139.67 341.85,135.809 C341.792,135.446 341.77,135.087 341.767,134.73 C341.472,134.426 341.182,134.112 340.902,133.777 C340.235,132.98 339.476,132.144 338.645,131.288 C338.112,132.882 337.939,134.624 338.228,136.397 C339.178,142.25 344.712,146.237 350.564,145.289 C356.417,144.338 360.406,138.804 359.456,132.951 C358.592,127.633 353.942,123.867 348.708,123.936 M324.74,165.438 C325.688,171.29 331.223,175.277 337.076,174.329 C342.928,173.378 346.917,167.844 345.967,161.992 C345.044,156.304 339.791,152.392 334.124,153.046 C335.747,154.504 337.09,155.92 338.048,157.172 C340.245,158.08 341.937,160.063 342.345,162.581 C342.972,166.442 340.35,170.081 336.488,170.708 C333.189,171.242 330.061,169.402 328.827,166.449 C328.413,166.038 327.967,165.584 327.477,165.084 C326.646,164.234 325.711,163.28 324.698,162.295 C324.561,163.315 324.565,164.371 324.74,165.438 M275.524,174.105 C291.556,173.889 305.171,183.303 308.454,189.894 C310.281,193.561 311.662,194.007 312.17,194.028 C312.939,194.067 313.552,193.252 313.849,192.768 C315.131,190.67 315.564,186.565 314.225,184.208 C310.544,177.727 299.686,166.23 284.743,168.655 C284.601,168.678 284.457,168.704 284.313,168.729 C281.987,169.146 276.02,172.551 274.762,174.071 C274.938,174.093 275.185,174.109 275.524,174.105 M282.102,208.424 C280.313,210.707 279.435,213.694 279.935,216.774 C280.883,222.626 286.417,226.614 292.27,225.665 C298.123,224.714 302.112,219.181 301.162,213.329 C300.572,209.694 298.211,206.78 295.105,205.319 C295.437,206.917 295.662,208.562 295.754,210.252 C296.666,211.239 297.309,212.493 297.54,213.917 C298.167,217.778 295.544,221.417 291.682,222.043 C287.821,222.669 284.183,220.047 283.557,216.186 C283.535,216.052 283.525,215.92 283.511,215.788 C282.651,213.93 282.276,211.483 282.102,208.424 M332.973,107.754 C331.637,108.037 329.362,108.543 326.501,109.29 C328.146,109.963 329.931,110.767 331.797,111.706 C332.21,110.378 332.602,109.062 332.973,107.754 M368.507,92.946 C368.592,93.088 369.627,94.841 370.167,96.979 C370.619,97.729 370.942,98.572 371.09,99.489 C371.717,103.351 369.094,106.989 365.233,107.615 C361.372,108.242 357.733,105.621 357.106,101.758 C356.951,100.795 356.997,99.846 357.213,98.955 C356.35,98.153 355.346,97.305 354.211,96.432 C353.442,98.238 353.146,100.271 353.484,102.346 C354.434,108.198 359.968,112.188 365.821,111.237 C371.673,110.289 375.663,104.754 374.712,98.901 C373.974,94.349 370.458,90.938 366.179,90.087 C367.128,91.093 367.918,92.057 368.507,92.946 M385.496,120.583 L386.943,114.736 L385.544,114.402 L384.016,120.177 L385.496,120.583 z M388.414,125.754 L386.596,131.441 L388.188,131.966 L389.931,126.197 L388.414,125.754 z M390.776,117.112 L389.249,122.887 L390.727,123.293 L392.174,117.446 L390.776,117.112 z M392.726,108.361 L391.47,114.207 L392.828,114.507 L393.998,108.605 L392.726,108.361 z M394.295,99.527 L393.29,105.424 L394.518,105.642 L395.435,99.697 L394.295,99.527 z M391.576,85.045 L392.038,79.054 L391.258,78.992 L390.643,84.951 L391.576,85.045 z M390.604,94.008 L391.293,88.037 L390.291,87.924 L389.509,93.859 L390.604,94.008 z M387.495,105.651 L386.239,111.497 L387.595,111.798 L388.766,105.896 L387.495,105.651 z M389.287,102.932 L390.204,96.987 L389.063,96.818 L388.058,102.715 L389.287,102.932 z M396.807,87.754 L397.269,81.764 L396.49,81.703 L395.875,87.661 L396.807,87.754 z M395.522,90.634 L394.741,96.568 L395.835,96.717 L396.526,90.747 L395.522,90.634 z M366.38,161.153 L367.983,162.123 L370.993,156.893 L369.382,156.001 L366.38,161.153 z M356.251,175.888 L357.813,177.086 L361.384,172.225 L359.807,171.103 L356.251,175.888 z M319.469,215.196 L320.693,216.442 L324.991,212.256 L323.746,210.985 L319.469,215.196 z M295.011,241.719 L296.035,242.509 L299.836,237.908 L298.778,237.007 L295.011,241.719 z M289.889,249.196 L290.869,249.797 L294.229,244.881 L293.22,244.151 L289.889,249.196 z M273.655,231.131 C274.282,234.993 271.661,238.631 267.798,239.258 C263.938,239.884 260.298,237.262 259.671,233.402 C259.667,233.375 259.667,233.348 259.664,233.322 C259.161,232.839 258.675,232.321 258.243,231.725 C257.596,230.835 256.976,230.032 256.344,229.291 C255.916,230.773 255.788,232.367 256.05,233.989 C257,239.841 262.533,243.83 268.385,242.879 C274.238,241.93 278.228,236.396 277.277,230.544 C276.417,225.235 271.779,221.473 266.558,221.527 C267.846,222.921 268.958,224.406 269.852,225.949 C271.804,226.936 273.278,228.805 273.655,231.131 M290.844,94.585 L291.065,94.67 C291.344,92.323 291.592,90.098 291.809,88.029 C289.331,90.229 288.944,91.685 289.011,92.47 C289.133,93.884 290.832,94.58 290.844,94.585 M340.46,68.824 C339.359,68.979 335.014,69.644 328.907,71.22 C332.536,71.746 336.172,72.691 339.7,73.919 C339.957,72.19 340.208,70.491 340.46,68.824 M130.747,281.965 L131.204,281.047 L125.66,278.684 L125.4,279.288 L130.747,281.965 z M138.458,286.488 L139.207,285.285 L133.915,282.373 L133.364,283.396 L138.458,286.488 z M145.698,291.69 L146.741,290.345 L141.772,286.882 L140.93,288.141 L145.698,291.69 z M152.358,297.583 L153.667,296.233 L149.119,292.218 L147.989,293.571 L152.358,297.583 z M158.33,304.155 L159.852,302.917 L155.82,298.374 L154.428,299.701 L158.33,304.155 z M163.499,311.364 L165.171,310.309 L161.729,305.304 L160.144,306.493 L163.499,311.364 z M167.79,319.13 L169.525,318.311 L166.73,312.916 L165.031,313.892 L167.79,319.13 z M171.161,327.347 L172.826,326.796 L170.744,321.094 L169.02,321.824 L171.161,327.347 z M175.827,353.68 C176.042,351.679 176.151,349.665 176.158,347.649 L175.144,347.675 C175.25,349.656 175.276,351.644 175.185,353.629 L175.827,353.68 z M175.517,338.601 L174.126,338.821 L174.932,344.71 L176.08,344.628 L175.517,338.601 z M173.691,329.704 L172.062,330.17 L173.556,335.91 L175.03,335.615 L173.691,329.704 z M505.198,49.315 L504.928,49.286 L504.908,49.614 L505.184,49.63 C505.119,51.093 505.024,52.172 504.893,52.701 C500.845,57.411 345.937,47.276 343.527,46.992 C341.924,46.803 342.842,28.911 344.413,16.222 L328.622,22.127 C328.622,22.127 324.695,41.241 320.571,61.101 C327.927,59.08 334.68,58.003 340.026,57.152 L342.167,56.811 C342.29,56.791 342.409,56.8 342.522,56.823 C342.804,55.461 343.101,54.125 343.42,52.818 C345.841,52.914 352.686,53.171 362.256,53.528 C363.855,52.321 365.759,51.47 367.872,51.128 C371.771,50.495 375.55,51.711 378.313,54.128 C382.874,54.298 387.713,54.479 392.742,54.667 L392.611,58.053 L392.82,58.06 L392.833,54.669 C394.559,54.734 396.305,54.798 398.071,54.864 L397.843,60.763 L398.052,60.77 L398.075,54.864 C445.447,56.628 505.894,58.872 505.894,58.872 C505.894,58.872 513.364,109.58 512.687,122.58 C507.608,151.627 492.26,170.723 480.791,181.982 C465.999,196.502 430.695,215.945 449.614,227.819 C463.109,236.288 489.625,272.314 492.468,283.845 C493.425,283.658 494.405,284.185 494.736,285.14 C494.737,285.143 494.737,285.146 494.738,285.149 C495.103,286.191 494.55,287.329 493.508,287.69 C493.403,287.726 493.286,287.756 493.167,287.777 C492.438,287.894 491.713,287.592 491.272,287.016 C489.323,287.621 487.378,288.249 485.437,288.895 C485.587,289.814 485.076,290.747 484.172,291.089 C484.037,291.131 483.912,291.172 483.784,291.194 C482.952,291.328 482.111,290.913 481.707,290.16 C479.813,290.819 477.923,291.499 476.037,292.197 C476.389,293.198 475.896,294.304 474.901,294.701 C474.759,294.764 474.623,294.796 474.474,294.821 C473.582,294.966 472.667,294.482 472.306,293.606 C472.305,293.603 472.303,293.601 472.302,293.598 C470.436,294.316 468.574,295.056 466.715,295.812 C466.731,295.845 466.754,295.875 466.769,295.909 C466.771,295.912 466.771,295.915 466.771,295.918 C467.204,296.929 466.738,298.103 465.727,298.54 C465.576,298.605 465.412,298.652 465.253,298.678 C464.376,298.82 463.471,298.351 463.098,297.501 C463.098,297.5 463.097,297.499 463.096,297.498 C463.072,297.44 463.061,297.38 463.042,297.322 C461.192,298.1 459.346,298.902 457.503,299.716 C457.544,299.785 457.59,299.85 457.625,299.925 C457.625,299.927 457.625,299.929 457.626,299.931 C458.079,300.93 457.643,302.112 456.637,302.579 C456.467,302.656 456.302,302.704 456.125,302.733 C455.258,302.874 454.378,302.43 453.988,301.595 C453.987,301.593 453.985,301.592 453.985,301.59 C453.947,301.506 453.923,301.419 453.897,301.334 C452.067,302.168 450.239,303.02 448.415,303.89 C448.466,303.968 448.52,304.045 448.561,304.132 C448.563,304.136 448.563,304.139 448.565,304.143 C449.042,305.136 448.621,306.332 447.627,306.805 C447.45,306.896 447.265,306.946 447.078,306.976 C446.231,307.113 445.355,306.691 444.968,305.877 C444.967,305.875 444.964,305.874 444.963,305.871 C444.922,305.787 444.896,305.7 444.869,305.613 C443.062,306.501 441.258,307.402 439.458,308.322 C439.502,308.389 439.551,308.452 439.589,308.527 C439.589,308.527 439.59,308.528 439.59,308.529 C440.083,309.511 439.69,310.718 438.698,311.212 C438.51,311.304 438.318,311.367 438.121,311.398 C437.283,311.535 436.417,311.128 436.014,310.334 C436.014,310.333 436.013,310.333 436.012,310.332 C435.983,310.273 435.967,310.21 435.944,310.152 C434.172,311.081 432.404,312.027 430.639,312.989 C430.656,313.017 430.677,313.041 430.693,313.07 C430.693,313.071 430.693,313.072 430.694,313.073 C431.206,314.052 430.824,315.257 429.844,315.77 C429.647,315.873 429.446,315.936 429.239,315.97 C428.412,316.104 427.56,315.708 427.147,314.928 C427.146,314.926 427.144,314.924 427.143,314.922 L427.143,314.921 C427.055,314.971 426.966,315.02 426.878,315.07 C425.223,315.997 423.57,316.937 421.92,317.891 C422.329,318.839 421.958,319.947 421.041,320.451 C420.834,320.555 420.624,320.63 420.416,320.664 C419.697,320.781 418.968,320.476 418.52,319.879 C417.458,320.507 416.396,321.132 415.337,321.772 C415.337,321.772 415.288,321.622 415.185,321.344 C413.679,317.277 400.51,285.057 357.946,275.366 C334.966,270.133 307.806,274.77 286.194,280.236 C285.895,279.486 285.615,278.728 285.377,277.959 L284.939,278.1 C285.197,278.857 285.493,279.6 285.807,280.335 C264.857,285.658 249.209,291.715 247.819,290.198 C244.991,287.112 239.01,246.545 239.169,236.895 C239.215,234.112 240.309,231.964 242.971,228.983 C234.385,229.322 221.083,229.972 217.094,230.873 C216.438,231.346 215.857,231.781 215.375,232.153 C213.917,233.277 211.901,234.265 210.104,234.557 C209.471,234.66 208.88,234.652 208.335,234.556 L204.04,237.053 C203.967,237.348 203.835,237.633 203.624,237.88 C195.768,247.056 162.705,266.413 128.179,277.153 C166.454,288.168 190.013,342.022 177.943,360.296 L174.698,359.85 C174.987,358.803 175.223,357.739 175.406,356.667 L174.956,356.603 C174.83,357.678 174.673,358.752 174.469,359.819 L111.47,351.158 C112.531,351.35 113.24,352.365 113.078,353.436 L113.078,353.439 C112.935,354.303 112.249,354.952 111.419,355.085 C111.212,355.12 110.99,355.125 110.771,355.089 C109.689,354.911 108.945,353.886 109.124,352.793 C109.295,351.732 110.269,351.007 111.328,351.138 L102.415,349.913 C102.986,350.345 103.311,351.064 103.182,351.823 C103.182,351.824 103.181,351.825 103.181,351.826 C103.046,352.697 102.362,353.344 101.535,353.478 C101.328,353.512 101.105,353.517 100.887,353.482 C99.804,353.303 99.059,352.269 99.238,351.186 C99.238,351.185 99.238,351.185 99.238,351.184 C99.356,350.461 99.852,349.899 100.485,349.648 L92.833,348.595 C93.21,349.027 93.405,349.611 93.308,350.221 L93.308,350.224 C93.165,351.098 92.48,351.747 91.65,351.881 C91.443,351.915 91.23,351.909 91.011,351.873 C89.92,351.696 89.189,350.672 89.354,349.583 L89.354,349.579 C89.447,349.007 89.783,348.536 90.234,348.239 L83.146,347.264 C83.388,347.657 83.503,348.132 83.423,348.626 C83.423,348.627 83.423,348.628 83.422,348.629 C83.28,349.501 82.595,350.149 81.768,350.284 C81.561,350.317 81.349,350.321 81.129,350.285 C80.048,350.116 79.306,349.092 79.474,348.001 C79.474,348.001 79.474,348.001 79.474,348 C79.548,347.536 79.783,347.141 80.105,346.846 L73.379,345.921 C73.538,346.265 73.601,346.658 73.536,347.06 C73.536,347.061 73.536,347.061 73.536,347.062 C73.403,347.944 72.71,348.592 71.88,348.727 C71.684,348.759 71.471,348.762 71.252,348.728 C70.163,348.56 69.419,347.537 69.585,346.446 L69.585,346.445 C69.644,346.067 69.81,345.735 70.04,345.462 L63.542,344.569 C63.649,344.87 63.694,345.196 63.644,345.534 L63.644,345.536 C63.511,346.408 62.83,347.076 61.99,347.211 C61.792,347.244 61.582,347.248 61.373,347.21 C60.285,347.043 59.532,346.027 59.694,344.938 C59.695,344.935 59.694,344.932 59.695,344.929 C59.74,344.614 59.865,344.332 60.038,344.087 L53.685,343.213 C53.762,343.481 53.79,343.767 53.749,344.061 C53.749,344.062 53.749,344.062 53.749,344.062 C53.619,344.944 52.926,345.613 52.088,345.749 C51.892,345.781 51.689,345.784 51.481,345.756 C50.395,345.598 49.633,344.59 49.787,343.494 C49.787,343.492 49.787,343.491 49.787,343.489 C49.828,343.205 49.928,342.946 50.071,342.717 L43.768,341.85 C43.84,342.107 43.865,342.381 43.828,342.662 C43.828,342.665 43.825,342.667 43.825,342.668 C43.714,343.564 43.019,344.243 42.17,344.38 C41.982,344.411 41.791,344.411 41.585,344.384 C40.499,344.237 39.729,343.24 39.873,342.144 L39.873,342.139 C39.911,341.85 40.01,341.586 40.153,341.353 L33.789,340.478 C33.894,340.762 33.942,341.072 33.906,341.395 C33.906,341.396 33.905,341.396 33.905,341.397 C33.798,342.304 33.101,342.995 32.244,343.134 C32.056,343.165 31.874,343.164 31.688,343.143 C30.595,343.017 29.81,342.035 29.929,340.933 L29.929,340.926 C29.969,340.578 30.105,340.265 30.297,339.999 L23.669,339.087 C23.882,339.44 23.995,339.86 23.953,340.305 C23.953,340.307 23.952,340.308 23.952,340.31 C23.866,341.233 23.165,341.953 22.289,342.095 C22.121,342.123 21.949,342.13 21.786,342.117 C20.69,342.011 19.877,341.049 19.973,339.956 C19.974,339.95 19.973,339.944 19.973,339.938 C20.018,339.429 20.254,338.989 20.601,338.666 L13.188,337.646 C2.385,274.001 83.988,279.819 115.838,276.548 C116.495,276.387 117.149,276.223 117.804,276.054 C119.426,276.731 121.046,277.409 122.672,278.058 L122.845,277.624 C121.208,277.072 119.565,276.547 117.924,276.023 C135.125,271.576 152.186,264.55 166.388,257.404 L174.55,243.668 C174.55,243.668 178.655,236.813 189.356,227.394 C188.968,226.149 189,224.074 189.953,221.843 C191.229,218.857 194.478,214.799 202.708,212.427 C204.727,211.846 207.828,211.465 211.535,211.223 C214.786,209.069 218.194,206.721 221.687,204.246 L221.579,203.629 C221.482,203.087 219.481,190.237 240.608,182.625 C242.959,181.777 245.456,181.043 248.025,180.415 C247.724,179.838 247.635,178.953 248.26,177.611 C248.449,177.207 248.634,176.739 248.839,176.226 C250.419,172.26 253.064,165.626 265.239,162.261 C265.538,162.179 265.848,162.098 266.157,162.018 C266.134,155.197 272.879,146.526 281.712,145.654 L282.261,145.6 C282.979,142.886 283.678,139.907 284.354,136.75 L283.704,136.334 C283.452,136.171 277.509,132.304 276.971,126.264 C276.647,122.622 278.354,119.043 282.042,115.629 C284.149,113.678 286.496,111.921 288.987,110.326 C289.143,109.261 289.295,108.201 289.444,107.15 L288.25,106.314 C287.899,106.07 279.69,100.245 279.146,92.173 C278.858,87.936 280.739,83.918 284.735,80.23 C287.354,77.815 290.055,75.674 292.8,73.759 C292.833,68.761 293.003,60.215 293.059,50.778 C278.884,49.879 268.094,53.002 260.908,60.113 C250.72,70.194 247.578,88.92 251.819,114.265 C254.182,128.377 249.899,146.378 237.146,153.48 C235.051,154.645 232.562,155.613 229.664,156.085 C221.723,157.373 210.73,154.908 196.531,142.439 C195.613,141.631 195.17,140.5 195.189,139.366 L178.074,126.676 C177.187,126.019 177.001,124.767 177.66,123.878 C178.317,122.992 179.567,122.805 180.458,123.463 L197.27,135.928 C198.699,135.152 200.517,135.291 201.811,136.426 C214.198,147.307 225.365,150.879 233.254,146.489 C241.519,141.887 246.107,128.603 243.929,115.586 C239.172,87.165 242.993,66.587 255.28,54.426 C264.073,45.728 276.754,41.824 293.073,42.764 C293.052,35.388 292.924,27.931 292.58,21.56 C292.199,14.529 299.42,13.48 303.752,13.415 C324.73,13.095 343.883,10.209 345.318,9.988 C345.88,6.745 346.477,4.467 347.043,3.94 C349.684,1.485 497.688,4.146 500.375,4.047 C503.06,3.949 503.896,4.948 504.254,9.75 C504.854,17.792 505.554,40.336 505.198,49.315 M320.074,393.458 C359.631,386.705 395.605,368.358 415.158,356.902 L430.609,347.165 L432.16,346.064 L447.246,366.472 C459.687,363.418 477.756,358.529 482.733,356.05 C482.784,352.784 483.46,344.543 488.931,342.939 C490.396,342.504 491.842,342.719 493.113,343.545 C496.013,345.431 497.347,350.228 497.886,352.944 C499.754,352.835 503.442,352.237 508.676,349.667 C508.75,346.953 509.746,342.835 511.71,340.335 C513.183,338.46 514.792,337.967 515.882,337.88 C520.231,337.542 522.29,343.253 523.125,346.661 C526.021,345.909 531.532,344.364 535.952,342.452 C536.047,339.304 536.733,332.588 540.761,330.857 C542.359,330.171 543.836,330.136 545.147,330.753 C547.306,331.769 548.426,334.227 549.502,337.628 C553.644,336.417 564.146,332.836 572.76,325.647 C572.957,320.501 571.51,290.244 569.007,274.814 C491.82,288.055 446.517,312.926 406.505,334.893 C384.706,346.861 364.114,358.166 341.438,365.485 C292.278,381.351 229.223,377.047 174.024,370.746 C156.329,368.725 131.709,364.716 105.646,360.472 C64.665,353.799 18.431,346.271 4.408,347.934 C4.401,356.283 5.365,364.157 6.594,365.43 C8.788,366.114 17.634,367.81 26.195,369.453 C33.423,370.838 40.896,372.272 45.563,373.314 C55.064,375.434 146.445,391.186 162.092,393.879 C162.53,389.725 164.657,384.235 170.776,383.241 C172.943,382.889 174.872,383.425 176.353,384.792 C179.273,387.485 179.717,392.813 179.723,395.752 L193.583,397.015 C193.672,392.374 195.237,386.422 200.625,385.743 C202.967,385.436 205.019,386.061 206.553,387.548 C209.317,390.224 209.748,395.061 209.739,397.877 L224.351,398.449 C224.332,396.407 224.651,393.462 226.307,391.126 C227.655,389.218 229.607,388.046 232.105,387.64 C234.336,387.279 236.372,387.805 237.989,389.164 C241.021,391.709 241.893,396.549 242.143,399.144 C247.677,399.96 269.879,402.018 320.074,393.458 M0.417,350.487 C0.355,350.32 0.309,350.146 0.293,349.96 L0.304,349.959 C0.281,349.679 0.319,349.411 0.404,349.163 C0.4,348.161 0.407,347.168 0.423,346.197 L0.45,344.61 L2.002,344.277 C2.012,344.274 2.023,344.273 2.033,344.271 C14.538,341.566 61.204,349.183 106.29,356.525 C132.304,360.761 156.876,364.762 174.479,366.772 C229.251,373.026 291.774,377.311 340.208,361.677 C362.524,354.475 382.953,343.26 404.581,331.386 C445.208,309.082 491.256,283.802 570.307,270.536 L570.895,270.437 L572.248,270.21 L572.605,272.145 C572.781,273.095 572.953,274.144 573.123,275.267 C573.413,275.573 573.615,275.965 573.667,276.414 C573.714,276.827 573.628,277.223 573.448,277.565 C573.798,280.172 574.133,283.085 574.444,286.17 C574.577,286.409 574.665,286.676 574.69,286.966 C574.713,287.239 574.678,287.502 574.599,287.748 C574.894,290.802 575.167,293.983 575.413,297.164 C575.442,297.281 575.464,297.402 575.472,297.527 C575.479,297.631 575.472,297.733 575.463,297.834 C576.508,311.593 577.033,325.062 576.637,327.037 L576.501,327.709 L575.984,328.157 C564.193,338.343 549.229,341.87 548.598,342.016 L546.761,342.438 L546.694,342.208 C546.697,342.267 546.699,342.307 546.699,342.307 L540.223,339.61 C540.014,341.004 539.919,342.471 539.94,343.712 L539.964,345.008 L538.792,345.559 C532.087,348.709 522.447,350.959 522.04,351.053 L519.957,351.536 L519.95,351.496 L512.82,348.239 C512.666,349.21 512.625,350.051 512.705,350.546 L512.935,351.969 L511.659,352.638 C501.844,357.781 496.111,356.928 495.871,356.889 L494.407,356.65 L494.377,356.435 L487.063,352.456 C486.78,354.177 486.698,355.922 486.741,357.122 L486.779,358.209 L485.891,358.832 C480.913,362.326 450.829,369.718 446.996,370.652 C446.817,370.74 446.629,370.809 446.433,370.841 C446.344,370.856 446.252,370.851 446.163,370.854 L445.61,370.988 L445.434,370.751 L415.62,361.255 C395.458,372.918 359.845,390.726 320.748,397.401 C318.903,397.715 317.096,398.016 315.327,398.303 C290.937,402.261 273.571,403.648 261.688,403.941 C223.208,407.955 170.344,409.544 108.734,397.868 C41.999,385.22 18.171,375.129 9.957,370.333 C7.697,369.853 6.031,369.46 5.209,369.186 C1.572,367.974 0.538,359.104 0.417,350.487 M519.29,134.851 C519.186,136.826 518.956,138.793 518.609,140.737 L519.438,140.87 C519.718,138.88 519.879,136.876 519.912,134.872 L519.29,134.851 z M518.004,143.635 C517.54,145.554 517,147.454 516.346,149.316 L517.389,149.667 C518.003,147.753 518.54,145.812 518.93,143.839 L518.004,143.635 z M515.304,152.083 L512.835,157.459 L513.999,158.039 L516.39,152.507 L515.304,152.083 z M511.43,160.063 L508.322,165.103 L509.577,165.92 L512.626,160.721 L511.43,160.063 z M506.635,167.538 L503.042,172.245 L504.366,173.295 L507.917,168.435 L506.635,167.538 z M501.159,174.532 L499.204,176.762 C498.56,177.513 497.882,178.232 497.213,178.959 L498.498,180.156 C499.172,179.415 499.855,178.677 500.502,177.912 L502.47,175.633 L501.159,174.532 z M495.155,181.094 L490.896,185.236 L492.147,186.562 L496.424,182.339 L495.155,181.094 z M488.708,187.259 L484.267,191.233 L485.521,192.645 L489.957,188.617 L488.708,187.259 z M494.906,265.082 L497.418,270.473 L498,270.243 L495.665,264.711 L494.906,265.082 z M491.455,256.746 L490.509,257.317 L493.51,262.456 L494.353,262.009 L491.455,256.746 z M482.024,193.203 L477.532,197.153 L478.835,198.61 L483.289,194.634 L482.024,193.203 z M488.907,254.814 L489.893,254.18 L486.574,249.171 L485.512,249.93 L488.907,254.814 z M481.16,241.967 L479.999,242.924 L483.728,247.553 L484.825,246.729 L481.16,241.967 z M475.3,199.159 L470.944,203.321 L472.35,204.714 L476.636,200.614 L475.3,199.159 z M474.043,236.293 L478.058,240.673 L479.25,239.648 L475.28,235.135 L474.043,236.293 z M468.862,205.522 C467.503,207.023 466.204,208.598 465.057,210.312 L466.646,211.379 C467.729,209.786 468.983,208.285 470.308,206.84 L468.862,205.522 z M463.493,213.001 C462.571,214.87 461.916,216.967 461.915,219.151 L463.762,219.159 C463.776,217.34 464.338,215.532 465.187,213.843 L463.493,213.001 z M465.571,227.819 L466.913,226.646 C465.667,225.21 464.649,223.595 464.137,221.842 L462.386,222.362 C463.013,224.444 464.202,226.261 465.571,227.819 M471.984,234.152 L473.212,232.955 L468.951,228.717 L467.739,229.993 L471.984,234.152 z M500.217,278.941 L500.504,278.882 C500.142,276.913 499.611,274.979 498.996,273.075 L498.506,273.244 C499.187,275.107 499.777,277.005 500.217,278.941 M552.105,268.583 C552.325,268.834 552.492,269.136 552.563,269.485 C552.565,269.488 552.565,269.491 552.565,269.494 C552.785,270.569 552.088,271.628 551.014,271.854 C550.984,271.858 550.955,271.863 550.925,271.868 C549.882,272.038 548.875,271.356 548.646,270.304 C548.646,270.3 548.644,270.297 548.643,270.293 C548.606,270.112 548.605,269.933 548.618,269.756 C546.577,270.309 544.618,270.841 542.721,271.358 C542.746,271.427 542.774,271.493 542.792,271.566 C542.792,271.57 542.792,271.574 542.793,271.578 C543.033,272.659 542.358,273.724 541.287,273.969 C541.248,273.976 541.208,273.982 541.159,273.99 C540.135,274.156 539.141,273.501 538.897,272.472 C538.897,272.469 538.896,272.466 538.895,272.462 C538.89,272.444 538.892,272.423 538.887,272.403 C538.265,272.573 537.642,272.743 537.037,272.909 C535.674,273.282 534.363,273.641 533.083,273.993 C533.272,275.027 532.639,276.035 531.614,276.288 C531.554,276.297 531.505,276.305 531.446,276.315 C530.505,276.468 529.6,275.935 529.266,275.045 C527.211,275.612 525.265,276.152 523.44,276.66 C523.553,277.624 522.959,278.545 521.994,278.812 C521.926,278.833 521.856,278.844 521.778,278.857 C520.896,279 520.022,278.526 519.653,277.717 C517.543,278.308 515.604,278.854 513.833,279.355 C513.97,280.322 513.394,281.264 512.429,281.549 C512.351,281.572 512.264,281.597 512.175,281.611 C511.278,281.757 510.396,281.272 510.033,280.436 C507.77,281.082 505.852,281.635 504.248,282.102 C504.515,283.118 503.952,284.177 502.94,284.508 C502.834,284.544 502.736,284.561 502.637,284.577 C501.977,284.684 501.325,284.448 500.88,283.982 C500.903,283.682 500.913,283.38 500.915,283.08 C500.917,282.673 500.906,282.266 500.881,281.861 L500.735,281.875 C500.78,282.283 500.81,282.694 500.828,283.105 C500.84,283.382 500.843,283.66 500.837,283.937 C500.658,283.737 500.512,283.501 500.423,283.229 C500.423,283.227 500.422,283.226 500.422,283.225 C498.3,283.855 497.37,284.145 497.37,284.145 C497.37,284.145 489.3,254.322 455.69,227.085 C433.82,209.36 513.92,181.165 514.772,131.273 C514.856,126.374 517.873,125.8 518.769,129.668 C528.925,173.517 586.515,234.729 552.105,268.583 M371.62,58.398 C372.991,58.93 374.44,59.465 375.945,60.003 C374.485,57.633 371.697,56.251 368.78,56.723 C364.918,57.351 362.295,60.988 362.922,64.851 C363.549,68.712 367.187,71.335 371.048,70.707 C371.974,70.557 372.825,70.231 373.581,69.773 C371.636,69.088 369.762,68.404 367.996,67.717 C365.422,66.717 364.146,63.819 365.146,61.246 C366.147,58.672 369.044,57.398 371.62,58.398 M319.777,50.718 C321.117,49.018 321.867,46.894 322.182,44.742 C322.423,42.583 322.241,40.337 321.377,38.351 C320.953,37.362 320.341,36.455 319.57,35.756 C318.797,35.062 317.841,34.621 316.874,34.552 C314.896,34.465 313.204,35.841 312.133,37.503 C311.037,39.182 310.403,41.171 310.137,43.186 C309.882,45.201 309.994,47.284 310.626,49.188 C311.242,51.064 312.524,52.823 314.457,53.242 C315.409,53.423 316.444,53.24 317.369,52.765 C318.292,52.288 319.114,51.565 319.777,50.718 M560.042,265.992 C558.96,266.197 558.238,267.237 558.445,268.328 C558.446,268.33 558.447,268.332 558.447,268.334 C558.654,269.402 559.667,270.105 560.731,269.932 C560.751,269.929 560.761,269.927 560.781,269.924 C561.856,269.719 562.577,268.689 562.378,267.603 C562.377,267.598 562.378,267.592 562.377,267.587 C562.171,266.507 561.132,265.785 560.042,265.992 M12.035,337.468 C10.935,337.433 10.011,338.302 9.967,339.404 C9.967,339.412 9.969,339.418 9.969,339.426 C9.947,340.516 10.81,341.426 11.903,341.47 C12.037,341.479 12.167,341.468 12.294,341.447 C13.207,341.299 13.924,340.524 13.967,339.555 C13.967,339.548 13.969,339.543 13.97,339.535 C14.003,338.424 13.145,337.501 12.035,337.468 M395.537,332.097 L395.537,332.096 C395.014,331.127 393.801,330.767 392.833,331.29 C391.855,331.824 391.495,333.036 392.016,334.004 L392.016,334.005 C392.436,334.778 393.288,335.157 394.097,335.025 C394.313,334.99 394.537,334.923 394.73,334.81 C395.709,334.288 396.07,333.074 395.537,332.097 M404.302,327.302 C404.301,327.301 404.301,327.301 404.301,327.3 C403.78,326.332 402.556,325.973 401.589,326.505 C400.623,327.037 400.263,328.259 400.793,329.226 C400.794,329.227 400.794,329.227 400.794,329.228 C401.222,329.989 402.063,330.369 402.874,330.237 C403.09,330.202 403.311,330.126 403.515,330.012 L403.517,330.022 C404.484,329.49 404.833,328.269 404.302,327.302 M410.352,321.7 C409.385,322.231 409.024,323.442 409.557,324.418 C409.557,324.419 409.557,324.42 409.558,324.421 C409.975,325.184 410.817,325.564 411.636,325.431 C411.853,325.396 412.063,325.322 412.269,325.208 C413.236,324.687 413.595,323.466 413.067,322.5 C413.065,322.498 413.065,322.497 413.065,322.495 C412.533,321.528 411.32,321.168 410.352,321.7 M138.777,357.544 L138.777,357.546 C138.61,358.636 139.354,359.66 140.444,359.828 C140.664,359.863 140.875,359.86 141.072,359.827 C141.901,359.692 142.595,359.033 142.727,358.161 L142.727,358.157 C142.892,357.067 142.149,356.044 141.06,355.877 C139.968,355.71 138.944,356.454 138.777,357.544 M152.623,359.644 L152.623,359.644 C152.79,358.553 152.037,357.531 150.938,357.375 C149.849,357.217 148.836,357.968 148.667,359.058 L148.667,359.06 C148.509,360.149 149.263,361.171 150.354,361.33 C150.562,361.367 150.773,361.363 150.97,361.331 C151.811,361.195 152.491,360.527 152.623,359.644 M119.006,354.391 C119.006,354.393 119.006,354.395 119.006,354.398 C118.833,355.489 119.576,356.508 120.655,356.686 C120.875,356.722 121.098,356.726 121.304,356.694 C122.125,356.56 122.81,355.912 122.952,355.038 L122.952,355.035 C123.126,353.944 122.383,352.92 121.301,352.742 C120.209,352.565 119.186,353.308 119.006,354.391 M208.29,365.938 C208.289,365.939 208.29,365.94 208.29,365.941 C208.197,367.049 209.021,368.008 210.118,368.093 C210.282,368.107 210.443,368.101 210.602,368.076 C211.49,367.931 212.202,367.198 212.273,366.264 L212.273,366.261 C212.366,365.163 211.542,364.194 210.443,364.11 C209.346,364.024 208.375,364.84 208.29,365.938 M188.373,364.064 L188.373,364.064 C188.268,365.166 189.064,366.151 190.156,366.257 C190.341,366.278 190.513,366.27 190.681,366.244 C191.559,366.101 192.253,365.389 192.358,364.472 L192.358,364.471 C192.462,363.37 191.667,362.395 190.564,362.28 C189.471,362.164 188.489,362.971 188.373,364.064 M198.33,365.052 L198.33,365.054 C198.225,366.155 199.03,367.127 200.13,367.231 C200.306,367.244 200.477,367.237 200.634,367.211 C201.522,367.067 202.227,366.344 202.312,365.429 C202.312,365.427 202.311,365.424 202.311,365.422 C202.41,364.315 201.595,363.346 200.499,363.252 C199.396,363.147 198.423,363.953 198.33,365.052 M168.499,361.828 C168.499,361.829 168.499,361.829 168.498,361.83 C168.36,362.925 169.142,363.923 170.236,364.059 C170.433,364.079 170.625,364.078 170.802,364.048 C171.661,363.91 172.359,363.219 172.467,362.32 C172.467,362.317 172.467,362.314 172.467,362.311 C172.599,361.218 171.819,360.226 170.728,360.089 C169.632,359.954 168.634,360.732 168.499,361.828 M178.432,362.994 C178.306,364.087 179.104,365.072 180.198,365.199 C180.383,365.219 180.563,365.21 180.743,365.181 C181.602,365.042 182.308,364.339 182.403,363.432 L182.403,363.427 C182.525,362.326 181.738,361.341 180.637,361.227 C179.543,361.101 178.56,361.887 178.433,362.991 C178.433,362.992 178.432,362.993 178.432,362.994 M158.578,360.5 C158.578,360.501 158.577,360.501 158.577,360.501 C158.43,361.599 159.191,362.611 160.279,362.757 C160.486,362.786 160.688,362.782 160.875,362.751 C161.715,362.616 162.415,361.936 162.533,361.046 C162.533,361.045 162.535,361.044 162.535,361.044 C162.691,359.955 161.92,358.946 160.833,358.798 L160.832,358.788 C159.733,358.642 158.724,359.404 158.578,360.5 M128.891,355.987 L128.891,355.988 C128.712,357.081 129.457,358.105 130.547,358.273 C130.766,358.308 130.979,358.304 131.186,358.27 C132.013,358.136 132.698,357.488 132.841,356.614 C133.008,355.523 132.265,354.499 131.172,354.321 C130.083,354.154 129.06,354.897 128.891,355.987 M317.907,363.004 C317.909,363.013 317.908,363.022 317.91,363.032 C318.134,364.11 319.19,364.809 320.268,364.584 C321.358,364.367 322.057,363.31 321.831,362.223 C321.83,362.217 321.827,362.212 321.826,362.208 C321.602,361.136 320.553,360.445 319.471,360.67 C318.401,360.884 317.707,361.924 317.907,363.004 M218.262,366.707 C218.262,366.709 218.262,366.71 218.262,366.711 C218.187,367.806 219.021,368.765 220.116,368.84 C220.279,368.845 220.432,368.841 220.579,368.817 C221.478,368.671 222.186,367.918 222.246,366.976 C222.246,366.974 222.246,366.972 222.246,366.97 C222.315,365.867 221.484,364.921 220.391,364.846 C219.286,364.772 218.338,365.603 218.262,366.707 M341.143,357.063 C341.142,357.058 341.139,357.054 341.137,357.049 C340.799,356.007 339.687,355.425 338.631,355.757 C337.588,356.088 337.003,357.194 337.321,358.238 C337.324,358.245 337.324,358.251 337.326,358.259 C337.633,359.222 338.588,359.797 339.556,359.64 C339.644,359.626 339.742,359.599 339.838,359.574 C340.889,359.241 341.477,358.123 341.143,357.063 M327.678,360.865 C327.68,360.873 327.68,360.879 327.682,360.887 C327.937,361.901 328.921,362.531 329.938,362.366 C329.998,362.356 330.056,362.346 330.116,362.336 C331.185,362.062 331.83,360.974 331.554,359.905 C331.552,359.897 331.548,359.891 331.546,359.883 C331.262,358.828 330.183,358.183 329.121,358.456 C328.059,358.729 327.418,359.802 327.678,360.865 M375.187,340.545 C374.205,341.039 373.802,342.236 374.292,343.219 C374.293,343.22 374.293,343.221 374.294,343.223 C374.699,344.029 375.565,344.435 376.404,344.299 C376.601,344.267 376.795,344.215 376.981,344.115 L376.983,344.125 C377.965,343.621 378.369,342.42 377.875,341.437 C377.873,341.434 377.871,341.432 377.87,341.429 C377.371,340.441 376.177,340.051 375.187,340.545 M366.244,344.864 C365.248,345.329 364.813,346.517 365.272,347.513 C365.274,347.516 365.274,347.52 365.276,347.523 C365.665,348.352 366.547,348.795 367.416,348.655 C367.583,348.627 367.766,348.569 367.936,348.49 C368.934,348.024 369.37,346.838 368.902,345.831 C368.902,345.83 368.902,345.83 368.901,345.829 C368.435,344.833 367.25,344.397 366.244,344.864 M359.805,349.951 C359.804,349.949 359.803,349.948 359.802,349.945 C359.372,348.935 358.203,348.459 357.19,348.886 C356.171,349.314 355.695,350.486 356.123,351.496 C356.125,351.501 356.125,351.505 356.127,351.51 C356.491,352.374 357.399,352.854 358.287,352.71 C358.435,352.685 358.59,352.64 358.742,352.576 C359.766,352.146 360.235,350.976 359.805,349.951 M350.559,353.721 C350.557,353.716 350.554,353.712 350.552,353.708 C350.158,352.686 349.014,352.16 347.989,352.547 C346.948,352.928 346.426,354.072 346.801,355.103 C346.802,355.105 346.802,355.108 346.803,355.11 C347.145,356.027 348.08,356.544 348.998,356.395 C349.125,356.375 349.25,356.335 349.376,356.293 C350.409,355.914 350.939,354.753 350.559,353.721 M252.209,368.137 C252.226,367.036 251.342,366.133 250.25,366.12 L250.24,366.121 C249.146,366.096 248.241,366.976 248.221,368.077 C248.221,368.082 248.219,368.085 248.219,368.09 C248.194,369.188 249.083,370.097 250.179,370.112 L250.18,370.122 C250.302,370.123 250.421,370.113 250.541,370.094 C251.479,369.942 252.196,369.126 252.21,368.152 C252.21,368.146 252.209,368.142 252.209,368.137 M262.209,368.143 C262.198,367.043 261.308,366.158 260.206,366.165 C259.099,366.173 258.215,367.059 258.213,368.165 C258.213,368.169 258.212,368.174 258.212,368.18 C258.219,369.283 259.124,370.17 260.228,370.164 C260.329,370.167 260.438,370.149 260.536,370.133 C261.494,369.977 262.22,369.152 262.209,368.151 C262.209,368.147 262.209,368.145 262.209,368.143 M228.23,367.328 C228.23,367.33 228.23,367.331 228.229,367.333 C228.176,368.435 229.026,369.371 230.13,369.435 C230.274,369.442 230.415,369.429 230.551,369.407 C231.46,369.259 232.176,368.496 232.224,367.535 C232.225,367.534 232.224,367.533 232.224,367.531 C232.286,366.428 231.436,365.495 230.334,365.44 C229.231,365.376 228.296,366.225 228.23,367.328 M238.225,367.791 C238.225,367.793 238.224,367.795 238.224,367.797 C238.179,368.898 239.049,369.832 240.149,369.866 C240.282,369.874 240.413,369.864 240.542,369.843 C241.459,369.694 242.183,368.908 242.217,367.939 C242.217,367.935 242.216,367.931 242.216,367.926 C242.244,366.823 241.387,365.906 240.292,365.872 C239.184,365.829 238.261,366.694 238.225,367.791 M272.211,367.916 C272.179,366.81 271.251,365.953 270.154,365.979 C269.05,366.017 268.191,366.929 268.211,368.032 C268.211,368.037 268.21,368.042 268.21,368.046 C268.248,369.146 269.167,370.009 270.268,369.982 C270.357,369.977 270.447,369.974 270.538,369.96 C271.515,369.8 272.245,368.932 272.212,367.924 C272.212,367.921 272.211,367.918 272.211,367.916 M282.205,367.438 C282.205,367.432 282.203,367.427 282.202,367.422 C282.125,366.326 281.192,365.485 280.094,365.551 C278.991,365.61 278.145,366.554 278.208,367.656 L278.208,367.661 C278.266,368.765 279.211,369.605 280.317,369.547 C280.387,369.536 280.458,369.535 280.526,369.523 C281.522,369.362 282.258,368.461 282.205,367.438 M386.743,336.837 C386.741,336.834 386.738,336.832 386.737,336.829 C386.22,335.855 385.008,335.478 384.042,335.988 C383.061,336.502 382.68,337.718 383.203,338.688 C383.614,339.472 384.468,339.871 385.288,339.737 C385.496,339.704 385.708,339.638 385.904,339.536 C386.882,339.012 387.253,337.807 386.743,336.837 M308.062,364.706 C308.063,364.714 308.063,364.722 308.063,364.73 C308.24,365.815 309.263,366.562 310.349,366.385 C311.445,366.208 312.18,365.187 312.014,364.099 C312.012,364.09 312.009,364.084 312.007,364.075 C311.819,362.994 310.805,362.259 309.717,362.435 C308.64,362.61 307.899,363.619 308.062,364.706 M288.191,366.995 C288.191,366.998 288.191,367.001 288.191,367.003 C288.289,368.101 289.251,368.918 290.361,368.819 C290.412,368.821 290.451,368.814 290.5,368.806 C291.527,368.639 292.267,367.71 292.178,366.66 C292.177,366.654 292.175,366.648 292.174,366.641 C292.068,365.551 291.101,364.747 290.008,364.834 C288.912,364.93 288.1,365.899 288.191,366.995 M298.145,366.023 C298.145,366.028 298.144,366.032 298.145,366.036 C298.284,367.138 299.282,367.918 300.374,367.782 C301.467,367.655 302.248,366.657 302.119,365.553 C302.119,365.548 302.117,365.543 302.116,365.539 C301.971,364.454 300.99,363.679 299.892,363.817 L299.891,363.807 C298.803,363.944 298.026,364.934 298.145,366.023 M3.977,339.638 C3.977,339.634 3.977,339.63 3.976,339.626 C3.892,339.104 3.601,338.624 3.175,338.319 C2.638,337.939 1.922,337.833 1.301,338.065 C1.178,338.116 1.065,338.174 0.956,338.243 C0.844,338.311 0.735,338.39 0.64,338.476 C0.542,338.573 0.458,338.668 0.383,338.771 C0.309,338.875 0.236,338.998 0.187,339.118 C0.132,339.227 0.083,339.357 0.052,339.485 C0.023,339.61 0.013,339.743 0.002,339.867 C-0.005,340 0.006,340.139 0.027,340.267 C0.112,340.791 0.399,341.251 0.836,341.565 C1.183,341.814 1.585,341.934 1.999,341.932 C2.105,341.932 2.212,341.929 2.32,341.912 C2.587,341.868 2.835,341.777 3.057,341.639 C3.277,341.502 3.473,341.33 3.628,341.111 C3.932,340.68 4.058,340.158 3.977,339.638 M571.837,267.39 C571.526,267.822 571.07,268.097 570.553,268.185 C570.548,268.185 570.543,268.188 570.539,268.188 C570.006,268.276 569.48,268.158 569.044,267.843 C568.94,267.769 568.844,267.673 568.749,267.578 C568.663,267.49 568.584,267.38 568.516,267.271 C568.448,267.161 568.388,267.048 568.348,266.923 C568.299,266.805 568.271,266.684 568.25,266.561 C568.25,266.555 568.247,266.55 568.246,266.544 C568.225,266.416 568.212,266.277 568.221,266.143 C568.222,266.022 568.241,265.887 568.271,265.76 C568.3,265.634 568.34,265.505 568.392,265.385 C568.455,265.276 568.516,265.153 568.591,265.049 C568.675,264.945 568.761,264.85 568.856,264.753 C568.955,264.668 569.053,264.589 569.164,264.521 C569.274,264.453 569.396,264.393 569.521,264.352 C569.768,264.251 570.024,264.21 570.292,264.227 C570.422,264.226 570.547,264.247 570.673,264.277 C570.8,264.306 570.928,264.347 571.048,264.398 C571.169,264.46 571.281,264.522 571.384,264.596 C571.488,264.67 571.594,264.765 571.679,264.852 C571.766,264.95 571.854,265.057 571.923,265.168 C571.992,265.279 572.042,265.402 572.09,265.515 C572.141,265.639 572.173,265.776 572.194,265.904 C572.215,266.032 572.226,266.163 572.217,266.295 C572.208,266.428 572.198,266.552 572.168,266.678 C572.137,266.804 572.097,266.932 572.035,267.044 C571.983,267.164 571.922,267.286 571.837,267.39" fill="#0A0B09"/>
  </g>
</svg>
