<svg id="Capa_1" enable-background="new 0 0 512 512" height="512" viewBox="0 0 512 512" width="512" xmlns="http://www.w3.org/2000/svg"><g><path d="m34.394 476.606c2.813 2.813 6.627 4.394 10.606 4.394h182c3.979 0 7.793-1.581 10.606-4.394l30-30c2.813-2.813 4.394-6.627 4.394-10.606v-360c0-3.979-1.581-7.793-4.394-10.606l-30-30c-2.813-2.813-6.627-4.394-10.606-4.394h-182c-3.979 0-7.793 1.581-10.606 4.394l-30 30c-2.813 2.813-4.394 6.627-4.394 10.606v360c0 3.979 1.581 7.793 4.394 10.606zm-4.394-394.393 21.213-21.213h169.573l21.214 21.213v347.573l-21.213 21.214h-169.574l-21.213-21.213z"/><path d="m452 46c0-8.284-6.716-15-15-15h-60c-8.284 0-15 6.716-15 15v45h-45c-8.284 0-15 6.716-15 15v60c0 8.284 6.716 15 15 15h45v150h-45c-8.284 0-15 6.716-15 15v60c0 8.284 6.716 15 15 15h45v45c0 8.284 6.716 15 15 15h60c8.284 0 15-6.716 15-15v-108.775c4.429 2.351 9.414 3.775 15 3.775 31.085 0 45-47.713 45-95 0-59.171-21.27-117.688-60-165.399zm-120 105v-30h30v30zm0 240v-30h30v30zm90 60h-30v-390h30zm60-185c0 40.16-10.583 61.906-15.397 64.94-1.598-.431-5.005-3.245-8.75-9.85-2.968-5.237-4.949-10.661-5.853-13.381v-154.07c25.505 45.256 30 87.941 30 112.361z"/><path d="m76 361c8.284 0 15-6.716 15-15 0-63.673 12.845-115.612 45-178.382 32.155 62.77 45 114.709 45 178.382 0 8.284 6.716 15 15 15s15-6.716 15-15c0-76.209-16.876-136.506-60-213.895v-26.105c0-8.284-6.716-15-15-15s-15 6.716-15 15v26.105c-43.124 77.389-60 137.686-60 213.895 0 8.284 6.716 15 15 15z"/></g></svg>