<?xml version="1.0" encoding="UTF-8" standalone="no"?>
<!-- Created with Inkscape (http://www.inkscape.org/) -->

<svg
   xmlns:dc="http://purl.org/dc/elements/1.1/"
   xmlns:cc="http://creativecommons.org/ns#"
   xmlns:rdf="http://www.w3.org/1999/02/22-rdf-syntax-ns#"
   xmlns:svg="http://www.w3.org/2000/svg"
   xmlns="http://www.w3.org/2000/svg"
   xmlns:sodipodi="http://sodipodi.sourceforge.net/DTD/sodipodi-0.dtd"
   xmlns:inkscape="http://www.inkscape.org/namespaces/inkscape"
   version="1.1"
   id="svg5487"
   xml:space="preserve"
   width="880"
   height="880"
   viewBox="0 0 880 880"
   sodipodi:docname="teddy-bear-image-publicdomainvectors.org.svg"
   inkscape:version="0.92.4 (5da689c313, 2019-01-14)"><metadata
     id="metadata5493"><rdf:RDF><cc:Work
         rdf:about=""><dc:format>image/svg+xml</dc:format><dc:type
           rdf:resource="http://purl.org/dc/dcmitype/StillImage" /><dc:title></dc:title></cc:Work></rdf:RDF></metadata><defs
     id="defs5491"><clipPath
       clipPathUnits="userSpaceOnUse"
       id="clipPath5503"><path
         d="M 0,660 H 660 V 0 H 0 Z"
         id="path5501"
         inkscape:connector-curvature="0" /></clipPath></defs><sodipodi:namedview
     pagecolor="#ffffff"
     bordercolor="#666666"
     borderopacity="1"
     objecttolerance="10"
     gridtolerance="10"
     guidetolerance="10"
     inkscape:pageopacity="0"
     inkscape:pageshadow="2"
     inkscape:window-width="724"
     inkscape:window-height="480"
     id="namedview5489"
     showgrid="false"
     inkscape:zoom="0.26818182"
     inkscape:cx="440"
     inkscape:cy="440"
     inkscape:window-x="0"
     inkscape:window-y="0"
     inkscape:window-maximized="0"
     inkscape:current-layer="g5495" /><g
     id="g5495"
     inkscape:groupmode="layer"
     inkscape:label="teddy-bear-image-publicdomainvectors.org"
     transform="matrix(1.3333333,0,0,-1.3333333,0,880)"><g
       id="g5497"><g
         id="g5499"
         clip-path="url(#clipPath5503)"><path
           d="m 255.636,268.896 c 0.247,-0.424 0.789,-0.563 1.213,-0.319 l 1.741,1.002 c 0,0.002 0.001,0.002 0.001,0.002 l 32.756,18.913 c 0.01,0.426 0.042,0.845 0.062,1.268 0.022,0.468 0.033,0.939 0.069,1.405 L 255.951,270.11 c -0.422,-0.25 -0.561,-0.791 -0.315,-1.214 m -6.447,-139.358 c -0.041,0.101 -0.085,0.201 -0.116,0.303 l -7.074,-4.385 c -0.412,-0.258 -0.543,-0.797 -0.293,-1.211 0.247,-0.416 0.785,-0.557 1.204,-0.314 l 7.24,4.18 c -0.447,0.455 -0.761,0.938 -0.961,1.427 m -61.799,293.46 0.9,0.729 c 0.238,0.191 0.336,0.483 0.313,0.769 l 5.79,3.342 z m -0.408,-1.319 c 0.027,-0.045 0.075,-0.062 0.106,-0.099 l -5.099,-2.947 5.151,4.164 c -0.309,-0.286 -0.391,-0.751 -0.158,-1.118 m 112.971,37.354 c -0.131,0.045 -0.275,0.066 -0.413,0.105 l 16.414,9.476 z m 4.188,-3.156 c -0.015,0.027 -0.035,0.054 -0.051,0.08 l 5.793,3.345 z m -7.268,-6.253 v 0 h -10e-4 c -2.529,0 -4.667,1.455 -4.667,3.179 0,1.721 2.138,3.177 4.667,3.177 h 10e-4 v 0 c 2.528,0 4.666,-1.455 4.666,-3.179 0,-1.721 -2.138,-3.177 -4.666,-3.177 m 72.595,60.738 4.957,2.86 -4.998,-3.347 c -0.002,0.006 -0.002,0.012 -0.006,0.017 -0.108,0.182 -0.273,0.298 -0.454,0.366 0.169,-0.01 0.344,0.012 0.501,0.104 m 7.587,-57.56 c 0,0.246 0.054,0.484 0.136,0.716 0.493,1.391 2.363,2.462 4.532,2.462 2.167,0 4.036,-1.071 4.529,-2.462 0.082,-0.232 0.136,-0.47 0.136,-0.716 v -0.001 c 0,-0.143 -0.036,-0.281 -0.065,-0.42 -0.315,-1.532 -2.283,-2.758 -4.6,-2.758 -2.32,0 -4.288,1.226 -4.604,2.758 -0.028,0.139 -0.064,0.277 -0.064,0.42 z m 5.977,8.588 -3.369,-2.096 c -0.16,-0.034 -0.31,-0.078 -0.466,-0.119 z m -46.354,-85.628 0.02,-1.31 -33.901,-19.572 z m -0.103,7.032 0.017,-1.102 -33.35,-19.254 z m 0.067,-4.489 -32.046,-18.501 32.03,19.608 z m 0.107,-7.439 -22.121,-12.77 22.111,13.514 z M 218.555,331.782 c -0.407,-0.259 -0.534,-0.795 -0.282,-1.209 0.248,-0.414 0.784,-0.549 1.204,-0.308 l 0.872,0.504 h 0.002 l 8.522,4.919 -7.7,-4.761 c -0.412,-0.256 -0.544,-0.793 -0.295,-1.212 0.251,-0.416 0.785,-0.555 1.208,-0.314 l 0.965,0.559 h 0.002 l 7.546,4.356 -6.86,-4.239 c -0.412,-0.256 -0.544,-0.793 -0.296,-1.212 0.248,-0.416 0.786,-0.555 1.207,-0.311 l 29.791,17.197 -26.291,-17.029 c -0.405,-0.261 -0.527,-0.798 -0.276,-1.209 0.251,-0.412 0.786,-0.545 1.202,-0.307 l 8.59,4.959 20.993,12.121 -26.17,-16.871 c -0.403,-0.26 -0.527,-0.797 -0.276,-1.209 0.251,-0.414 0.788,-0.547 1.204,-0.309 l 22.734,13.127 -20.689,-12.486 c -0.418,-0.252 -0.555,-0.793 -0.307,-1.213 0.248,-0.42 0.786,-0.56 1.209,-0.317 l 1.546,0.891 h 0.002 l 37.259,21.512 -36.059,-22 c -0.419,-0.254 -0.551,-0.794 -0.303,-1.213 0.248,-0.416 0.787,-0.556 1.207,-0.314 l 42.842,24.734 -39.886,-24.394 c -0.416,-0.255 -0.552,-0.795 -0.301,-1.213 0.245,-0.416 0.784,-0.56 1.206,-0.317 l 51.27,29.602 -47.991,-29.542 c -0.414,-0.253 -0.548,-0.794 -0.297,-1.212 0.247,-0.418 0.785,-0.557 1.207,-0.314 l 44.676,25.795 5.319,3.071 -47.091,-28.754 c -0.416,-0.253 -0.55,-0.794 -0.3,-1.212 0.246,-0.419 0.783,-0.558 1.205,-0.316 l 3.47,2.003 -2.371,-1.398 c -0.421,-0.248 -0.561,-0.789 -0.314,-1.213 0.243,-0.421 0.786,-0.563 1.209,-0.322 l 74.682,43.117 -72.213,-43.23 c -0.419,-0.25 -0.556,-0.791 -0.311,-1.211 0.248,-0.423 0.79,-0.565 1.211,-0.321 l 76.521,44.18 -74.576,-44.76 c -0.42,-0.25 -0.558,-0.791 -0.31,-1.211 0.245,-0.422 0.79,-0.561 1.209,-0.32 l 34.096,19.686 47.26,27.285 -80.101,-48.274 c -0.416,-0.252 -0.553,-0.791 -0.305,-1.213 0.247,-0.419 0.788,-0.561 1.208,-0.316 l 2.752,1.589 h 0.002 l 27.959,16.141 12.797,7.389 -43.731,-26.031 c -0.417,-0.249 -0.558,-0.791 -0.311,-1.211 0.247,-0.422 0.787,-0.565 1.21,-0.32 l 26.578,15.343 -27.64,-16.398 c -0.419,-0.248 -0.559,-0.791 -0.311,-1.211 0.246,-0.424 0.787,-0.564 1.209,-0.322 l 42.6,24.595 -44.355,-26.429 c -0.419,-0.25 -0.558,-0.793 -0.313,-1.213 0.247,-0.422 0.79,-0.563 1.211,-0.32 l 2.649,1.528 64.879,37.458 -69.681,-41.937 c -0.417,-0.251 -0.556,-0.792 -0.306,-1.212 0.248,-0.42 0.787,-0.563 1.208,-0.318 l 2.645,1.526 h 0.002 l 34.248,19.775 -38.719,-23.082 c -0.419,-0.251 -0.558,-0.793 -0.309,-1.213 0.243,-0.423 0.787,-0.563 1.208,-0.321 l 38.171,22.038 -39.704,-23.748 c -0.417,-0.25 -0.556,-0.789 -0.311,-1.211 0.218,-0.372 0.668,-0.526 1.056,-0.391 l -1.123,-0.667 c -0.42,-0.251 -0.561,-0.792 -0.316,-1.214 0.249,-0.42 0.791,-0.562 1.212,-0.32 l 2.484,1.435 h 0.002 l 3.619,2.09 13.261,7.657 -20.72,-12.375 c -0.419,-0.25 -0.558,-0.79 -0.31,-1.213 0.248,-0.42 0.79,-0.565 1.21,-0.319 l 38.399,22.172 c 7.034,13.965 20.306,23.389 35.538,23.389 2.158,0 4.274,-0.19 6.341,-0.555 0.01,-0.002 0.021,-0.006 0.032,-0.007 h 10e-4 l 44.453,26.988 1.525,0.925 c 0.08,0.049 0.137,0.115 0.195,0.18 0.248,0.283 0.31,0.695 0.109,1.033 -0.251,0.418 -0.789,0.561 -1.21,0.319 l -21.513,-12.424 20.276,12.119 c 0.315,0.187 0.471,0.541 0.424,0.881 -0.013,0.114 -0.051,0.228 -0.114,0.333 -0.207,0.355 -0.625,0.498 -1.002,0.391 -0.046,-0.015 -0.095,-0.017 -0.141,-0.036 l 0.081,0.046 0.099,0.059 c 0.315,0.187 0.472,0.539 0.425,0.881 -0.014,0.114 -0.052,0.226 -0.112,0.333 -0.248,0.423 -0.789,0.565 -1.212,0.319 l -22.154,-12.791 39.019,23.352 c 0.417,0.252 0.557,0.793 0.308,1.212 -0.246,0.423 -0.788,0.565 -1.21,0.32 l -27.316,-15.771 35.688,21.289 2.298,1.37 c 0.315,0.188 0.471,0.54 0.427,0.88 -0.016,0.115 -0.052,0.228 -0.116,0.333 -0.249,0.423 -0.788,0.564 -1.211,0.32 l -60.957,-35.194 68.497,41.255 c 0.315,0.189 0.469,0.538 0.424,0.881 -0.016,0.113 -0.054,0.227 -0.116,0.332 -0.248,0.421 -0.786,0.561 -1.21,0.317 l -39.661,-22.898 43.604,25.996 c 0.315,0.186 0.472,0.538 0.427,0.88 -0.016,0.115 -0.055,0.227 -0.114,0.332 -0.25,0.422 -0.79,0.565 -1.212,0.319 l -24.125,-13.928 27.137,16.107 c 0.42,0.251 0.56,0.793 0.315,1.214 -0.251,0.424 -0.79,0.565 -1.213,0.321 l -40.093,-23.149 42.999,25.609 c 0.421,0.25 0.56,0.79 0.313,1.213 -0.249,0.423 -0.787,0.564 -1.211,0.319 l -75.668,-43.686 78.704,47.468 c 0.314,0.189 0.469,0.539 0.424,0.88 -0.016,0.114 -0.054,0.228 -0.116,0.333 -0.248,0.421 -0.787,0.56 -1.21,0.317 l -71.258,-41.14 73.367,44.058 c 0.417,0.253 0.555,0.793 0.307,1.213 -0.247,0.422 -0.787,0.563 -1.21,0.319 l -69.085,-39.886 68.455,41.002 2.678,1.605 c 0.315,0.188 0.471,0.54 0.424,0.881 -0.013,0.113 -0.051,0.228 -0.114,0.332 -0.246,0.422 -0.787,0.564 -1.21,0.321 l -1.177,-0.681 2.343,1.382 c 0.423,0.247 0.563,0.789 0.317,1.213 -0.25,0.421 -0.79,0.566 -1.211,0.32 l -81.342,-46.961 -0.015,0.98 16.953,10.362 c 0.311,0.19 0.464,0.542 0.416,0.883 -0.015,0.112 -0.053,0.225 -0.116,0.331 -0.01,0.017 -0.029,0.028 -0.042,0.046 -1.729,-0.823 -3.495,-1.521 -5.287,-2.111 l -11.962,-6.906 -0.023,1.581 6.067,3.74 c 0.036,0.022 0.06,0.057 0.091,0.086 -1.539,-0.294 -3.087,-0.519 -4.644,-0.664 -10e-4,0 -0.003,0 -0.004,0 l -1.544,-0.891 -0.01,0.776 -0.367,25.112 c 4.462,1.202 8.727,4.445 11.494,7.727 1.976,2.343 3.193,4.706 3.147,6.357 -0.002,0 -14.58,1.065 -34.205,1.111 -2.562,0.005 -3.563,-0.791 -3.454,-2.043 0.283,-3.201 7.829,-9.374 15.173,-12.727 0.087,-0.04 0.177,-0.067 0.265,-0.097 0.157,-0.051 0.313,-0.097 0.466,-0.153 l 0.368,-25.215 c -0.831,0.063 -1.663,0.147 -2.492,0.249 l -19.058,-11.003 18.367,11.095 c -10e-4,10e-4 0,0 -10e-4,10e-4 -0.946,0.129 -1.894,0.285 -2.836,0.465 l -65.983,-38.095 24.282,15.695 c 0.023,-0.096 0.056,-0.191 0.112,-0.277 0.174,-0.256 0.453,-0.397 0.742,-0.397 0.155,0 0.313,0.041 0.454,0.127 l 38.945,23.24 c -0.827,0.181 -1.648,0.379 -2.467,0.597 -0.11,0.03 -0.218,0.063 -0.328,0.093 -0.438,0.12 -0.876,0.24 -1.31,0.37 -10e-4,0 -10e-4,0 -0.002,0 l -8.514,-4.915 7.22,5.32 c -0.697,0.228 -1.387,0.477 -2.077,0.729 -0.173,0.063 -0.348,0.118 -0.52,0.182 l -14.373,-8.297 12.824,8.897 c -0.774,0.316 -1.542,0.654 -2.304,1.001 0,10e-4 -0.001,10e-4 -0.002,10e-4 l -4.378,-2.527 4.064,2.667 c -0.712,0.332 -1.412,0.684 -2.113,1.045 0,0 -10e-4,0 -0.002,0.001 l -7.292,-4.213 6.732,4.504 c -0.683,0.365 -1.362,0.737 -2.032,1.126 l -8.811,-5.086 8.121,5.501 c -0.335,0.202 -0.663,0.413 -0.995,0.619 -0.313,0.195 -0.629,0.382 -0.938,0.583 -0.001,0 -0.001,0 -0.002,10e-4 l -7.033,-4.064 6.546,4.396 c -0.612,0.408 -1.224,0.825 -1.825,1.257 0,0.001 -10e-4,0.001 -10e-4,0.001 l -0.682,-0.394 0.648,0.422 c -0.576,0.415 -1.145,0.841 -1.704,1.276 l -0.001,10e-4 -12.555,-7.25 11.5,8.108 c -0.571,0.466 -1.131,0.938 -1.681,1.426 l -11.405,-6.584 10.542,7.367 c -0.301,0.279 -0.593,0.568 -0.888,0.853 -0.221,0.214 -0.448,0.423 -0.666,0.64 v 0.002 l -2.642,-1.527 2.514,1.654 c -0.32,0.321 -0.63,0.65 -0.943,0.977 -0.156,0.163 -0.317,0.322 -0.471,0.488 l -12.189,-7.037 11.323,7.99 c -0.084,0.097 -0.17,0.191 -0.256,0.285 -0.065,0.071 -0.13,0.14 -0.193,0.213 -0.085,0.099 -0.16,0.196 -0.239,0.294 -0.224,0.278 -0.436,0.555 -0.649,0.831 0,0.001 0,0.001 -0.001,0.002 l -12.577,-7.262 11.792,8.353 c -0.084,0.128 -0.158,0.254 -0.239,0.381 -0.302,0.474 -0.583,0.948 -0.825,1.42 l -5.919,-3.417 5.714,3.821 c -0.301,0.62 -0.557,1.237 -0.76,1.846 l -0.001,10e-4 -0.447,-0.259 0.437,0.283 c -0.067,0.202 -0.122,0.402 -0.18,0.602 -0.133,0.451 -0.252,0.899 -0.332,1.344 l -7.637,-4.408 7.55,5.066 c -0.07,0.539 -0.096,1.073 -0.1,1.603 -0.002,0.202 -0.01,0.405 -0.003,0.605 l -2.398,-1.385 2.4,1.56 v 0 c 0.044,0.816 0.166,1.616 0.349,2.407 l -10.73,-6.193 11.074,7.447 c 0.292,0.906 0.661,1.796 1.112,2.662 -0.167,0.008 -0.336,-0.013 -0.491,-0.104 l -0.804,-0.463 1.53,0.975 c 0.367,0.667 0.773,1.319 1.22,1.959 -0.272,0.327 -0.737,0.431 -1.118,0.215 l -9.4,-5.427 13.132,8.584 c 0.383,0.251 0.511,0.743 0.31,1.145 l 3.145,1.888 c 4.081,3.357 8.759,5.948 12.429,7.466 l 5.483,3.292 51.57,29.774 -51.403,-31.51 c 1.494,0.169 2.977,0.329 4.417,0.455 l 35.025,20.221 -33.109,-20.082 c 2.738,0.208 5.404,0.358 7.952,0.416 l 34.932,20.169 -32.969,-20.155 c 1.226,0.011 2.436,0.007 3.618,-0.016 l 19.698,11.373 -18.788,-11.4 c 1.155,-0.029 2.29,-0.076 3.4,-0.14 l 30.521,17.624 c -0.213,-0.227 -0.405,-0.462 -0.582,-0.711 l -27.452,-17.076 c 1.072,-0.087 2.106,-0.198 3.13,-0.316 h 10e-4 l 23.246,13.422 c 0.018,-0.151 0.029,-0.303 0.058,-0.451 l -21.172,-13.24 c 0.527,-0.074 1.052,-0.149 1.57,-0.227 0.461,-0.07 0.918,-0.142 1.365,-0.221 l 4.95,2.855 -4.74,-2.898 c 0.934,-0.167 1.846,-0.346 2.735,-0.541 l 10e-4,-10e-4 17.906,10.339 c 0.069,-0.054 0.146,-0.098 0.217,-0.147 l -16.649,-10.543 c 0.879,-0.214 1.746,-0.435 2.578,-0.673 l 10e-4,-0.001 17.128,9.891 c 0.216,-0.05 0.423,-0.112 0.643,-0.146 l -15.997,-10.294 c 0.812,-0.264 1.596,-0.546 2.36,-0.834 0,0 0.001,-10e-4 0.002,-10e-4 l 12.587,7.267 -11.962,-7.502 c 0.743,-0.295 1.452,-0.605 2.148,-0.922 l 16.373,9.453 -15.5,-9.847 c 0.689,-0.339 1.341,-0.691 1.979,-1.053 l 15.872,9.164 -15.081,-9.618 c 0.628,-0.377 1.239,-0.764 1.814,-1.165 l 8.449,4.879 -8.131,-5.117 c 0.282,-0.204 0.562,-0.409 0.833,-0.617 0.272,-0.208 0.537,-0.419 0.791,-0.633 l 20.329,11.736 -19.322,-12.671 c 0.505,-0.478 0.979,-0.969 1.418,-1.47 l 18.284,10.555 -17.508,-11.459 c 0.414,-0.535 0.8,-1.079 1.144,-1.634 v -10e-4 l 18.667,10.777 -18.053,-11.904 c 0.319,-0.612 0.599,-1.234 0.834,-1.87 v -10e-4 l 18.885,10.904 -18.452,-12.247 c 0.107,-0.389 0.195,-0.782 0.272,-1.178 0.061,-0.316 0.116,-0.633 0.158,-0.954 0,0 0,-10e-4 10e-4,-10e-4 l 0.081,0.049 -0.08,-0.053 c 0.094,-0.716 0.143,-1.442 0.143,-2.178 l 7.167,4.138 -7.162,-4.552 v -10e-4 c -0.022,-0.725 -0.079,-1.46 -0.189,-2.203 -0.011,-0.08 -0.015,-0.159 -0.029,-0.24 l 6.418,3.707 -6.508,-4.126 c -0.168,-0.904 -0.418,-1.823 -0.725,-2.747 l 12.862,7.426 -13.229,-8.521 c -0.425,-1.101 -0.983,-2.215 -1.606,-3.335 l 3.992,2.304 -4.158,-2.606 c -0.498,-0.872 -1.08,-1.749 -1.699,-2.627 -0.276,-0.391 -0.54,-0.781 -0.839,-1.172 l 15.577,8.993 -17.232,-11.03 c -0.114,-0.131 -0.227,-0.262 -0.34,-0.394 -0.198,-0.23 -0.403,-0.46 -0.61,-0.689 -0.118,-0.131 -0.231,-0.262 -0.355,-0.393 -0.373,-0.397 -0.76,-0.762 -1.142,-1.142 -1.855,-1.848 -3.799,-3.501 -5.823,-4.948 0.172,-0.238 0.435,-0.38 0.712,-0.38 0.15,0 0.3,0.037 0.437,0.115 l 57.343,32.533 c 0.426,0.242 0.576,0.784 0.333,1.21 -0.151,0.265 -0.418,0.407 -0.699,0.432 l 0.708,0.409 c 0.426,0.246 0.57,0.787 0.325,1.214 -0.246,0.426 -0.79,0.568 -1.214,0.325 l -16.572,-9.569 17.774,11.733 c 0.065,0.044 0.11,0.105 0.161,0.16 0.024,0.027 0.058,0.05 0.08,0.079 0.043,0.063 0.066,0.136 0.092,0.207 0.012,0.034 0.034,0.066 0.043,0.1 0.017,0.08 0.012,0.162 0.008,0.245 -0.001,0.028 0.007,0.06 0.004,0.089 -0.018,0.114 -0.056,0.225 -0.122,0.33 -0.048,0.079 -0.114,0.135 -0.178,0.192 -0.021,0.017 -0.036,0.043 -0.056,0.058 -0.077,0.058 -0.166,0.095 -0.258,0.124 -0.017,0.005 -0.028,0.015 -0.043,0.019 -0.218,0.057 -0.455,0.03 -0.665,-0.091 l -8.986,-5.186 9.894,6.197 c 0.409,0.258 0.539,0.799 0.288,1.213 -0.249,0.415 -0.786,0.552 -1.203,0.31 l -17.656,-10.192 18.568,11.96 c 0.407,0.262 0.53,0.801 0.279,1.211 -0.252,0.412 -0.787,0.547 -1.204,0.307 l -10.533,-6.081 11.443,7.252 c 0.408,0.26 0.534,0.796 0.285,1.21 -0.251,0.414 -0.785,0.551 -1.204,0.311 l -10.993,-6.348 11.717,7.449 c 0.408,0.261 0.533,0.797 0.283,1.211 -0.25,0.412 -0.783,0.549 -1.204,0.31 l -3.718,-2.148 4.381,2.741 c 0.409,0.258 0.539,0.796 0.288,1.211 -0.249,0.415 -0.787,0.551 -1.206,0.312 l -21.782,-12.576 22.273,14.782 c 0.4,0.268 0.517,0.802 0.264,1.209 -0.252,0.409 -0.785,0.544 -1.199,0.302 l -21.223,-12.252 21.728,14.326 c 0.4,0.264 0.519,0.801 0.267,1.21 -0.255,0.41 -0.785,0.541 -1.201,0.302 l -20.475,-11.822 20.684,13.54 c 0.402,0.263 0.521,0.799 0.27,1.209 -0.251,0.41 -0.782,0.545 -1.201,0.303 l -22.241,-12.842 22.375,14.674 c 0.4,0.265 0.521,0.8 0.269,1.208 -0.253,0.409 -0.783,0.544 -1.2,0.305 l -10.375,-5.989 10.743,6.76 c 0.41,0.259 0.538,0.798 0.286,1.212 -0.249,0.414 -0.782,0.55 -1.204,0.311 l -17.492,-10.098 17.758,11.324 c 0.408,0.26 0.533,0.798 0.284,1.21 -0.255,0.415 -0.784,0.548 -1.205,0.31 l -17.951,-10.364 17.979,11.418 c 0.407,0.26 0.531,0.799 0.282,1.213 -0.251,0.412 -0.785,0.549 -1.204,0.307 l -14.128,-8.156 14.2,8.906 c 0.41,0.257 0.539,0.796 0.289,1.21 -0.25,0.416 -0.786,0.553 -1.205,0.313 l -26.314,-15.193 26.083,16.782 c 0.407,0.261 0.53,0.797 0.278,1.209 -0.25,0.412 -0.784,0.546 -1.203,0.308 l -23.611,-13.633 23.502,14.882 c 0.41,0.26 0.534,0.798 0.285,1.21 -0.249,0.416 -0.785,0.552 -1.204,0.311 l -3.897,-2.249 6.754,4.131 c 0.415,0.255 0.548,0.795 0.3,1.212 -0.25,0.419 -0.787,0.558 -1.206,0.317 l -25.777,-14.882 33.224,20.776 c 0.414,0.256 0.543,0.794 0.293,1.21 -0.251,0.416 -0.783,0.554 -1.206,0.312 l -34.119,-19.699 37.442,23.289 c 0.412,0.258 0.543,0.796 0.292,1.212 -0.251,0.418 -0.786,0.555 -1.206,0.313 l -18.54,-10.705 20.54,12.46 c 0.415,0.253 0.551,0.795 0.302,1.212 -0.249,0.42 -0.787,0.562 -1.209,0.318 l -33.434,-19.305 34.585,21.141 c 0.415,0.254 0.548,0.794 0.3,1.212 -0.248,0.419 -0.788,0.559 -1.207,0.317 l -0.279,-0.162 1.289,0.769 c 0.417,0.253 0.557,0.793 0.308,1.214 -0.248,0.42 -0.787,0.563 -1.21,0.32 l -19.313,-11.153 c -0.283,-0.232 -0.582,-0.44 -0.896,-0.622 -0.315,-0.182 -0.645,-0.339 -0.991,-0.468 -10e-4,0 -0.002,0 -0.003,-10e-4 l -12.728,-7.348 11.624,7.053 c -0.396,-0.074 -0.805,-0.124 -1.239,-0.124 -0.535,-0.002 -1.247,0.171 -2.062,0.453 -0.171,0.059 -0.341,0.117 -0.522,0.186 h -10e-4 l -26.535,-15.32 25.6,15.691 c -0.814,0.357 -1.712,0.804 -2.651,1.301 -0.259,0.137 -0.524,0.284 -0.789,0.429 -0.528,0.289 -1.064,0.588 -1.617,0.911 l -30.997,-17.894 30.516,18.182 c -0.182,0.108 -0.37,0.227 -0.552,0.337 -0.551,0.329 -1.101,0.66 -1.66,1.008 l -33.143,-19.134 32.623,19.459 c -0.146,0.093 -0.291,0.19 -0.437,0.283 -0.583,0.372 -1.168,0.746 -1.746,1.128 l -47.534,-27.441 46.691,28.008 c -1.932,1.295 -3.777,2.599 -5.381,3.784 -1.494,1.103 -2.783,2.103 -3.721,2.888 0,0 0,0.001 -10e-4,0.001 l -24.348,-14.058 24.021,14.33 c -0.007,0.004 -0.015,0.01 -0.021,0.016 -0.425,0.364 -0.688,1.115 -0.817,1.871 -0.065,0.378 -0.096,0.757 -0.098,1.09 -0.001,0.334 0.028,0.622 0.082,0.815 0.092,0.33 0.225,0.658 0.362,0.984 l -35.933,-20.746 36.46,21.834 c 2.196,3.981 7.284,7.522 13.378,8.01 l 16.333,9.781 c 0.417,0.251 0.557,0.792 0.308,1.214 -0.248,0.421 -0.789,0.563 -1.21,0.317 l -47.582,-27.472 45.367,27.014 c 0.42,0.251 0.558,0.791 0.312,1.214 -0.25,0.423 -0.79,0.563 -1.212,0.32 l -27.895,-16.105 25.561,15.16 c 0.42,0.25 0.561,0.79 0.315,1.214 -0.248,0.422 -0.787,0.565 -1.211,0.319 l -94.589,-54.61 55.75,34.083 c 0.021,-0.057 0.032,-0.116 0.063,-0.169 0.167,-0.271 0.458,-0.42 0.756,-0.42 0.152,0 0.304,0.039 0.443,0.119 l 34.548,19.947 c 0.424,0.245 0.569,0.787 0.324,1.214 -0.246,0.426 -0.79,0.568 -1.214,0.324 l -11.539,-6.664 7.81,5.236 c 0.397,0.267 0.514,0.802 0.261,1.208 -0.256,0.408 -0.785,0.54 -1.199,0.301 l -14.353,-8.286 6.245,4.614 c 0.379,0.279 0.474,0.807 0.214,1.202 -0.256,0.394 -0.778,0.518 -1.186,0.282 l -13.014,-7.512 c -0.426,-0.246 -0.57,-0.79 -0.324,-1.214 0.195,-0.34 0.586,-0.5 0.944,-0.427 l -6.577,-4.862 c -0.378,-0.279 -0.473,-0.807 -0.216,-1.201 0.109,-0.165 0.268,-0.27 0.442,-0.334 -0.174,0.012 -0.347,-0.009 -0.507,-0.101 l -15.155,-8.752 13.911,8.311 c 0.418,0.251 0.556,0.79 0.31,1.214 -0.248,0.419 -0.79,0.561 -1.211,0.318 l -43.028,-24.843 40.411,24.476 c 0.417,0.253 0.552,0.795 0.304,1.213 -0.248,0.42 -0.787,0.561 -1.207,0.318 l -16.075,-9.281 14.373,8.609 c 0.421,0.25 0.559,0.792 0.311,1.211 -0.248,0.422 -0.788,0.562 -1.209,0.321 l -10.602,-6.12 8.671,5.187 c 0.418,0.25 0.556,0.79 0.309,1.212 -0.248,0.421 -0.789,0.564 -1.211,0.319 l -51.549,-29.762 47.455,29.212 c 0.31,0.191 0.462,0.543 0.414,0.883 -0.015,0.112 -0.056,0.224 -0.116,0.328 -0.251,0.419 -0.79,0.558 -1.21,0.315 l -12.952,-7.478 10.41,6.257 c 0.418,0.252 0.555,0.795 0.307,1.214 -0.248,0.422 -0.787,0.563 -1.21,0.318 l -9.6,-5.542 7.134,4.289 c 0.417,0.253 0.556,0.793 0.308,1.214 -0.248,0.419 -0.79,0.561 -1.21,0.318 l -11.115,-6.419 8.257,4.984 c 0.416,0.249 0.553,0.792 0.306,1.211 -0.248,0.422 -0.789,0.561 -1.21,0.318 l -36.795,-21.244 31.553,19.543 c 0.413,0.257 0.544,0.795 0.295,1.213 -0.25,0.417 -0.787,0.556 -1.207,0.312 l -39.987,-23.088 32.004,20.242 c 0.412,0.259 0.538,0.797 0.287,1.211 -0.249,0.415 -0.787,0.553 -1.204,0.31 l -25.993,-15.009 18.718,11.785 c 0.408,0.26 0.54,0.798 0.289,1.212 -0.253,0.414 -0.787,0.555 -1.207,0.31 l -17.28,-9.977 17.365,11.018 c 0.408,0.259 0.534,0.795 0.282,1.209 -0.248,0.414 -0.785,0.552 -1.203,0.309 l -11.459,-6.613 11.646,7.326 c 0.409,0.259 0.537,0.796 0.287,1.21 -0.249,0.416 -0.786,0.553 -1.207,0.311 l -11.965,-6.908 c -0.139,-0.499 -0.457,-0.874 -0.993,-1.067 -1.003,-0.362 -2.157,-0.87 -3.392,-1.464 -0.004,-0.002 -0.005,-0.004 -0.009,-0.005 l -0.663,-0.383 0.416,0.263 c -4.774,-2.324 -10.797,-6.008 -15.208,-8.825 -1.47,-0.939 -2.762,-1.782 -3.768,-2.446 -0.643,-0.423 -1.74,-0.551 -2.879,-0.511 l -14.786,-9.399 c -0.409,-0.26 -0.533,-0.796 -0.284,-1.21 0.251,-0.413 0.785,-0.549 1.205,-0.31 l 12.785,7.383 -11.647,-7.329 c -0.412,-0.257 -0.538,-0.796 -0.288,-1.211 0.247,-0.413 0.784,-0.552 1.203,-0.31 l 15.055,8.691 -17.366,-11.019 c -0.408,-0.259 -0.535,-0.798 -0.284,-1.21 0.249,-0.412 0.783,-0.551 1.202,-0.309 l 13.932,8.042 -18.715,-11.782 c -0.411,-0.258 -0.537,-0.797 -0.287,-1.213 0.247,-0.412 0.787,-0.549 1.206,-0.309 l 28,16.167 -32.004,-20.241 c -0.409,-0.257 -0.538,-0.797 -0.287,-1.21 0.251,-0.414 0.788,-0.55 1.206,-0.31 l 28.404,16.399 -31.526,-19.527 c -0.412,-0.255 -0.543,-0.793 -0.294,-1.212 0.249,-0.413 0.788,-0.552 1.207,-0.312 l 6.295,3.634 -8.281,-4.995 c -0.419,-0.251 -0.554,-0.792 -0.306,-1.212 0.249,-0.421 0.786,-0.561 1.21,-0.318 l 5.165,2.983 -7.128,-4.287 c -0.419,-0.252 -0.555,-0.794 -0.309,-1.214 0.247,-0.422 0.79,-0.561 1.211,-0.318 l 8.632,4.984 -10.415,-6.259 c -0.415,-0.251 -0.554,-0.793 -0.307,-1.213 0.248,-0.421 0.788,-0.561 1.209,-0.32 l 45.552,26.3 -47.437,-29.202 c -0.414,-0.255 -0.545,-0.796 -0.298,-1.211 0.251,-0.417 0.79,-0.557 1.209,-0.314 l 7.199,4.155 -8.664,-5.183 c -0.419,-0.251 -0.558,-0.792 -0.309,-1.214 0.249,-0.419 0.786,-0.563 1.21,-0.318 l 13.034,7.526 -14.409,-8.629 c -0.42,-0.251 -0.556,-0.793 -0.311,-1.214 0.249,-0.419 0.791,-0.561 1.211,-0.318 l 39.233,22.651 -40.399,-24.469 c -0.417,-0.253 -0.551,-0.792 -0.303,-1.212 0.249,-0.419 0.788,-0.56 1.211,-0.318 l 12.816,7.401 -13.908,-8.307 c -0.418,-0.25 -0.557,-0.793 -0.311,-1.214 0.248,-0.421 0.79,-0.563 1.212,-0.319 l 57.397,33.138 -58.582,-35.813 c -0.414,-0.254 -0.549,-0.795 -0.3,-1.212 0.248,-0.416 0.787,-0.558 1.207,-0.317 l 24.871,14.36 -25.624,-15.196 c -0.419,-0.251 -0.56,-0.793 -0.314,-1.214 0.247,-0.423 0.789,-0.562 1.211,-0.322 l 39.753,22.951 c -0.038,-0.043 -0.06,-0.097 -0.096,-0.143 l -40.384,-24.048 c -0.422,-0.249 -0.561,-0.79 -0.312,-1.212 0.245,-0.421 0.786,-0.565 1.21,-0.32 l 38.213,22.062 c 0,-0.018 -0.005,-0.034 -0.005,-0.054 0,-0.171 0.045,-0.33 0.062,-0.498 L 249.751,428.97 c -0.419,-0.25 -0.559,-0.793 -0.312,-1.213 0.249,-0.422 0.79,-0.562 1.212,-0.319 l 19.214,11.094 -19.906,-11.777 c -0.42,-0.246 -0.56,-0.79 -0.315,-1.211 0.246,-0.423 0.787,-0.563 1.211,-0.322 l 39.957,23.07 c 0.081,-0.074 0.144,-0.159 0.229,-0.229 l -40.504,-24.161 c -0.419,-0.25 -0.558,-0.792 -0.308,-1.211 0.244,-0.422 0.785,-0.564 1.209,-0.322 l 23.826,13.757 -24.286,-14.366 c -0.42,-0.25 -0.561,-0.791 -0.314,-1.214 0.244,-0.422 0.787,-0.563 1.209,-0.322 l 7.505,4.332 -8.007,-4.723 c -0.422,-0.249 -0.56,-0.791 -0.316,-1.213 0.247,-0.424 0.791,-0.563 1.212,-0.322 l 13.666,7.891 -14.153,-8.359 c -0.422,-0.248 -0.561,-0.791 -0.315,-1.211 0.244,-0.424 0.786,-0.568 1.21,-0.322 l 19.976,11.532 -20.338,-12.017 c -0.419,-0.25 -0.56,-0.792 -0.312,-1.214 0.242,-0.421 0.786,-0.565 1.209,-0.322 l 80.552,46.508 -80.308,-48.179 c -0.418,-0.25 -0.558,-0.791 -0.309,-1.21 0.247,-0.424 0.789,-0.562 1.209,-0.321 l 65.128,37.603 -65.049,-38.805 c -0.421,-0.249 -0.56,-0.791 -0.311,-1.21 0.245,-0.422 0.785,-0.566 1.21,-0.322 l 61.432,35.468 -61.387,-36.576 c -0.419,-0.251 -0.559,-0.792 -0.312,-1.213 0.246,-0.421 0.788,-0.564 1.21,-0.32 l 84.431,48.747 -21.216,-12.744 -12.219,-7.054 c -0.21,-0.122 -0.35,-0.316 -0.411,-0.532 l -50.008,-30.034 c -0.417,-0.253 -0.557,-0.792 -0.31,-1.214 0.247,-0.419 0.791,-0.559 1.21,-0.318 l 13.448,7.765 -13.138,-8.591 c -0.404,-0.264 -0.523,-0.798 -0.273,-1.208 0.253,-0.409 0.786,-0.546 1.202,-0.304 l 2.525,1.457 -2.552,-1.629 c -0.407,-0.26 -0.531,-0.799 -0.282,-1.211 0.251,-0.414 0.789,-0.551 1.205,-0.308 l 13.012,7.514 -12.632,-8.5 c -0.399,-0.266 -0.512,-0.8 -0.26,-1.206 0.255,-0.407 0.785,-0.538 1.2,-0.301 l 4.633,2.675 -4.569,-2.964 c -0.403,-0.263 -0.525,-0.8 -0.272,-1.21 0.25,-0.41 0.783,-0.544 1.2,-0.306 l 10.469,6.046 -9.878,-6.629 c -0.397,-0.266 -0.513,-0.802 -0.26,-1.209 0.256,-0.405 0.787,-0.539 1.2,-0.3 l 3.331,1.923 -3.089,-2.006 c -0.404,-0.261 -0.525,-0.798 -0.272,-1.209 0.251,-0.411 0.781,-0.545 1.199,-0.305 l 8.829,5.097 -8.321,-5.562 c -0.398,-0.267 -0.515,-0.802 -0.261,-1.208 0.254,-0.407 0.784,-0.543 1.199,-0.301 l 15.67,9.046 -14.591,-10.335 c -0.387,-0.275 -0.488,-0.805 -0.235,-1.205 0.258,-0.399 0.785,-0.527 1.193,-0.288 l 15.342,8.855 -14.057,-9.917 c -0.389,-0.273 -0.492,-0.805 -0.236,-1.205 0.257,-0.399 0.783,-0.529 1.192,-0.292 l 6.017,3.475 -5.393,-3.547 c -0.402,-0.265 -0.519,-0.8 -0.269,-1.208 0.254,-0.409 0.786,-0.546 1.202,-0.304 l 14.725,8.503 -13.379,-9.348 c -0.39,-0.275 -0.496,-0.806 -0.241,-1.207 0.26,-0.404 0.785,-0.53 1.194,-0.292 l 15.684,9.054 -14.219,-10.026 c -0.39,-0.274 -0.493,-0.805 -0.239,-1.205 0.258,-0.399 0.783,-0.531 1.194,-0.291 l 4.117,2.376 -3.54,-2.302 c -0.305,-0.197 -0.449,-0.548 -0.396,-0.884 0.019,-0.112 0.058,-0.223 0.12,-0.325 0.252,-0.411 0.786,-0.546 1.203,-0.306 l 10.618,6.13 -9.384,-6.294 c -0.396,-0.266 -0.51,-0.799 -0.257,-1.206 0.254,-0.408 0.784,-0.542 1.198,-0.3 l 12.192,7.04 -10.804,-7.321 c -0.399,-0.268 -0.509,-0.803 -0.256,-1.209 0.252,-0.403 0.781,-0.536 1.198,-0.297 l 10.697,6.175 -9.466,-6.331 c -0.401,-0.266 -0.516,-0.801 -0.262,-1.207 0.255,-0.408 0.782,-0.543 1.198,-0.301 l 7.757,4.476 -6.765,-4.441 c -0.4,-0.264 -0.521,-0.799 -0.268,-1.208 0.255,-0.41 0.785,-0.546 1.2,-0.304 l 16.391,9.464 -15.268,-10.593 c -0.39,-0.271 -0.499,-0.803 -0.242,-1.204 0.256,-0.403 0.78,-0.536 1.192,-0.295 l 14.713,8.493 -15.644,-10.546 c -0.318,-0.213 -0.445,-0.594 -0.357,-0.95 l -28.929,-16.701 25.696,16.685 c 0.079,0.051 0.138,0.12 0.195,0.19 0.017,0.02 0.039,0.031 0.055,0.051 0.02,0.032 0.026,0.068 0.043,0.103 0.035,0.066 0.073,0.131 0.089,0.206 0.021,0.089 0.02,0.183 0.011,0.276 -0.003,0.019 0.005,0.036 10e-4,0.059 -0.017,0.112 -0.058,0.221 -0.121,0.325 -0.187,0.306 -0.536,0.46 -0.873,0.418 -0.112,-0.016 -0.224,-0.053 -0.33,-0.114 l -8.243,-4.759 6.753,4.175 c 0.412,0.256 0.543,0.797 0.295,1.213 -0.25,0.416 -0.79,0.557 -1.207,0.314 l -9.122,-5.269 7.591,4.7 c 0.1,0.066 0.187,0.146 0.254,0.241 0.051,0.073 0.081,0.155 0.11,0.237 0.007,0.024 0.022,0.043 0.03,0.068 0.054,0.221 0.024,0.458 -0.1,0.668 -0.25,0.416 -0.791,0.558 -1.208,0.313 l -23.151,-13.367 20.151,12.807 0.95,0.603 c 0.334,0.213 0.464,0.613 0.368,0.978 -0.024,0.078 -0.042,0.158 -0.086,0.231 -0.253,0.414 -0.789,0.553 -1.204,0.309 l -19.107,-11.031 17.635,11.085 c 0.307,0.193 0.456,0.545 0.407,0.884 -0.018,0.113 -0.057,0.223 -0.119,0.329 -0.188,0.31 -0.539,0.465 -0.877,0.42 -0.113,-0.014 -0.225,-0.049 -0.33,-0.112 l -13.146,-7.589 11.979,7.44 c 0.412,0.256 0.543,0.794 0.293,1.21 -0.062,0.105 -0.142,0.192 -0.235,0.26 -0.183,0.135 -0.414,0.195 -0.641,0.164 -0.112,-0.013 -0.225,-0.049 -0.331,-0.111 l -14.969,-8.641 12.161,7.566 1.834,1.141 c 0.103,0.064 0.189,0.145 0.255,0.238 0.099,0.141 0.155,0.306 0.162,0.474 0.009,0.169 -0.031,0.343 -0.124,0.5 -0.061,0.102 -0.143,0.19 -0.236,0.257 -0.275,0.203 -0.657,0.236 -0.971,0.054 l -20.644,-11.921 17.556,11.017 1.957,1.228 c 0.309,0.193 0.459,0.544 0.408,0.881 -0.017,0.116 -0.055,0.227 -0.118,0.329 -0.251,0.418 -0.788,0.552 -1.205,0.312 l -27.788,-16.043 26.28,16.711 c 0.408,0.26 0.534,0.798 0.284,1.211 -0.252,0.414 -0.787,0.552 -1.205,0.309 l -28.592,-16.509 27.339,17.366 c 0.409,0.258 0.533,0.797 0.285,1.21 -0.252,0.415 -0.79,0.554 -1.205,0.31 l -24.708,-14.264 23.694,14.879 c 0.31,0.192 0.459,0.544 0.409,0.882 -0.017,0.113 -0.054,0.223 -0.117,0.328 -0.252,0.414 -0.789,0.553 -1.207,0.311 l -28.819,-16.638 27.655,17.473 c 0.409,0.257 0.535,0.796 0.287,1.21 -0.253,0.416 -0.79,0.554 -1.205,0.311 l -26.794,-15.469 25.899,16.251 c 0.412,0.256 0.539,0.794 0.29,1.209 -0.251,0.416 -0.788,0.555 -1.207,0.312 l -34.264,-19.782 33.014,21.026 c 0.409,0.259 0.533,0.798 0.283,1.21 -0.249,0.412 -0.785,0.553 -1.203,0.309 l -11.739,-6.778 11.33,6.944 c 0.417,0.254 0.549,0.792 0.297,1.212 -0.246,0.418 -0.788,0.559 -1.205,0.314 l -24.578,-14.189 4.319,2.684 19.586,12.183 c 0.307,0.195 0.458,0.545 0.409,0.884 -0.017,0.113 -0.054,0.225 -0.116,0.329 -0.249,0.415 -0.79,0.556 -1.208,0.313 l -29.852,-17.236 28.997,18.174 c 0.41,0.257 0.537,0.796 0.289,1.212 -0.25,0.415 -0.788,0.555 -1.207,0.31 l -35.011,-20.215 33.932,21.472 c 0.41,0.259 0.535,0.798 0.286,1.212 -0.251,0.414 -0.79,0.553 -1.205,0.309 l -27.177,-15.691 26.457,16.473 c 0.412,0.256 0.541,0.795 0.293,1.212 -0.252,0.414 -0.79,0.556 -1.207,0.311 l -7.04,-4.064 6.817,4.148 c 0.414,0.253 0.55,0.793 0.301,1.211 -0.249,0.422 -0.788,0.562 -1.209,0.318 l -10.969,-6.333 10.677,6.518 c 0.416,0.254 0.549,0.794 0.3,1.212 -0.248,0.419 -0.789,0.562 -1.208,0.316 l -25.583,-14.772 24.927,15.485 c 0.412,0.255 0.544,0.796 0.293,1.212 -0.248,0.417 -0.786,0.556 -1.204,0.313 l -18.905,-10.915 18.425,11.344 c 0.414,0.255 0.545,0.795 0.297,1.212 -0.251,0.418 -0.788,0.558 -1.209,0.315 l -21.336,-12.32 20.765,12.804 c 0.414,0.253 0.545,0.794 0.297,1.211 -0.25,0.42 -0.788,0.557 -1.209,0.315 l -16.608,-9.591 16.158,9.903 c 0.414,0.254 0.545,0.795 0.298,1.213 -0.249,0.417 -0.789,0.557 -1.208,0.313 l -34.577,-19.962 33.539,21.09 c 0.409,0.257 0.539,0.795 0.288,1.212 -0.252,0.414 -0.786,0.554 -1.207,0.309 l -7.564,-4.368 7.206,4.383 c 0.415,0.254 0.553,0.795 0.304,1.212 -0.251,0.422 -0.791,0.562 -1.211,0.319 l -20.954,-12.098 20.22,12.469 c 0.415,0.257 0.546,0.794 0.297,1.212 -0.246,0.42 -0.789,0.56 -1.206,0.315 l -34.113,-19.697 32.796,20.756 c 0.41,0.257 0.537,0.796 0.284,1.21 -0.248,0.416 -0.785,0.552 -1.203,0.309 l -9.219,-5.322 8.581,5.268 c 0.416,0.254 0.548,0.795 0.298,1.213 -0.248,0.417 -0.788,0.557 -1.205,0.313 l -30.955,-17.87 29.083,18.635 c 0.408,0.261 0.532,0.798 0.282,1.21 -0.253,0.414 -0.784,0.549 -1.206,0.308 l -23.171,-13.377 21.523,13.544 c 0.408,0.257 0.536,0.795 0.287,1.209 -0.252,0.416 -0.789,0.555 -1.206,0.312 l -24.475,-14.131 24.095,15.257 c 0.41,0.26 0.536,0.798 0.283,1.212 -0.248,0.414 -0.787,0.553 -1.202,0.309 l -26.639,-15.379 26.382,16.834 c 0.41,0.26 0.534,0.798 0.281,1.211 -0.248,0.412 -0.783,0.549 -1.202,0.309 L 194.05,415.1 l 9.824,6.329 c -0.268,-0.048 -0.532,-0.1 -0.81,-0.119 -1.107,-0.071 -2.359,0.257 -3.432,0.869 l -1.318,-0.762 1.233,0.812 c -0.463,0.274 -0.89,0.602 -1.253,0.975 -1.09,1.119 -1.609,2.649 -0.837,4.363 0.157,0.343 0.345,0.691 0.612,1.048 1.615,2.164 3.779,2.735 5.919,2.72 0.398,-0.003 0.794,-0.017 1.189,-0.054 0.924,-0.087 1.68,-0.299 2.301,-0.595 l 9.324,5.998 c 0.405,0.262 0.529,0.796 0.277,1.208 -0.191,0.316 -0.543,0.466 -0.888,0.414 -0.02,0.081 -0.034,0.161 -0.079,0.235 -0.245,0.426 -0.791,0.572 -1.214,0.326 l -8.653,-4.997 7.162,4.95 c 0.393,0.272 0.5,0.803 0.246,1.207 -0.255,0.403 -0.782,0.531 -1.194,0.295 l -14.031,-8.102 10.584,8.139 c 0.371,0.287 0.456,0.81 0.197,1.197 -0.259,0.39 -0.778,0.512 -1.184,0.278 l -8.993,-5.192 4.346,3.344 c 0.372,0.285 0.459,0.808 0.2,1.198 -0.264,0.389 -0.779,0.511 -1.183,0.275 l -12.309,-7.106 c -0.424,-0.246 -0.572,-0.79 -0.326,-1.214 0.244,-0.424 0.789,-0.569 1.215,-0.326 l 0.681,0.394 -4.347,-3.344 c -0.371,-0.284 -0.458,-0.809 -0.197,-1.198 0.259,-0.388 0.775,-0.51 1.183,-0.276 l 8.974,5.182 -10.581,-8.139 c -0.251,-0.191 -0.358,-0.49 -0.333,-0.783 l -11.373,-6.568 c -0.424,-0.245 -0.572,-0.788 -0.326,-1.214 0.246,-0.424 0.79,-0.569 1.215,-0.325 l 2.461,1.422 -6.301,-5.091 c -0.36,-0.291 -0.436,-0.812 -0.175,-1.195 0.262,-0.38 0.776,-0.497 1.177,-0.266 l 11.7,6.754 -13.167,-8.469 c -0.406,-0.261 -0.528,-0.798 -0.276,-1.21 0.25,-0.41 0.787,-0.547 1.2,-0.306 l 20.271,11.702 -5.921,-3.905 c 0.33,0.147 0.654,0.268 0.97,0.372 0.395,0.129 0.767,0.223 1.116,0.287 5.231,0.957 5.266,-5.01 2.66,-7.282 -2.26,-1.969 -5.022,-2.426 -6.867,-1.898 l -23.012,-14.686 c -0.406,-0.259 -0.532,-0.797 -0.282,-1.209 0.251,-0.415 0.787,-0.551 1.205,-0.31 l 11.353,6.558 c 0.662,0.731 1.433,1.332 2.235,1.728 0.161,0.08 0.322,0.165 0.486,0.226 0.089,0.034 0.17,0.055 0.256,0.084 0.379,0.129 0.736,0.228 1.07,0.297 l 8.291,4.786 -7.38,-4.671 c 0.293,0.01 0.557,-0.014 0.803,-0.057 0.507,-0.09 0.92,-0.284 1.243,-0.56 0.266,-0.228 0.476,-0.506 0.631,-0.824 l 3.254,1.878 -3.192,-2.01 c 0.305,-0.713 0.36,-1.577 0.247,-2.429 -0.02,-0.157 -0.036,-0.316 -0.068,-0.471 l 12.684,7.323 -12.964,-8.308 c -0.141,-0.369 -0.311,-0.712 -0.505,-1.007 -0.145,-0.217 -0.377,-0.472 -0.673,-0.742 -0.537,-0.492 -1.289,-1.035 -2.122,-1.506 -1.177,-0.666 -2.517,-1.187 -3.655,-1.201 l -9.172,-5.875 c -0.405,-0.262 -0.529,-0.798 -0.279,-1.21 0.252,-0.414 0.788,-0.549 1.203,-0.307 l 7.362,4.248 -8.603,-5.281 c -0.415,-0.254 -0.546,-0.794 -0.298,-1.212 0.247,-0.417 0.786,-0.554 1.207,-0.314 l 28.176,16.267 -32.79,-20.749 c -0.408,-0.258 -0.534,-0.795 -0.283,-1.211 0.248,-0.413 0.785,-0.548 1.202,-0.308 l 19.071,11.008 -20.228,-12.471 c -0.412,-0.257 -0.545,-0.797 -0.294,-1.213 0.249,-0.416 0.784,-0.555 1.206,-0.315 l 6.791,3.92 -7.215,-4.386 c -0.414,-0.254 -0.55,-0.795 -0.301,-1.213 0.248,-0.419 0.786,-0.56 1.207,-0.319 l 7.868,4.542 c 0.039,0.792 0.238,1.607 0.543,2.379 0.566,1.434 1.51,2.713 2.583,3.371 0.494,0.303 1.014,0.476 1.534,0.471 0.52,-0.004 1.038,-0.185 1.531,-0.587 0.526,-0.432 0.908,-0.889 1.225,-1.35 l 18.642,10.762 -18.229,-11.463 c 0.252,-0.537 0.379,-1.08 0.417,-1.617 0.024,-0.336 0.021,-0.67 -0.03,-0.998 l 1.97,1.139 -1.991,-1.22 c 0,0 0,-10e-4 0,-10e-4 -0.27,-1.544 -1.281,-2.945 -2.493,-3.856 -0.887,-0.669 -1.883,-1.079 -2.778,-1.074 -0.488,0.002 -0.947,0.125 -1.34,0.393 -0.1,0.069 -0.175,0.15 -0.257,0.229 -0.021,0.019 -0.043,0.038 -0.065,0.057 l -7.252,-4.444 c -0.416,-0.254 -0.547,-0.792 -0.298,-1.213 0.247,-0.414 0.785,-0.555 1.209,-0.314 l 22.036,12.724 -20.772,-12.807 c -0.414,-0.254 -0.545,-0.795 -0.297,-1.213 0.25,-0.416 0.785,-0.554 1.207,-0.314 l 20.103,11.607 -18.419,-11.337 c -0.412,-0.256 -0.544,-0.797 -0.296,-1.213 0.249,-0.416 0.785,-0.557 1.208,-0.315 l 25.592,14.776 -24.924,-15.481 c -0.41,-0.256 -0.543,-0.797 -0.292,-1.211 0.248,-0.417 0.786,-0.555 1.205,-0.314 l 10.773,6.219 -10.661,-6.508 c -0.413,-0.254 -0.548,-0.794 -0.3,-1.211 0.247,-0.419 0.788,-0.561 1.209,-0.317 l 6.874,3.967 -6.823,-4.15 c -0.416,-0.252 -0.548,-0.793 -0.302,-1.213 0.248,-0.418 0.787,-0.559 1.209,-0.316 l 27.443,15.845 -26.466,-16.478 c -0.412,-0.256 -0.542,-0.795 -0.292,-1.213 0.249,-0.414 0.786,-0.555 1.205,-0.311 l 35.487,20.488 -33.93,-21.47 c -0.409,-0.258 -0.534,-0.797 -0.284,-1.211 0.25,-0.414 0.785,-0.549 1.205,-0.309 l 30.489,17.602 -16.764,-10.506 -12.227,-7.66 v -0.002 l -0.006,-0.004 c -0.413,-0.258 -0.54,-0.799 -0.29,-1.212 0.249,-0.414 0.786,-0.554 1.207,-0.312 l 25.495,14.721 -23.914,-14.877 c -0.411,-0.256 -0.543,-0.794 -0.292,-1.209 0.248,-0.416 0.786,-0.554 1.205,-0.313 l 12.39,7.151 -11.335,-6.943 c -0.416,-0.254 -0.55,-0.795 -0.301,-1.211 0.247,-0.416 0.788,-0.559 1.207,-0.318 l 25.101,14.494 10.226,5.902 -33.036,-21.037 c -0.408,-0.26 -0.532,-0.795 -0.281,-1.211 0.248,-0.412 0.783,-0.547 1.202,-0.309 l 0.067,0.037 c 0,0.002 0,0.002 0.001,0.002 l 19.164,11.065 8.579,4.955 -25.941,-16.278 c -0.413,-0.257 -0.54,-0.795 -0.289,-1.211 0.248,-0.415 0.785,-0.551 1.204,-0.31 l 10.326,5.961 19.771,11.413 -27.725,-17.515 c -0.409,-0.256 -0.535,-0.794 -0.285,-1.209 0.251,-0.415 0.787,-0.548 1.204,-0.31 l 25.87,14.937 -23.78,-14.929 c -0.41,-0.256 -0.539,-0.794 -0.288,-1.21 0.249,-0.413 0.785,-0.552 1.203,-0.311 l 0.22,0.128 h 0.004 l 29.686,17.139 -27.471,-17.442 c -0.407,-0.258 -0.532,-0.797 -0.283,-1.21 0.252,-0.412 0.787,-0.55 1.204,-0.307 l 29.088,16.791 -26.438,-16.801 c -0.407,-0.26 -0.535,-0.797 -0.285,-1.211 0.253,-0.414 0.786,-0.55 1.205,-0.309 l 15.051,8.69 6.82,3.937 -19.676,-12.337 c -0.41,-0.257 -0.541,-0.795 -0.29,-1.209 0.251,-0.416 0.785,-0.553 1.207,-0.314 l 0.662,0.384 15.277,8.822 -14.101,-8.768 c -0.412,-0.259 -0.543,-0.796 -0.293,-1.212 0.249,-0.416 0.786,-0.555 1.207,-0.313 l 11.902,6.869 1.941,1.121 -12.112,-7.515 c -0.41,-0.254 -0.544,-0.795 -0.293,-1.211 0.248,-0.414 0.786,-0.553 1.206,-0.314 l 0.629,0.365 19.508,11.261 -17.857,-11.213 c -0.408,-0.257 -0.538,-0.794 -0.288,-1.208 0.249,-0.416 0.783,-0.554 1.205,-0.313 l 0.743,0.43 h 0.004 l 23.362,13.49 z m 36.999,-89.615 c 0.245,-0.424 0.788,-0.564 1.21,-0.322 l 0.474,0.275 28.859,16.66 10.373,5.989 c -0.324,0.66 -0.635,1.328 -0.931,2.007 l -39.671,-23.394 c -0.421,-0.252 -0.561,-0.791 -0.314,-1.215 m -28.031,-100.07 c -0.237,0.424 -0.401,0.873 -0.529,1.331 -0.052,0.183 -0.115,0.363 -0.149,0.551 l -6.864,-4.189 c -0.416,-0.25 -0.551,-0.791 -0.302,-1.211 0.248,-0.418 0.786,-0.557 1.208,-0.314 l 6.637,3.832 z m 0.726,-1.051 -6.27,-3.848 c -0.412,-0.256 -0.547,-0.795 -0.297,-1.213 0.25,-0.416 0.787,-0.554 1.207,-0.314 l 6.852,3.955 c -0.557,0.404 -1.057,0.887 -1.492,1.42 m 2.816,-2.182 -6.669,-4.105 c -0.414,-0.258 -0.545,-0.795 -0.296,-1.213 0.249,-0.42 0.787,-0.555 1.207,-0.315 l 8.68,5.01 c -0.962,-0.058 -1.969,0.18 -2.922,0.623 m -4.295,6.24 c 0.016,0.364 0.084,0.731 0.182,1.098 0.158,0.593 0.417,1.187 0.831,1.771 l -8.823,-5.327 c -0.417,-0.25 -0.554,-0.792 -0.305,-1.211 0.249,-0.422 0.787,-0.561 1.21,-0.319 z m 28.357,93.401 c 0.248,-0.422 0.79,-0.565 1.213,-0.32 l 0.215,0.121 20.396,11.777 20.913,12.073 -10e-4,10e-4 c -0.375,0.655 -0.736,1.321 -1.081,1.996 l -41.338,-24.435 c -0.422,-0.248 -0.561,-0.793 -0.317,-1.213 m 1.798,6.48 0.562,0.328 h 0.004 l 37.864,21.86 c -0.165,0.39 -0.315,0.789 -0.471,1.184 -0.121,0.305 -0.249,0.604 -0.364,0.912 l -38.491,-22.748 c -0.423,-0.249 -0.562,-0.792 -0.316,-1.215 0.246,-0.42 0.788,-0.561 1.212,-0.321 m -0.772,35.6 c 0.248,-0.418 0.788,-0.563 1.212,-0.316 l 2.174,1.256 c 0.003,0.001 0.007,0.001 0.008,0.004 l 33.6,19.4 c 0.004,0.009 0.007,0.023 0.009,0.033 0.343,1.246 0.74,2.464 1.172,3.662 L 256.46,281.799 c -0.417,-0.253 -0.553,-0.794 -0.307,-1.214 m -10.211,-67.924 c 0.246,-0.42 0.787,-0.56 1.211,-0.32 l 62.697,36.197 c -0.577,0.427 -1.131,0.887 -1.686,1.345 -2.501,2.061 -4.798,4.417 -6.824,7.052 l -49.29,-29.129 c -0.421,-0.248 -0.564,-0.791 -0.316,-1.211 0.246,-0.424 0.788,-0.567 1.211,-0.326 l 16.165,9.335 -18.493,-10.972 c -0.313,-0.186 -0.472,-0.537 -0.428,-0.881 0.016,-0.111 0.052,-0.227 0.115,-0.332 0.247,-0.42 0.788,-0.563 1.212,-0.318 l 19.369,11.181 -21.737,-12.9 c -0.419,-0.25 -0.558,-0.791 -0.313,-1.213 0.247,-0.422 0.79,-0.565 1.212,-0.32 l 47.692,27.537 -50.286,-30.069 c -0.418,-0.25 -0.557,-0.791 -0.311,-1.213 0.248,-0.419 0.79,-0.562 1.212,-0.318 l 36.609,21.137 -38.709,-23.051 c -0.419,-0.248 -0.56,-0.791 -0.312,-1.211 m 7.714,19.494 c -0.421,-0.248 -0.563,-0.791 -0.317,-1.213 0.246,-0.423 0.789,-0.57 1.212,-0.324 l 0.013,0.01 22.991,13.271 23.415,13.52 v 0 h -0.001 c -0.465,0.621 -0.914,1.252 -1.352,1.9 0,10e-4 -0.001,0.002 -0.001,0.003 0,0 0,0 -10e-4,10e-4 -0.417,0.623 -0.82,1.254 -1.211,1.899 l -43.733,-25.951 c -0.421,-0.25 -0.562,-0.793 -0.313,-1.213 0.247,-0.424 0.791,-0.565 1.21,-0.321 l 0.162,0.096 h 0.005 l 32.965,19.033 -34.978,-20.672 z m 135.737,129.688 c -0.115,-0.014 -0.225,-0.049 -0.332,-0.112 L 338.93,332.788 v -0.002 c 1.339,-0.25 2.656,-0.576 3.949,-0.971 0.007,0 0.014,-0.003 0.021,-0.003 l 47.064,28.389 c 0.418,0.251 0.555,0.792 0.307,1.212 -0.186,0.315 -0.536,0.475 -0.878,0.43 M 256.037,260.144 c -0.421,-0.248 -0.562,-0.791 -0.316,-1.213 0.245,-0.422 0.788,-0.565 1.212,-0.323 l 35.066,20.246 c -0.085,0.535 -0.153,1.076 -0.222,1.617 -0.029,0.229 -0.069,0.456 -0.095,0.686 v 0.001 z M 163.36,387.16 c -0.41,-0.26 -0.538,-0.799 -0.287,-1.213 0.248,-0.414 0.785,-0.552 1.204,-0.31 l 8.853,5.112 c -0.517,0.351 -0.884,0.966 -1.027,1.911 v 10e-4 z m -1.419,1.302 c 0.25,-0.412 0.785,-0.549 1.205,-0.309 l 8.902,5.141 c -0.003,0.253 0.018,0.508 0.056,0.764 0.003,0.016 10e-4,0.031 0.004,0.047 0.004,0.025 0.013,0.049 0.017,0.074 0.125,0.721 0.408,1.445 0.8,2.133 0.038,0.067 0.069,0.138 0.11,0.205 l -10.81,-6.844 c -0.408,-0.258 -0.537,-0.797 -0.284,-1.211 M 292.175,277.779 256.098,256.366 c -0.42,-0.25 -0.559,-0.793 -0.313,-1.213 0.247,-0.422 0.788,-0.562 1.212,-0.322 l 35.671,20.594 c -0.118,0.505 -0.216,1.016 -0.319,1.526 -0.056,0.278 -0.122,0.549 -0.174,0.828 m -36.182,-4.104 c -0.423,-0.248 -0.565,-0.791 -0.318,-1.213 0.249,-0.424 0.789,-0.566 1.214,-0.322 l 1.914,1.105 32.749,18.908 c 0.068,0.72 0.151,1.436 0.248,2.146 0.23,1.682 0.55,3.33 0.935,4.947 0.102,0.431 0.201,0.862 0.314,1.287 l -36.843,-22.1 c -0.419,-0.25 -0.557,-0.793 -0.31,-1.211 0.25,-0.422 0.789,-0.565 1.213,-0.321 l 14.767,8.528 14.849,8.572 -30.7,-18.049 c -0.421,-0.246 -0.564,-0.789 -0.318,-1.213 0.247,-0.424 0.792,-0.566 1.212,-0.322 l 2.097,1.209 h 0.002 l 17.956,10.37 -20.973,-12.317 z m -0.141,-24.959 c 0.244,-0.426 0.788,-0.569 1.211,-0.324 l 37.241,21.502 c -0.243,0.669 -0.468,1.349 -0.683,2.035 l -37.454,-22.002 c -0.421,-0.246 -0.563,-0.789 -0.315,-1.211 m 0.289,3.625 c -0.422,-0.25 -0.563,-0.791 -0.316,-1.213 0.25,-0.422 0.788,-0.563 1.213,-0.318 l 0.892,0.513 h 0.002 l 35.689,20.606 c -0.234,0.758 -0.452,1.527 -0.652,2.3 z m -0.164,10.638 c -0.419,-0.248 -0.562,-0.789 -0.314,-1.21 0.246,-0.424 0.786,-0.567 1.211,-0.321 l 1.417,0.817 h 10e-4 l 33.348,19.254 c -0.09,0.82 -0.161,1.648 -0.21,2.482 z m 0.75,22.346 c -0.418,-0.252 -0.552,-0.792 -0.304,-1.211 0.247,-0.419 0.788,-0.56 1.21,-0.316 l 36.852,21.275 c 0.539,1.458 1.143,2.877 1.808,4.252 z m -6.492,-157.303 -6.319,-3.837 c -0.415,-0.254 -0.55,-0.793 -0.302,-1.213 0.247,-0.416 0.786,-0.557 1.209,-0.317 l 7.193,4.153 c -0.732,0.361 -1.325,0.771 -1.781,1.214 m 118.341,138.173 c -0.702,-1.546 -1.47,-3.048 -2.315,-4.487 l 39.014,23.375 c 0.419,0.25 0.558,0.791 0.31,1.211 -0.246,0.422 -0.787,0.564 -1.21,0.318 l -7.538,-4.351 -22.181,-12.805 30.146,17.87 c 0.419,0.249 0.559,0.792 0.313,1.212 -0.249,0.426 -0.788,0.568 -1.212,0.322 l -34.077,-19.673 c -0.382,-1.019 -0.805,-2.012 -1.25,-2.992 m -37.381,-50.087 c -0.054,-0.033 -0.095,-0.084 -0.138,-0.129 -0.277,0.307 -0.725,0.403 -1.091,0.188 l -19.621,-11.33 19.259,11.562 c 0.106,0.016 0.21,0.047 0.305,0.102 l 27.474,15.861 z m -37.27,-90.511 c 0.041,-0.065 0.096,-0.11 0.147,-0.157 l -3.327,-1.921 3.061,2.537 c 0,-0.157 0.03,-0.317 0.119,-0.459 m 3.53,3.488 0.591,0.338 -0.984,-0.666 z m 134.429,12.957 c -0.253,0.404 -0.78,0.533 -1.196,0.299 l -6.766,-3.907 c 0.437,-0.458 0.699,-0.967 0.703,-1.517 0.003,-0.33 -0.088,-0.676 -0.288,-1.035 -0.145,-0.256 -0.341,-0.518 -0.599,-0.785 -0.006,-0.006 -0.009,-0.012 -0.016,-0.019 -0.003,-0.004 -0.009,-0.007 -0.012,-0.011 -0.266,-0.27 -0.595,-0.546 -1.004,-0.826 -0.84,-0.572 -1.805,-1.086 -2.886,-1.426 -0.185,-0.057 -0.374,-0.11 -0.566,-0.157 -0.577,-0.138 -1.187,-0.222 -1.829,-0.231 -0.858,-0.011 -1.775,0.112 -2.755,0.42 -1.619,0.507 -2.577,1.136 -3.096,1.814 -0.335,0.436 -0.48,0.892 -0.472,1.352 0.002,0.153 0.021,0.306 0.055,0.461 l -4.877,-2.817 5.003,3.239 c 0.724,1.789 3.315,3.431 5.091,3.8 0.262,0.055 0.572,0.075 0.9,0.08 l 13.705,8.875 c 0.302,0.196 0.448,0.547 0.395,0.885 -0.018,0.11 -0.057,0.223 -0.119,0.324 -0.255,0.412 -0.783,0.547 -1.203,0.305 l -24.588,-14.195 24.611,15.748 c 0.405,0.261 0.529,0.799 0.279,1.211 -0.25,0.412 -0.781,0.547 -1.203,0.308 l -28.213,-16.287 27.938,17.963 c 0.407,0.262 0.53,0.799 0.279,1.213 -0.251,0.41 -0.785,0.545 -1.203,0.307 l -19.777,-11.424 19.683,12.328 c 0.307,0.195 0.458,0.547 0.408,0.885 -0.018,0.111 -0.056,0.224 -0.119,0.328 -0.249,0.416 -0.783,0.551 -1.206,0.31 l -22.222,-12.83 22.107,13.768 c 0.411,0.256 0.54,0.795 0.291,1.211 -0.25,0.414 -0.786,0.554 -1.206,0.312 l -27.816,-16.06 27.591,17.248 c 0.412,0.256 0.542,0.795 0.291,1.209 -0.249,0.418 -0.787,0.556 -1.206,0.312 l -11.615,-6.705 11.811,7.215 c 0.413,0.254 0.547,0.793 0.299,1.211 -0.248,0.42 -0.787,0.561 -1.208,0.318 l -28.07,-16.209 28.058,17.463 c 0.411,0.256 0.542,0.795 0.291,1.209 -0.249,0.418 -0.786,0.557 -1.205,0.313 l -13.277,-7.664 13.496,8.242 c 0.414,0.256 0.547,0.795 0.299,1.213 -0.248,0.42 -0.786,0.558 -1.208,0.316 l -22.277,-12.863 22.651,13.953 c 0.412,0.256 0.544,0.795 0.296,1.213 -0.252,0.416 -0.789,0.557 -1.208,0.314 l -33.716,-19.466 34.103,21.351 c 0.409,0.256 0.54,0.795 0.29,1.211 -0.25,0.416 -0.786,0.549 -1.206,0.311 l -9.434,-5.448 10.096,6.141 c 0.418,0.254 0.551,0.793 0.303,1.213 -0.246,0.42 -0.784,0.56 -1.208,0.316 l -35.092,-20.261 35.673,22.371 c 0.41,0.254 0.54,0.793 0.29,1.209 -0.249,0.416 -0.786,0.548 -1.205,0.31 l -25.415,-14.672 26,16.059 c 0.412,0.256 0.544,0.797 0.296,1.213 -0.252,0.416 -0.788,0.558 -1.208,0.314 l -19.559,-11.293 20.118,12.35 c 0.415,0.252 0.546,0.793 0.298,1.211 -0.25,0.418 -0.786,0.558 -1.207,0.312 l -15.312,-8.838 15.803,9.663 c 0.414,0.253 0.548,0.792 0.3,1.214 -0.248,0.42 -0.786,0.559 -1.208,0.315 l -28.659,-16.547 28.909,17.975 c 0.412,0.257 0.543,0.794 0.293,1.21 -0.252,0.418 -0.786,0.559 -1.206,0.315 l -31.799,-18.359 31.89,19.959 c 0.409,0.255 0.539,0.794 0.289,1.21 -0.25,0.416 -0.784,0.551 -1.207,0.311 l -16.006,-9.24 16.182,9.922 c 0.414,0.257 0.547,0.795 0.298,1.215 -0.25,0.416 -0.786,0.556 -1.208,0.314 l -20.077,-11.594 20.196,12.453 c 0.413,0.256 0.546,0.795 0.297,1.213 -0.251,0.42 -0.789,0.559 -1.208,0.315 l -17.5,-10.104 17.561,10.803 c 0.412,0.254 0.545,0.795 0.294,1.211 -0.249,0.42 -0.786,0.558 -1.206,0.314 l -23.955,-13.83 23.777,14.768 c 0.412,0.258 0.543,0.797 0.293,1.211 -0.252,0.418 -0.786,0.556 -1.206,0.314 l -25.911,-14.959 25.679,16.022 c 0.412,0.256 0.541,0.797 0.291,1.211 -0.249,0.416 -0.786,0.554 -1.206,0.312 l -6.3,-3.637 6.409,3.911 c 0.415,0.252 0.549,0.793 0.299,1.21 -0.246,0.42 -0.784,0.559 -1.207,0.319 l -12.637,-7.299 2.316,1.424 10.341,6.348 c 0.104,0.064 0.189,0.146 0.256,0.242 0.202,0.277 0.231,0.66 0.042,0.974 -0.249,0.416 -0.786,0.555 -1.206,0.313 l -31.989,-18.467 31.542,20.016 c 0.001,0 0.001,0.002 0.004,0.004 h 0.001 c 0.409,0.257 0.534,0.798 0.285,1.209 -0.251,0.414 -0.781,0.55 -1.205,0.308 l -4.77,-2.752 4.895,2.988 c 0.417,0.254 0.551,0.793 0.302,1.211 -0.248,0.422 -0.789,0.559 -1.207,0.317 l -4.469,-2.578 -7.723,-4.461 12.214,7.517 c 0.415,0.252 0.546,0.791 0.298,1.209 -0.252,0.42 -0.787,0.559 -1.207,0.315 l -0.013,-0.008 -13.068,-7.543 13.198,8.131 c 0.413,0.258 0.545,0.797 0.298,1.213 -0.252,0.416 -0.786,0.556 -1.209,0.314 l -0.024,-0.014 -7.373,-4.257 -16.368,-9.45 23.807,14.911 c 0.41,0.257 0.539,0.795 0.29,1.211 -0.25,0.416 -0.786,0.55 -1.207,0.312 l -0.038,-0.023 h -10e-4 l -26.933,-15.549 26.942,16.992 c 0.409,0.258 0.537,0.797 0.286,1.213 -0.249,0.412 -0.785,0.549 -1.204,0.308 l -0.058,-0.031 -4.11,-2.375 -7.111,-4.105 11.613,7.148 c 0.416,0.252 0.546,0.793 0.298,1.211 -0.252,0.42 -0.787,0.559 -1.207,0.315 l -0.092,-0.053 -26.421,-15.254 26.833,16.922 c 0.411,0.258 0.538,0.797 0.287,1.211 -0.249,0.414 -0.781,0.551 -1.204,0.31 l -3.075,-1.775 -2.373,-1.371 5.968,3.65 c 0.416,0.256 0.549,0.795 0.301,1.213 -0.251,0.42 -0.788,0.557 -1.208,0.315 l -27.887,-16.1 28.481,17.996 c 0.407,0.258 0.534,0.795 0.284,1.209 -0.249,0.414 -0.781,0.551 -1.205,0.311 l -20.605,-11.897 21.347,13.285 c 0.41,0.258 0.542,0.797 0.291,1.213 -0.249,0.414 -0.786,0.557 -1.206,0.315 l -14.306,-8.26 15.24,9.392 c 0.414,0.254 0.545,0.797 0.297,1.213 -0.252,0.418 -0.788,0.557 -1.208,0.315 l -30.013,-17.328 31.113,19.668 c 0.407,0.259 0.534,0.796 0.284,1.211 -0.249,0.416 -0.782,0.55 -1.203,0.31 l -5.245,-3.027 -21.029,-12.141 27.552,17.238 c 0.41,0.258 0.54,0.795 0.29,1.211 -0.25,0.418 -0.785,0.555 -1.206,0.313 l -0.732,-0.422 h -0.002 l -15.305,-8.84 -9.595,-5.537 26.929,16.789 c 0.411,0.258 0.54,0.797 0.291,1.211 -0.252,0.418 -0.785,0.557 -1.206,0.314 l -28.804,-16.632 30.131,18.841 c 0.413,0.258 0.542,0.795 0.292,1.213 -0.25,0.416 -0.784,0.551 -1.207,0.311 l -25.363,-14.645 26.562,16.469 c 0.411,0.256 0.543,0.795 0.293,1.213 -0.252,0.418 -0.785,0.557 -1.206,0.312 l -44.75,-25.837 45.822,27.076 c 0.42,0.25 0.562,0.793 0.316,1.215 -0.249,0.421 -0.788,0.564 -1.212,0.32 l -1.099,-0.637 h -0.002 l -40.186,-23.199 42.302,25.039 c 0.421,0.248 0.562,0.791 0.314,1.213 -0.245,0.422 -0.787,0.566 -1.21,0.322 l -1.119,-0.646 c -10e-4,-0.002 -10e-4,0 -0.002,-0.002 l -48.762,-28.153 50.73,30.092 c 0.419,0.25 0.561,0.791 0.314,1.215 -0.248,0.422 -0.79,0.563 -1.212,0.32 l -1.103,-0.638 h -0.003 l -79.301,-45.785 81.243,48.648 c 0.418,0.25 0.556,0.793 0.308,1.213 -0.246,0.422 -0.786,0.562 -1.209,0.318 l -36.719,-21.199 -15.962,-9.215 53.287,31.684 c 0.419,0.25 0.557,0.791 0.311,1.213 -0.25,0.423 -0.789,0.564 -1.211,0.322 l -43.895,-25.346 -9.057,-5.228 53.532,31.857 c 0.42,0.25 0.558,0.793 0.312,1.213 -0.252,0.424 -0.79,0.566 -1.211,0.32 l -44.392,-25.629 c -5.924,-6.67 -13.652,-11.291 -22.281,-12.863 l -2.632,-1.523 2.491,1.494 c -2.089,-0.373 -4.231,-0.57 -6.414,-0.57 -3.058,0 -6.037,0.38 -8.903,1.103 -4.776,1.203 -9.238,3.353 -13.225,6.262 -10e-4,0.002 -0.002,0.004 -0.006,0.006 l -65.312,-39.407 c -0.104,-0.064 -0.191,-0.144 -0.26,-0.236 -0.134,-0.187 -0.193,-0.418 -0.164,-0.645 0.017,-0.113 0.056,-0.228 0.116,-0.332 0.185,-0.314 0.538,-0.472 0.878,-0.429 0.114,0.013 0.228,0.051 0.331,0.113 l 47.136,27.211 -48.919,-29.176 c -0.314,-0.187 -0.47,-0.539 -0.426,-0.881 0.016,-0.115 0.055,-0.224 0.116,-0.332 0.245,-0.422 0.787,-0.56 1.21,-0.32 l 43.101,24.885 -44.669,-26.6 c -0.419,-0.248 -0.559,-0.791 -0.31,-1.211 0.243,-0.422 0.787,-0.562 1.208,-0.322 l 28.808,16.635 -30.231,-17.938 c -0.422,-0.252 -0.562,-0.793 -0.315,-1.213 0.248,-0.423 0.789,-0.566 1.212,-0.32 l 68.202,39.375 -69.81,-41.889 c -0.418,-0.252 -0.557,-0.795 -0.31,-1.213 0.249,-0.419 0.79,-0.566 1.21,-0.32 l 28.473,16.44 -29.935,-17.75 c -0.42,-0.25 -0.561,-0.791 -0.315,-1.215 0.25,-0.42 0.789,-0.565 1.213,-0.319 l 67.259,38.83 -69.18,-41.453 c -0.315,-0.189 -0.472,-0.541 -0.428,-0.881 0.017,-0.115 0.057,-0.228 0.117,-0.333 0.247,-0.42 0.79,-0.565 1.21,-0.317 l 66.811,38.572 -69.353,-41.525 c -0.419,-0.252 -0.557,-0.793 -0.309,-1.211 0.25,-0.422 0.788,-0.562 1.211,-0.322 L 289.61,211.2 236.437,179.548 c -0.421,-0.25 -0.56,-0.791 -0.312,-1.211 0.247,-0.42 0.786,-0.566 1.212,-0.32 l 49.128,28.363 -52.972,-31.504 c -0.421,-0.248 -0.559,-0.791 -0.313,-1.211 0.245,-0.424 0.788,-0.562 1.211,-0.32 l 75.437,43.554 -80.752,-48.367 c -0.42,-0.252 -0.556,-0.793 -0.312,-1.215 0.249,-0.42 0.792,-0.56 1.213,-0.318 l 46.177,26.662 -50.371,-29.887 c -0.422,-0.25 -0.563,-0.789 -0.315,-1.212 0.249,-0.422 0.787,-0.563 1.212,-0.321 l 38.397,22.168 -42.01,-24.871 c -0.314,-0.185 -0.473,-0.535 -0.428,-0.879 0.016,-0.113 0.051,-0.228 0.116,-0.332 0.243,-0.422 0.785,-0.566 1.21,-0.322 l 30.148,17.406 -33.189,-19.613 c -0.104,-0.061 -0.192,-0.143 -0.261,-0.236 -0.137,-0.184 -0.199,-0.416 -0.167,-0.645 0.014,-0.113 0.051,-0.227 0.114,-0.332 0.062,-0.106 0.142,-0.193 0.233,-0.264 0.277,-0.205 0.659,-0.242 0.977,-0.058 l 21.155,12.215 -23.369,-14.028 c -0.418,-0.25 -0.556,-0.791 -0.31,-1.213 0.249,-0.42 0.792,-0.562 1.211,-0.318 l 39.81,22.984 -41.708,-25.31 c -0.418,-0.252 -0.553,-0.791 -0.304,-1.213 0.247,-0.416 0.788,-0.557 1.208,-0.315 l 40.377,23.313 -41.606,-25.285 c -0.416,-0.252 -0.553,-0.791 -0.305,-1.211 0.25,-0.418 0.788,-0.557 1.211,-0.317 l 29.484,17.024 -19.561,-11.811 c 0.02,0.003 0.044,0.001 0.065,0.004 0.848,0.116 1.938,-0.081 3.071,-0.513 l 30.339,17.513 -29.392,-17.929 c 0.353,-0.173 0.701,-0.366 1.041,-0.575 0.109,-0.066 0.209,-0.144 0.315,-0.215 0.243,-0.16 0.489,-0.318 0.718,-0.498 l 33.219,19.18 -32.4,-19.888 c 0.569,-0.545 1.043,-1.145 1.371,-1.772 0,-0.001 0,-0.001 0,-0.001 l 0.001,-0.001 33.374,19.27 -32.986,-20.313 c 0.192,-0.809 0.139,-1.637 -0.307,-2.457 -0.054,-0.1 -0.116,-0.185 -0.18,-0.267 -0.056,-0.073 -0.113,-0.144 -0.168,-0.221 l 24.563,14.179 -34.736,-21.201 c -0.414,-0.256 -0.551,-0.795 -0.3,-1.213 0.247,-0.416 0.783,-0.558 1.208,-0.316 l 46.952,27.107 -43.197,-26.757 c -0.412,-0.256 -0.546,-0.795 -0.295,-1.211 0.249,-0.416 0.783,-0.555 1.207,-0.313 l 9.992,5.768 -7.038,-4.241 c -0.418,-0.251 -0.554,-0.791 -0.305,-1.214 0.249,-0.42 0.787,-0.559 1.21,-0.317 l 30.968,17.881 -29.777,-18.283 c -0.412,-0.256 -0.546,-0.795 -0.299,-1.213 0.251,-0.416 0.789,-0.557 1.209,-0.314 l 36.426,21.029 -35.332,-21.901 c -0.413,-0.253 -0.544,-0.793 -0.295,-1.211 0.249,-0.416 0.786,-0.554 1.208,-0.312 l 8.355,4.822 c 0,0.873 0.328,1.702 0.892,2.357 0.188,0.217 0.402,0.416 0.638,0.591 0.798,0.584 2.264,0.562 3.877,0.175 l 20.817,12.018 -19.829,-12.295 v 0 c 0.708,-0.226 1.415,-0.521 2.099,-0.85 0.512,-0.247 1.013,-0.508 1.476,-0.797 0.36,-0.223 0.7,-0.459 1.013,-0.701 l 17.233,9.95 -16.696,-10.385 c 0.341,-0.308 0.629,-0.623 0.853,-0.941 0.111,-0.158 0.207,-0.316 0.285,-0.475 0.078,-0.158 0.139,-0.316 0.18,-0.473 l 22.81,13.17 -22.995,-14.502 -0.001,-0.002 v -0.002 c -0.089,-0.138 -0.197,-0.242 -0.296,-0.365 -0.734,-0.919 -1.71,-1.441 -2.873,-1.631 l -6.879,-4.34 c -0.409,-0.258 -0.537,-0.797 -0.286,-1.211 0.248,-0.414 0.784,-0.551 1.205,-0.31 l 29.287,16.908 -24.765,-15.535 c -0.41,-0.26 -0.538,-0.797 -0.289,-1.211 0.249,-0.416 0.785,-0.555 1.205,-0.315 l 35.655,20.586 -27.763,-18.021 c -0.406,-0.264 -0.527,-0.801 -0.277,-1.211 0.253,-0.408 0.783,-0.543 1.203,-0.307 l 9.651,5.573 c -0.076,0.299 -0.074,0.649 -0.029,1.038 0.014,0.129 0.015,0.246 0.044,0.389 0.24,1.176 1.967,2.079 4.083,2.564 1.109,0.253 2.323,0.392 3.49,0.391 l 3.44,1.985 -3.116,-1.989 c 0.027,-0.001 0.053,-0.004 0.081,-0.004 1.034,-0.032 2.01,-0.177 2.82,-0.454 0.317,-0.106 0.613,-0.229 0.871,-0.378 l 1.152,0.667 -1.093,-0.706 c 0.798,-0.477 1.272,-1.161 1.214,-2.082 -0.024,-0.374 -0.141,-0.79 -0.355,-1.244 -0.312,-0.665 -0.837,-1.416 -1.629,-2.263 -0.933,-1.001 -2.34,-1.563 -3.863,-1.627 -0.508,-0.022 -1.029,0.012 -1.55,0.103 l -6.73,-4.34 c -0.406,-0.259 -0.529,-0.799 -0.279,-1.209 0.253,-0.412 0.789,-0.549 1.205,-0.304 l 12.555,7.248 -7.12,-5.909 c -0.355,-0.294 -0.427,-0.81 -0.162,-1.191 0.171,-0.246 0.447,-0.381 0.731,-0.381 0.15,0 0.302,0.037 0.443,0.119 l 15.064,8.698 c 0.427,0.246 0.572,0.787 0.326,1.213 -0.042,0.076 -0.104,0.128 -0.164,0.185 l 7.657,4.42 c -0.998,-0.236 -2.027,-0.2 -2.982,0.08 -0.767,0.224 -1.488,0.602 -2.098,1.147 -0.089,0.079 -0.179,0.155 -0.269,0.233 -0.041,0.035 -0.078,0.076 -0.118,0.113 -0.071,0.069 -0.144,0.134 -0.208,0.212 -2.409,2.955 4.756,5.252 8.205,4.348 l 11.192,7.213 c 0.403,0.263 0.527,0.799 0.275,1.211 -0.249,0.41 -0.784,0.546 -1.202,0.308 l -15.101,-8.72 17.446,11.248 c 0.405,0.263 0.528,0.798 0.278,1.21 -0.252,0.413 -0.787,0.545 -1.204,0.307 l -16.605,-9.588 18.874,12.049 c 0.407,0.26 0.531,0.799 0.281,1.211 -0.251,0.412 -0.783,0.551 -1.203,0.309 l -25.708,-14.842 27.762,18.021 c 0.403,0.262 0.524,0.797 0.272,1.209 -0.253,0.412 -0.787,0.549 -1.199,0.305 l -23.248,-13.422 24.772,15.543 c 0.409,0.258 0.539,0.797 0.289,1.213 -0.251,0.414 -0.786,0.553 -1.206,0.31 l -31.82,-18.371 33.035,20.834 c 0.41,0.26 0.538,0.799 0.286,1.211 -0.251,0.416 -0.788,0.555 -1.204,0.311 l -29.063,-16.779 30.123,18.734 c 0.409,0.256 0.543,0.795 0.292,1.209 -0.248,0.418 -0.786,0.557 -1.207,0.314 l -9.991,-5.767 10.906,6.623 c 0.415,0.252 0.552,0.793 0.304,1.211 -0.252,0.418 -0.787,0.56 -1.21,0.318 l -32.2,-18.592 33.133,20.543 c 0.411,0.258 0.542,0.795 0.294,1.213 -0.25,0.416 -0.791,0.557 -1.207,0.313 l -34.351,-19.834 35.339,21.906 c 0.412,0.256 0.542,0.795 0.294,1.211 -0.252,0.418 -0.79,0.559 -1.207,0.312 l -28.802,-16.628 29.779,18.285 c 0.412,0.254 0.546,0.795 0.299,1.211 -0.252,0.421 -0.791,0.56 -1.208,0.316 l -6.053,-3.494 7.045,4.246 c 0.414,0.25 0.552,0.791 0.305,1.211 -0.249,0.422 -0.788,0.562 -1.21,0.318 l -42.062,-24.285 43.191,26.754 c 0.412,0.256 0.541,0.795 0.295,1.213 -0.253,0.416 -0.792,0.555 -1.209,0.31 l -33.658,-19.431 34.743,21.207 c 0.416,0.256 0.548,0.795 0.3,1.213 -0.248,0.418 -0.787,0.558 -1.207,0.316 l -45.097,-26.037 46.441,28.598 c 0.414,0.256 0.547,0.793 0.297,1.211 -0.249,0.42 -0.787,0.56 -1.205,0.314 l -45.163,-26.074 46.507,28.549 c 0.414,0.256 0.546,0.795 0.298,1.215 -0.251,0.416 -0.789,0.556 -1.207,0.314 l -40.948,-23.643 42.6,25.987 c 0.417,0.252 0.55,0.791 0.301,1.213 -0.247,0.42 -0.786,0.558 -1.206,0.314 l -28.165,-16.26 29.727,17.95 c 0.416,0.253 0.554,0.794 0.305,1.214 -0.248,0.416 -0.788,0.561 -1.21,0.317 l -39.152,-22.606 41.599,25.278 c 0.417,0.252 0.551,0.795 0.305,1.213 -0.249,0.419 -0.793,0.558 -1.211,0.316 l -38.474,-22.213 41.705,25.307 c 0.061,0.037 0.099,0.088 0.146,0.133 0.275,-0.303 0.722,-0.399 1.092,-0.186 l 30.243,17.459 -29.727,-18.607 c -0.412,-0.256 -0.541,-0.795 -0.292,-1.209 0.248,-0.418 0.786,-0.555 1.205,-0.313 l 26.831,15.49 -26.596,-16.597 c -0.411,-0.256 -0.542,-0.795 -0.292,-1.213 0.25,-0.414 0.786,-0.553 1.207,-0.311 l 27.377,15.807 -27.264,-17.074 c -0.168,-0.106 -0.277,-0.266 -0.345,-0.442 -0.092,-0.246 -0.089,-0.527 0.056,-0.769 0.188,-0.313 0.537,-0.469 0.875,-0.424 0.114,0.014 0.226,0.053 0.331,0.111 l 31.016,17.906 -29.061,-18.384 -1.788,-1.133 c -0.115,-0.07 -0.203,-0.164 -0.271,-0.272 -0.176,-0.277 -0.198,-0.64 -0.016,-0.939 0.248,-0.412 0.784,-0.549 1.202,-0.311 l 14.927,8.619 -15.156,-9.347 c -0.307,-0.19 -0.461,-0.541 -0.412,-0.881 0.018,-0.113 0.056,-0.227 0.117,-0.33 0.249,-0.418 0.788,-0.555 1.207,-0.315 l 21.091,12.178 -21.229,-13.219 c -0.412,-0.255 -0.544,-0.794 -0.292,-1.212 0.248,-0.415 0.785,-0.553 1.207,-0.311 l 28.386,16.389 -28.379,-17.938 c -0.306,-0.195 -0.453,-0.547 -0.404,-0.885 0.018,-0.113 0.055,-0.224 0.117,-0.328 0.25,-0.414 0.788,-0.549 1.205,-0.308 l 5.619,3.244 -5.947,-3.637 c -0.413,-0.254 -0.546,-0.795 -0.296,-1.213 0.246,-0.416 0.784,-0.558 1.207,-0.314 l 26.706,15.42 -26.767,-16.883 c -0.409,-0.26 -0.535,-0.797 -0.286,-1.213 0.248,-0.412 0.785,-0.551 1.205,-0.311 l 11.194,6.465 -11.618,-7.15 c -0.31,-0.192 -0.463,-0.543 -0.415,-0.883 0.016,-0.113 0.054,-0.225 0.116,-0.33 0.248,-0.416 0.786,-0.555 1.208,-0.314 l 26.679,15.402 -26.916,-16.979 c -0.41,-0.257 -0.537,-0.797 -0.286,-1.209 0.248,-0.412 0.784,-0.552 1.204,-0.31 l 23.508,13.572 -23.797,-14.906 c -0.41,-0.258 -0.539,-0.795 -0.29,-1.211 0.25,-0.414 0.788,-0.553 1.207,-0.313 l 12.798,7.391 -13.207,-8.139 c -0.415,-0.255 -0.547,-0.795 -0.298,-1.214 0.25,-0.413 0.787,-0.553 1.207,-0.313 l 11.696,6.752 -12.225,-7.52 c -0.413,-0.253 -0.545,-0.794 -0.297,-1.21 0.248,-0.415 0.788,-0.557 1.205,-0.315 l 4.276,2.469 -4.896,-2.992 c -0.416,-0.252 -0.55,-0.795 -0.302,-1.211 0.248,-0.418 0.786,-0.557 1.207,-0.317 l 31.105,17.957 -31.531,-20.006 c -0.408,-0.261 -0.535,-0.798 -0.284,-1.212 0.251,-0.413 0.785,-0.553 1.205,-0.311 l 12.099,6.986 -12.686,-7.791 c -0.417,-0.256 -0.547,-0.793 -0.299,-1.211 0.248,-0.418 0.786,-0.556 1.209,-0.314 l 5.663,3.269 -6.376,-3.89 c -0.414,-0.254 -0.548,-0.793 -0.3,-1.211 0.248,-0.418 0.788,-0.557 1.209,-0.317 l 24.943,14.399 -25.663,-16.01 c -0.412,-0.258 -0.542,-0.797 -0.291,-1.211 0.249,-0.418 0.786,-0.556 1.205,-0.314 l 23.036,13.301 -23.764,-14.76 c -0.413,-0.256 -0.543,-0.797 -0.292,-1.213 0.249,-0.412 0.784,-0.553 1.207,-0.313 l 16.732,9.661 -17.551,-10.797 c -0.416,-0.254 -0.547,-0.793 -0.298,-1.213 0.248,-0.416 0.788,-0.553 1.207,-0.315 l 19.292,11.139 -20.206,-12.461 c -0.415,-0.252 -0.547,-0.791 -0.297,-1.211 0.247,-0.418 0.787,-0.555 1.206,-0.314 l 15.281,8.822 -16.191,-9.93 c -0.415,-0.254 -0.549,-0.795 -0.3,-1.211 0.248,-0.418 0.787,-0.558 1.207,-0.316 l 30.863,17.818 -31.889,-19.959 c -0.41,-0.256 -0.539,-0.795 -0.291,-1.209 0.249,-0.416 0.786,-0.552 1.207,-0.312 l 27.865,16.088 -28.924,-17.985 c -0.41,-0.256 -0.54,-0.795 -0.29,-1.209 0.248,-0.42 0.786,-0.556 1.206,-0.314 l 14.756,8.519 -15.782,-9.65 c -0.414,-0.252 -0.548,-0.795 -0.3,-1.209 0.248,-0.422 0.784,-0.562 1.207,-0.318 l 19.134,11.047 -20.169,-12.379 c -0.414,-0.254 -0.547,-0.795 -0.299,-1.213 0.25,-0.416 0.789,-0.555 1.209,-0.315 l 25.063,14.469 -25.987,-16.051 c -0.414,-0.258 -0.544,-0.795 -0.296,-1.213 0.248,-0.416 0.787,-0.554 1.207,-0.314 l 34.936,20.172 -35.672,-22.367 c -0.409,-0.256 -0.538,-0.797 -0.288,-1.211 0.247,-0.416 0.785,-0.553 1.204,-0.311 l 9.544,5.508 -10.106,-6.145 c -0.416,-0.252 -0.552,-0.793 -0.304,-1.211 0.248,-0.419 0.786,-0.558 1.209,-0.316 l 34.168,19.727 -34.096,-21.348 c -0.411,-0.258 -0.54,-0.795 -0.292,-1.211 0.25,-0.414 0.788,-0.553 1.207,-0.312 l 22.838,13.185 -22.653,-13.953 c -0.412,-0.256 -0.544,-0.795 -0.296,-1.215 0.247,-0.414 0.785,-0.553 1.208,-0.314 l 6.592,3.806 v 0.002 c 0.032,0.23 0.085,0.462 0.16,0.699 0.226,0.711 0.651,1.453 1.313,2.206 0.705,0.802 2.2,0.718 3.837,0.162 l 2.077,1.199 -2.004,-1.223 c 0.775,-0.269 1.574,-0.64 2.345,-1.086 l 15.991,9.235 -15.415,-9.596 c 1.469,-0.941 2.716,-2.096 3.26,-3.186 l 16.471,9.51 -16.241,-10.152 c 0.186,-0.83 -0.116,-1.576 -1.219,-2.08 -1.171,-0.533 -2.365,-0.805 -3.513,-0.877 l -6.613,-4.133 c -0.41,-0.258 -0.539,-0.797 -0.29,-1.211 0.25,-0.414 0.787,-0.553 1.207,-0.312 l 25.548,14.75 -22.118,-13.774 c -0.41,-0.254 -0.54,-0.795 -0.291,-1.209 0.248,-0.416 0.785,-0.555 1.206,-0.312 l 15.112,8.724 c 0.057,0.08 0.086,0.156 0.154,0.24 0.45,0.552 1.027,0.974 1.676,1.294 0.581,0.286 1.218,0.493 1.891,0.615 0.002,0 0.003,0 0.005,0.001 l 6.656,3.842 -5.99,-3.75 c 0.34,0.037 0.684,0.054 1.029,0.054 1.037,0.002 2.083,-0.15 3.034,-0.429 l 13.666,7.891 -12.758,-8.207 c 0.57,-0.233 1.078,-0.519 1.511,-0.839 0.344,-0.254 0.645,-0.528 0.871,-0.827 l 10.025,5.785 -9.74,-6.232 c 0.19,-0.382 0.278,-0.789 0.241,-1.217 -0.062,-0.714 -0.473,-1.482 -1.345,-2.277 -1.52,-1.389 -4.156,-1.752 -6.534,-1.395 l -7.235,-4.629 c -0.407,-0.262 -0.532,-0.797 -0.28,-1.211 0.252,-0.414 0.782,-0.549 1.203,-0.308 l 21.088,12.175 c -0.005,0.385 0.019,0.784 0.11,1.198 0.456,2.119 3.319,2.799 6.256,2.478 l 0.721,0.416 -0.654,-0.424 c 1.526,-0.171 3.062,-0.613 4.295,-1.257 0.543,-0.286 1.03,-0.606 1.426,-0.963 l 2.485,1.433 -2.352,-1.572 c 0.106,-0.104 0.203,-0.21 0.293,-0.318 0.451,-0.544 0.701,-1.152 0.679,-1.808 -0.009,-0.264 -0.061,-0.535 -0.163,-0.813 l 3.658,2.113 -3.919,-2.66 c -0.376,-0.651 -1.004,-1.328 -1.973,-2.034 -0.817,-0.591 -1.746,-0.964 -2.705,-1.144 l -7.043,-4.783 c -0.395,-0.268 -0.507,-0.805 -0.253,-1.209 0.254,-0.405 0.784,-0.537 1.197,-0.295 l 9.51,5.49 -5.216,-4.324 c -0.357,-0.293 -0.426,-0.813 -0.162,-1.19 0.172,-0.248 0.448,-0.382 0.729,-0.382 0.15,0 0.305,0.039 0.444,0.119 l 10.624,6.134 c 0.424,0.245 0.571,0.79 0.324,1.213 -0.244,0.426 -0.79,0.573 -1.213,0.327 l -1.506,-0.87 5.218,4.323 c 0.295,0.244 0.381,0.636 0.255,0.982 l 8.017,4.627 -6.838,-5.783 c -0.349,-0.299 -0.415,-0.815 -0.152,-1.19 0.266,-0.377 0.78,-0.486 1.172,-0.257 l 10.924,6.308 c 0.426,0.244 0.572,0.787 0.327,1.213 -0.246,0.428 -0.79,0.572 -1.215,0.324 l -2.332,-1.345 6.837,5.783 c 0.35,0.299 0.416,0.812 0.152,1.187 -0.264,0.379 -0.774,0.491 -1.171,0.26 l -6.176,-3.564 7.281,4.945 c 0.395,0.267 0.507,0.799 0.253,1.205 m -30.802,159.17 c 0.418,0.252 0.555,0.795 0.307,1.213 -0.249,0.421 -0.787,0.562 -1.209,0.318 l -0.911,-0.525 -25.12,-14.501 -1.093,-0.634 c -10e-4,-0.949 -0.035,-1.893 -0.09,-2.828 z m -39.143,-45.652 44.003,26.341 c 0.418,0.251 0.557,0.791 0.309,1.211 -0.248,0.424 -0.787,0.567 -1.209,0.321 l -39.407,-22.752 c -1.125,-1.807 -2.359,-3.516 -3.696,-5.121 m 10.65,24.627 29.514,17.599 c 0.419,0.25 0.558,0.793 0.311,1.215 -0.249,0.422 -0.788,0.564 -1.211,0.318 l -28.321,-16.353 c -0.076,-0.934 -0.169,-1.863 -0.293,-2.779 m 128.986,80.43 c -0.07,-0.548 -0.171,-1.085 -0.304,-1.597 -0.043,-0.17 -0.09,-0.336 -0.139,-0.499 -0.746,-2.442 -2.158,-4.031 -3.822,-2.239 -0.09,0.1 -0.17,0.201 -0.257,0.301 -0.14,0.159 -0.271,0.321 -0.404,0.482 -0.066,0.081 -0.138,0.159 -0.202,0.241 -0.539,0.7 -0.976,1.433 -1.301,2.193 -0.032,0.071 -0.054,0.143 -0.083,0.213 -0.052,0.133 -0.094,0.267 -0.139,0.401 -0.209,0.635 -0.331,1.286 -0.341,1.95 -0.003,0.25 0.006,0.503 0.035,0.754 0.074,0.661 0.241,1.327 0.559,2 0.165,0.482 0.34,0.883 0.517,1.241 0.11,0.211 0.219,0.406 0.331,0.575 0.545,0.837 1.141,1.204 1.744,1.259 0.108,0.009 0.217,0.013 0.326,0.004 0.063,-0.006 0.127,-0.031 0.19,-0.042 0.127,-0.021 0.255,-0.037 0.381,-0.082 0.48,-0.174 0.949,-0.5 1.385,-0.893 0.145,-0.131 0.287,-0.27 0.425,-0.413 0.056,-0.063 0.114,-0.119 0.169,-0.181 0.133,-0.147 0.247,-0.329 0.352,-0.518 0.304,-0.539 0.5,-1.228 0.604,-2.001 0.023,-0.167 0.041,-0.336 0.053,-0.509 0.035,-0.422 0.044,-0.859 0.031,-1.301 -0.015,-0.443 -0.052,-0.892 -0.11,-1.339 m -6.276,-22.362 c -0.659,-0.186 -1.373,-0.16 -2.019,0.051 -0.004,0 -0.008,0 -0.009,0.003 -1.19,0.393 -2.137,1.403 -2.042,2.891 0.347,5.437 3.354,6.411 5.116,4.515 0.054,-0.059 0.111,-0.113 0.165,-0.177 0.416,-0.516 0.752,-1.202 0.938,-2.045 0.033,-0.145 0.037,-0.269 0.062,-0.408 0.01,-0.058 0.017,-0.114 0.025,-0.17 0.004,-0.028 0.009,-0.057 0.013,-0.085 0.035,-0.248 0.057,-0.487 0.068,-0.714 0.103,-2.271 -0.999,-3.489 -2.317,-3.861 m 14.884,24.903 c -0.126,0.21 -0.329,0.347 -0.549,0.4 l 0.099,0.062 c 0.41,0.258 0.539,0.796 0.29,1.212 -0.251,0.414 -0.785,0.551 -1.207,0.311 l -2.196,-1.267 2.892,1.867 c 0.404,0.262 0.528,0.799 0.276,1.209 -0.145,0.24 -0.387,0.371 -0.644,0.404 0.265,0.286 0.333,0.711 0.12,1.06 -0.062,0.101 -0.14,0.185 -0.23,0.252 0.056,0.221 0.028,0.462 -0.099,0.673 -0.152,0.251 -0.41,0.387 -0.682,0.412 0.215,0.279 0.254,0.673 0.062,0.994 -0.159,0.271 -0.442,0.407 -0.734,0.418 0.064,0.227 0.042,0.477 -0.089,0.695 -0.186,0.311 -0.538,0.467 -0.879,0.422 0.116,0.257 0.122,0.557 -0.033,0.817 -0.164,0.269 -0.446,0.408 -0.74,0.415 -0.015,0.038 -0.021,0.076 -0.039,0.112 -0.248,0.422 -0.786,0.559 -1.208,0.316 l -0.244,-0.142 c 0.067,0.229 0.05,0.483 -0.084,0.707 -0.063,0.109 -0.151,0.197 -0.246,0.266 0.169,0.273 0.2,0.624 0.024,0.921 -0.245,0.426 -0.786,0.568 -1.21,0.325 l -45.381,-26.204 47.269,27.77 c 0.403,0.236 0.538,0.736 0.341,1.15 0.259,0.279 0.328,0.698 0.126,1.045 -0.25,0.423 -0.792,0.563 -1.212,0.318 l -8.212,-4.77 c -0.4,-1.535 -1.204,-2.323 -2.21,-2.561 -0.604,-0.142 -1.28,-0.086 -1.983,0.126 l -71.143,-41.33 70.239,41.681 c -0.64,0.296 -1.284,0.698 -1.904,1.18 -10e-4,0 -10e-4,0.001 -10e-4,0.001 l -83.554,-48.238 82.755,48.917 c -0.495,0.456 -0.963,0.952 -1.383,1.477 l -63.883,-36.883 63.47,37.432 v 0.002 c -0.391,0.548 -0.724,1.118 -0.987,1.689 v 10e-4 l -77.492,-44.739 77.149,45.594 c -0.182,0.551 -0.278,1.093 -0.283,1.612 -10e-4,0.173 0.008,0.343 0.026,0.511 l -23.09,-13.33 23.119,13.582 c 0.026,0.135 0.069,0.264 0.109,0.394 0.076,0.244 0.17,0.482 0.305,0.703 0.123,0.202 0.26,0.386 0.407,0.555 1.031,1.179 2.609,1.567 4.233,1.319 h 0.003 c 10e-4,0 10e-4,-0.001 0.002,-0.001 l 9.348,5.493 c 0.422,0.246 0.564,0.79 0.317,1.211 -0.246,0.425 -0.788,0.571 -1.212,0.324 L 377.935,322.661 494.646,392.04 c 0.42,0.248 0.559,0.79 0.312,1.211 -0.248,0.423 -0.79,0.563 -1.211,0.32 l -109.912,-63.459 100.072,59.412 c -0.646,-0.151 -1.423,-0.163 -2.261,-0.076 -0.42,0.044 -0.851,0.104 -1.299,0.199 l -55.363,-31.96 54.543,32.161 c -0.786,0.213 -1.585,0.494 -2.371,0.829 l -0.001,10e-4 -87.535,-50.538 86.246,51.144 c -0.303,0.158 -0.596,0.326 -0.886,0.498 -0.361,0.215 -0.712,0.438 -1.043,0.672 l -0.001,10e-4 -80.452,-46.449 79.558,47.141 c 0,0.001 -0.003,0.001 -0.003,0.001 -0.555,0.471 -1.04,0.969 -1.414,1.48 h -0.002 l -80.597,-46.531 80.059,47.461 -10e-4,0.001 c -0.017,0.036 -0.026,0.072 -0.041,0.108 -0.253,0.596 -0.359,1.199 -0.249,1.8 0.017,0.097 0.055,0.173 0.076,0.268 l -6.807,-3.931 6.832,4.012 v 0.001 10e-4 c 0.675,2.713 3.053,3.801 5.778,3.393 h 0.002 l 8.314,4.884 c 0.421,0.247 0.564,0.791 0.317,1.212 -0.245,0.427 -0.787,0.571 -1.21,0.324 l -31.974,-18.462 30.356,17.85 c 0.307,0.179 0.46,0.517 0.428,0.85 -0.001,0.01 0.002,0.021 0.002,0.029 -0.016,0.114 -0.054,0.228 -0.116,0.335 -0.184,0.318 -0.534,0.478 -0.877,0.435 -0.114,-0.015 -0.227,-0.051 -0.333,-0.113 l -132.714,-76.624 27.487,16.502 29.353,17.605 c 0.419,0.251 0.558,0.793 0.31,1.214 -0.248,0.421 -0.793,0.563 -1.21,0.318 l -61.87,-35.772 c 3.372,-1.037 6.57,-2.551 9.536,-4.473 l 0.281,0.161 -0.277,-0.163 c 1.837,-1.189 3.585,-2.538 5.232,-4.025 l 0.11,0.065 -0.11,-0.066 c 1.426,-1.29 2.771,-2.687 4.03,-4.178 l 2.847,1.644 -2.819,-1.674 c 0.705,-0.838 1.387,-1.697 2.038,-2.59 0,-0.001 0.001,-0.001 0.001,-0.001 l 9.495,5.481 -9.416,-5.596 c 2.003,-2.78 3.721,-5.828 5.113,-9.087 0.464,-1.087 0.891,-2.196 1.28,-3.328 l 5.87,3.387 -5.841,-3.466 c 1.462,-4.271 2.379,-8.85 2.655,-13.626 l 27.107,16.2 c 0.418,0.253 0.557,0.794 0.309,1.214 -0.248,0.423 -0.786,0.562 -1.209,0.32 l -1.367,-0.791 c -0.002,0 -0.004,0 -0.006,-0.002 l -19.228,-11.1 22.037,13.075 c 0.421,0.25 0.563,0.792 0.316,1.213 -0.248,0.425 -0.787,0.566 -1.211,0.322 l -2.02,-1.168 -12.993,-7.498 18.977,11.246 c 0.419,0.248 0.557,0.791 0.313,1.213 -0.228,0.393 -0.716,0.541 -1.12,0.367 l 3.986,2.354 c 0.001,0.002 0.005,0.002 0.009,0.003 l 0.697,0.404 c -0.068,-0.226 -0.047,-0.476 0.082,-0.695 0.161,-0.286 0.462,-0.443 0.766,-0.443 0.152,0 0.304,0.036 0.445,0.117 l 9.053,5.229 c 0.253,-0.399 0.775,-0.532 1.189,-0.296 l 1.253,0.723 c -0.07,-0.23 -0.053,-0.486 0.08,-0.708 0.246,-0.418 0.786,-0.558 1.208,-0.317 l 6.577,3.799 c -0.011,-0.175 0.01,-0.352 0.109,-0.512 0.247,-0.416 0.783,-0.554 1.205,-0.312 l 1.652,0.951 c -0.071,-0.231 -0.053,-0.488 0.078,-0.713 0.251,-0.413 0.785,-0.555 1.209,-0.311 l 3.817,2.204 c 0.015,-0.03 0.016,-0.061 0.033,-0.092 0.247,-0.417 0.783,-0.555 1.206,-0.315 l 1.786,1.032 c -0.071,-0.233 -0.053,-0.488 0.081,-0.711 0.245,-0.416 0.782,-0.557 1.205,-0.313 l 9.034,5.214 -3.024,-1.943 c -0.406,-0.259 -0.53,-0.798 -0.278,-1.21 0.249,-0.412 0.782,-0.548 1.202,-0.308 l 1.949,1.127 c -0.072,-0.235 -0.054,-0.495 0.084,-0.718 0.252,-0.412 0.785,-0.549 1.202,-0.306 l 1.78,1.028 c 0.262,-0.375 0.765,-0.5 1.165,-0.267 l 2.179,1.258 c -0.069,-0.232 -0.054,-0.49 0.083,-0.714 0.25,-0.415 0.787,-0.551 1.205,-0.309 l 0.786,0.453 c 0.268,-0.172 0.616,-0.197 0.915,-0.029 l 2.062,1.19 c -0.072,-0.232 -0.057,-0.488 0.08,-0.712 0.249,-0.416 0.786,-0.555 1.205,-0.31 l 0.924,0.533 c 0.278,-0.283 0.71,-0.366 1.067,-0.157 l 2.154,1.245 c -0.068,-0.237 -0.054,-0.493 0.084,-0.718 0.249,-0.413 0.784,-0.55 1.203,-0.308 l 1.567,0.905 c 0.016,-0.117 0.054,-0.229 0.121,-0.333 0.252,-0.407 0.782,-0.539 1.199,-0.302 l 2.035,1.175 c -0.072,-0.24 -0.056,-0.501 0.085,-0.729 0.254,-0.405 0.785,-0.536 1.198,-0.296 l 1.612,0.93 c -10e-4,-0.168 0.028,-0.338 0.124,-0.488 0.255,-0.405 0.784,-0.533 1.194,-0.296 l 1.761,1.018 c -0.074,-0.241 -0.06,-0.508 0.088,-0.736 0.256,-0.401 0.785,-0.53 1.193,-0.289 l 1.897,1.094 c -0.099,-0.259 -0.089,-0.554 0.075,-0.799 0.258,-0.398 0.782,-0.522 1.186,-0.284 l 1.843,1.064 c -0.076,-0.249 -0.06,-0.521 0.096,-0.754 0.258,-0.388 0.776,-0.508 1.182,-0.276 l 0.351,0.203 c 0.276,-0.305 0.726,-0.397 1.092,-0.186 l 2.403,1.389 c -0.076,-0.248 -0.059,-0.522 0.096,-0.75 0.258,-0.391 0.779,-0.512 1.182,-0.279 l 0.681,0.394 c 0.278,-0.22 0.666,-0.265 0.988,-0.08 l 10.912,6.301 c 0.327,0.189 0.484,0.547 0.433,0.897 l 0.219,0.127 c 0.425,0.244 0.571,0.788 0.324,1.212 -0.096,0.168 -0.244,0.28 -0.405,0.352 l 0.839,0.65 c 0.323,0.25 0.414,0.678 0.262,1.039 0.246,0.295 0.292,0.718 0.07,1.05 -0.119,0.179 -0.294,0.292 -0.482,0.351 l 0.363,0.262 c 0.384,0.277 0.484,0.808 0.227,1.206 -0.131,0.2 -0.332,0.332 -0.551,0.379 l 0.22,0.169 c 0.372,0.284 0.461,0.812 0.2,1.199 -0.124,0.186 -0.309,0.304 -0.507,0.361 l 0.177,0.131 c 0.381,0.281 0.474,0.806 0.216,1.201 -0.091,0.139 -0.221,0.23 -0.361,0.298 0.298,0.29 0.375,0.747 0.142,1.108 -0.126,0.197 -0.322,0.33 -0.536,0.383 l 0.033,0.023 c 0.391,0.27 0.496,0.803 0.24,1.204 -0.068,0.111 -0.162,0.197 -0.265,0.261 0.223,0.289 0.264,0.69 0.061,1.014 -0.073,0.117 -0.175,0.203 -0.285,0.271 l 3.14,2.081 c 0.322,0.216 0.448,0.605 0.357,0.962 l 0.257,0.166 c 0.406,0.259 0.531,0.797 0.277,1.209 -0.109,0.184 -0.282,0.305 -0.471,0.369 l 1.342,0.85 c 0.317,0.203 0.458,0.576 0.386,0.926 0.157,0.272 0.176,0.613 0.004,0.9 -0.122,0.201 -0.312,0.336 -0.524,0.394 l 0.567,0.354 c 0.402,0.25 0.529,0.772 0.302,1.184 0.241,0.281 0.299,0.693 0.096,1.028 m -78.847,-217.089 0.097,0.057 c 0.424,0.244 0.571,0.791 0.324,1.213 -0.244,0.43 -0.788,0.572 -1.212,0.326 l -12.052,-6.957 c 0.816,-0.1 1.691,-0.305 2.525,-0.596 0.884,-0.304 1.704,-0.709 2.347,-1.187 l 8.282,5.543 c 0.399,0.263 0.514,0.801 0.261,1.207 -0.134,0.215 -0.343,0.347 -0.572,0.394 m -61.147,124.145 33.934,20.359 c 0.419,0.251 0.558,0.793 0.31,1.213 -0.248,0.42 -0.787,0.563 -1.21,0.318 l -30.05,-17.351 30.422,18.047 c 0.419,0.252 0.56,0.793 0.313,1.214 -0.245,0.424 -0.787,0.565 -1.211,0.321 l -0.986,-0.57 -29.751,-17.178 c -0.457,-2.188 -1.05,-4.315 -1.771,-6.373 m 1.831,6.66 30.845,18.365 c 0.42,0.251 0.56,0.793 0.314,1.214 -0.251,0.421 -0.79,0.564 -1.212,0.319 l -0.902,-0.519 h -10e-4 l -28.54,-16.479 c -0.141,-0.976 -0.313,-1.943 -0.504,-2.9 m 28.355,26.683 c 0.421,0.248 0.56,0.79 0.313,1.211 -0.25,0.425 -0.79,0.564 -1.21,0.32 l -0.914,-0.525 h -0.001 l -25.57,-14.764 c 0.041,-0.829 0.063,-1.665 0.066,-2.505 z M 281.395,122.796 c -0.79,0.197 -1.572,0.529 -2.293,1.017 -0.061,0.038 -0.11,0.065 -0.168,0.098 l -7.201,-4.642 c -0.405,-0.262 -0.529,-0.797 -0.277,-1.209 0.253,-0.414 0.788,-0.549 1.203,-0.307 l 8.737,5.043 z m 38.132,20.096 c -0.256,0.408 -0.783,0.539 -1.198,0.298 l -10.153,-5.863 c 1.342,-0.424 2.023,-1.387 1.136,-3.066 -0.258,-0.489 -0.564,-0.916 -0.904,-1.291 l 0.57,0.328 -8.273,-6.666 c -0.36,-0.289 -0.436,-0.809 -0.176,-1.192 0.172,-0.252 0.45,-0.386 0.735,-0.386 0.151,0 0.303,0.039 0.442,0.119 l 14.386,8.305 c 0.426,0.246 0.57,0.789 0.327,1.214 -0.248,0.424 -0.791,0.571 -1.215,0.325 l -4.447,-2.569 8.27,6.664 c 0.363,0.291 0.439,0.813 0.178,1.196 -0.266,0.384 -0.778,0.5 -1.178,0.267 l -2.621,-1.513 3.866,2.623 c 0.398,0.269 0.508,0.802 0.255,1.207 m -63.543,-17.186 c -0.766,0.105 -1.585,0.307 -2.433,0.568 -0.137,0.042 -0.267,0.072 -0.406,0.118 l -6.127,-3.811 c -0.413,-0.256 -0.542,-0.797 -0.292,-1.211 0.247,-0.416 0.785,-0.555 1.207,-0.314 l 8.052,4.65 z m 22.353,-1.447 c -0.244,0.147 -0.46,0.289 -0.658,0.428 -0.516,0.361 -0.884,0.705 -1.113,1.091 l -8.064,-5.148 c -0.407,-0.26 -0.532,-0.799 -0.281,-1.211 0.25,-0.412 0.786,-0.551 1.202,-0.309 z m 75.406,5.728 -6.131,-3.742 c -0.415,-0.254 -0.548,-0.795 -0.299,-1.215 0.248,-0.414 0.786,-0.552 1.208,-0.312 l 5.652,3.261 c -0.327,0.608 -0.483,1.286 -0.43,2.008 m 43.303,-6.543 -5.743,-3.841 c -0.397,-0.268 -0.514,-0.803 -0.259,-1.211 0.253,-0.405 0.78,-0.538 1.198,-0.299 l 7.943,4.586 c -1.101,0.043 -2.183,0.302 -3.139,0.765 m -1.557,1.025 c -0.205,0.179 -0.397,0.371 -0.571,0.575 -0.629,0.734 -1.033,1.629 -1.145,2.629 l -17.647,-11.43 c -0.304,-0.193 -0.447,-0.547 -0.397,-0.881 0.019,-0.113 0.059,-0.222 0.122,-0.326 0.167,-0.273 0.46,-0.426 0.757,-0.426 0.152,0 0.304,0.039 0.446,0.119 l 10.885,6.286 c -0.079,-0.233 -0.066,-0.494 0.065,-0.723 0.243,-0.424 0.787,-0.566 1.214,-0.324 l 6.927,3.999 c -0.231,0.157 -0.45,0.323 -0.656,0.502 m -19.757,-1.281 c -0.181,0.106 -0.351,0.217 -0.511,0.334 l -10e-4,10e-4 -6.456,-4.153 c -0.407,-0.26 -0.53,-0.797 -0.278,-1.209 0.249,-0.412 0.788,-0.551 1.201,-0.307 l 7.906,4.563 c -0.687,0.196 -1.319,0.455 -1.861,0.771 m -19.181,2.635 -5.273,-3.224 c -0.415,-0.254 -0.549,-0.793 -0.3,-1.211 0.247,-0.418 0.785,-0.557 1.206,-0.317 l 6.97,4.022 c -0.951,0.109 -1.834,0.357 -2.603,0.73 m -1.877,1.422 -5.262,-3.275 c -0.412,-0.256 -0.541,-0.795 -0.291,-1.211 0.248,-0.414 0.786,-0.553 1.205,-0.313 l 6.018,3.475 c -0.674,0.351 -1.233,0.805 -1.67,1.324 m 19.234,-1.724 c -0.022,0.197 -0.018,0.4 0.014,0.609 0.032,0.209 0.093,0.424 0.184,0.644 l -8.836,-5.535 c -0.412,-0.256 -0.54,-0.795 -0.291,-1.211 0.25,-0.416 0.786,-0.554 1.205,-0.312 l 8.149,4.706 c -0.232,0.339 -0.381,0.706 -0.425,1.099 M 255.597,265.362 c 0.247,-0.422 0.787,-0.562 1.212,-0.32 l 34.56,19.953 c -0.001,0.017 0,0.033 -0.001,0.05 -0.029,0.723 -0.05,1.448 -0.05,2.177 0,0.075 0.004,0.149 0.006,0.223 10e-4,0.037 0.002,0.076 0.002,0.113 l -35.415,-20.981 c -0.423,-0.25 -0.561,-0.793 -0.314,-1.215 m 48.632,247.709 11.075,6.957 c 0.408,0.258 0.536,0.797 0.288,1.211 -0.252,0.415 -0.789,0.554 -1.205,0.31 l -11.344,-6.548 c 0.494,-0.663 0.89,-1.313 1.186,-1.93 m 96.969,1.08 h 0.003 l 14.644,8.662 c 0.42,0.249 0.559,0.791 0.314,1.213 -0.247,0.423 -0.786,0.565 -1.212,0.322 l -16.966,-9.797 c 1.053,-0.03 2.13,-0.17 3.217,-0.4 m -98.339,1.088 11.088,7.033 c 0.408,0.26 0.537,0.796 0.285,1.21 -0.252,0.414 -0.786,0.553 -1.206,0.31 l -11.75,-6.785 c 0.597,-0.584 1.124,-1.177 1.583,-1.768 m 1.399,-2.231 c 0.001,0 0.001,0 0.001,-0.001 0.429,-0.916 0.627,-1.748 0.555,-2.409 l 11.702,7.436 c 0.409,0.259 0.533,0.797 0.282,1.21 -0.251,0.414 -0.786,0.551 -1.203,0.309 z m -47.949,-18.943 c 0.252,-0.417 0.79,-0.553 1.207,-0.313 l 12.421,7.172 c -0.55,1.007 -0.945,2.113 -1.156,3.285 -0.07,0.391 -0.12,0.79 -0.148,1.194 l -12.834,-8.168 c -0.407,-0.259 -0.533,-0.797 -0.281,-1.21 0.25,-0.413 0.783,-0.549 1.203,-0.31 l 7.899,4.561 -8.019,-5 c -0.411,-0.257 -0.54,-0.796 -0.292,-1.211 m 4.597,-7.131 c 0.249,-0.414 0.786,-0.553 1.205,-0.311 l 15.949,9.206 h -10e-4 c -1.288,0.066 -2.595,0.34 -3.338,0.661 -0.881,0.385 -1.685,0.886 -2.401,1.487 L 259.742,490 c -0.408,-0.259 -0.536,-0.797 -0.284,-1.209 0.249,-0.415 0.783,-0.551 1.205,-0.31 l 13.23,7.638 -12.699,-7.973 c -0.409,-0.258 -0.536,-0.797 -0.288,-1.212 m -5.264,16.142 11.347,6.55 -12.051,-7.652 c -0.409,-0.26 -0.534,-0.796 -0.283,-1.21 0.246,-0.413 0.784,-0.549 1.203,-0.309 l 3.186,1.838 -3.837,-2.386 c -0.412,-0.255 -0.541,-0.796 -0.292,-1.211 0.248,-0.417 0.788,-0.553 1.206,-0.313 l 12.488,7.21 c -0.165,3.075 0.881,6.463 3.516,9.548 0.878,1.028 1.933,2.023 3.179,2.961 3.351,2.525 6.64,3.856 9.733,4.342 l 14.805,9.757 c 0.402,0.264 0.521,0.799 0.267,1.207 -0.251,0.409 -0.783,0.543 -1.199,0.303 l -15.89,-9.174 13.269,8.674 c 0.404,0.264 0.524,0.8 0.273,1.209 -0.252,0.41 -0.787,0.546 -1.202,0.304 l -13.485,-7.785 10.495,6.925 c 0.402,0.265 0.52,0.799 0.268,1.208 -0.252,0.408 -0.784,0.542 -1.2,0.304 l -10.199,-5.889 6.466,4.312 c 0.399,0.267 0.516,0.802 0.263,1.209 -0.254,0.409 -0.784,0.54 -1.2,0.303 l -10.321,-5.959 4.337,3.074 c 0.288,0.206 0.42,0.556 0.359,0.887 -0.022,0.11 -0.063,0.219 -0.126,0.317 -0.258,0.399 -0.783,0.527 -1.194,0.29 l -14.7,-8.488 c -0.424,-0.245 -0.57,-0.787 -0.326,-1.214 0.157,-0.268 0.432,-0.426 0.723,-0.443 l -5.59,-3.965 c -0.386,-0.274 -0.49,-0.806 -0.232,-1.203 0.256,-0.4 0.779,-0.526 1.193,-0.29 l 2.968,1.715 -6.469,-4.317 c -0.4,-0.267 -0.516,-0.801 -0.263,-1.208 0.254,-0.409 0.787,-0.542 1.2,-0.3 l 8.205,4.737 -10.5,-6.928 c -0.399,-0.266 -0.518,-0.8 -0.266,-1.208 0.25,-0.41 0.784,-0.543 1.201,-0.303 l 11.473,6.625 -13.27,-8.675 c -0.402,-0.264 -0.524,-0.798 -0.272,-1.209 0.253,-0.408 0.786,-0.545 1.202,-0.304 l 17.636,10.183 -19.026,-12.537 c -0.403,-0.264 -0.521,-0.802 -0.267,-1.21 0.251,-0.409 0.785,-0.542 1.199,-0.302 m 31.555,19.561 c 2.328,0.083 4.52,-0.292 6.515,-0.969 0.798,-0.27 1.565,-0.589 2.296,-0.946 l 11.675,7.43 c 0.407,0.26 0.53,0.797 0.281,1.211 -0.251,0.411 -0.789,0.55 -1.205,0.308 l -4.722,-2.727 3.825,2.38 c 0.31,0.193 0.461,0.546 0.412,0.883 -0.017,0.113 -0.057,0.225 -0.118,0.33 -0.062,0.104 -0.142,0.19 -0.238,0.258 -0.274,0.202 -0.656,0.234 -0.969,0.053 l -13.45,-7.766 12.067,7.664 c 0.409,0.258 0.535,0.795 0.283,1.209 -0.248,0.416 -0.786,0.553 -1.203,0.309 l -16.863,-9.733 c 0.477,0.054 0.948,0.089 1.414,0.106 m 10.231,-2.688 c 1.137,-0.674 2.166,-1.432 3.075,-2.227 l 10.958,7.179 c 0.404,0.263 0.522,0.799 0.272,1.207 -0.254,0.41 -0.786,0.547 -1.201,0.305 l -8.627,-4.981 8.024,5.004 c 0.412,0.256 0.542,0.796 0.29,1.212 -0.248,0.415 -0.785,0.555 -1.203,0.31 l -12.76,-7.365 c 0.402,-0.204 0.793,-0.419 1.172,-0.644 M 414.6,499.16 c 0.088,-0.787 0.129,-1.568 0.118,-2.336 v -0.002 l 15.155,9.102 c 0.418,0.253 0.555,0.792 0.307,1.214 -0.248,0.421 -0.789,0.563 -1.209,0.318 z m -10.65,14.185 13.986,8.343 c 0.419,0.249 0.558,0.791 0.311,1.212 -0.249,0.421 -0.788,0.563 -1.211,0.319 l -15.744,-9.088 c 0.881,-0.192 1.767,-0.45 2.658,-0.786 m 10.118,-11.307 c 0.042,-0.16 0.076,-0.32 0.114,-0.48 0.125,-0.527 0.236,-1.055 0.316,-1.585 l 14.2,8.461 c 0.42,0.25 0.559,0.792 0.312,1.213 -0.249,0.421 -0.788,0.563 -1.211,0.32 z m 16.158,-0.33 -16.166,-9.335 c -0.178,-0.588 -0.399,-1.142 -0.645,-1.671 -0.346,-0.741 -0.75,-1.425 -1.23,-2.016 l 18.946,11.492 c 0.415,0.254 0.553,0.794 0.305,1.213 -0.249,0.42 -0.788,0.56 -1.21,0.317 m -0.724,3.511 -14.788,-8.539 c -0.02,-0.958 -0.116,-1.892 -0.286,-2.786 l 15.983,9.797 c 0.412,0.254 0.546,0.793 0.298,1.211 -0.249,0.42 -0.786,0.56 -1.207,0.317 m -15.846,-1.858 c 0.055,-0.16 0.115,-0.318 0.165,-0.479 l 13.666,8.151 c 0.42,0.251 0.559,0.791 0.312,1.212 -0.249,0.422 -0.787,0.565 -1.211,0.319 l -13.479,-7.781 c 0.205,-0.467 0.383,-0.942 0.547,-1.422 m -6.944,8.723 c 0.073,-0.042 0.142,-0.089 0.216,-0.132 l 13.467,7.965 c 0.419,0.25 0.56,0.79 0.313,1.213 -0.246,0.421 -0.787,0.566 -1.21,0.321 l -14.651,-8.458 c 0.622,-0.269 1.243,-0.559 1.865,-0.909 m 1.113,-0.712 c 0.876,-0.606 1.67,-1.298 2.373,-2.065 l 13.077,7.722 c 0.422,0.25 0.562,0.792 0.316,1.214 -0.248,0.422 -0.787,0.566 -1.211,0.32 l -8.307,-4.793 8.022,4.732 c 0.316,0.186 0.474,0.538 0.431,0.879 -0.016,0.117 -0.054,0.228 -0.115,0.334 -0.248,0.423 -0.788,0.569 -1.212,0.322 l -14.142,-8.165 c 0.263,-0.158 0.518,-0.327 0.768,-0.5 m 2.383,-2.073 c 0.439,-0.483 0.844,-0.992 1.22,-1.523 0,-0.001 10e-4,-0.001 10e-4,-0.002 l 13.03,7.702 c 0.421,0.249 0.562,0.79 0.315,1.213 -0.246,0.421 -0.79,0.567 -1.211,0.321 z m 1.271,-1.596 c 0.388,-0.557 0.74,-1.137 1.058,-1.734 0,-10e-4 0,-10e-4 0.001,-0.002 l 13.157,7.895 c 0.419,0.25 0.558,0.793 0.31,1.212 -0.248,0.422 -0.786,0.563 -1.21,0.32 z m 79.446,-111.947 -5.205,-3.004 c 0.06,-0.254 0.098,-0.493 0.114,-0.716 0.038,-0.506 -0.044,-0.923 -0.21,-1.274 -0.053,-0.113 -0.105,-0.226 -0.177,-0.324 l 6.376,3.785 c 0.42,0.248 0.56,0.791 0.314,1.212 -0.247,0.425 -0.789,0.567 -1.212,0.321 m -0.168,2.775 -5.999,-3.463 c 0.189,-0.352 0.382,-0.7 0.547,-1.078 0.091,-0.211 0.159,-0.406 0.226,-0.601 l 6.121,3.608 c 0.423,0.247 0.563,0.789 0.316,1.211 -0.245,0.425 -0.787,0.57 -1.211,0.323 m -7.113,-1.751 c 0.151,-0.202 0.301,-0.406 0.446,-0.62 l 6.692,3.968 c 0.315,0.186 0.475,0.54 0.429,0.881 -0.015,0.114 -0.052,0.227 -0.114,0.333 -0.245,0.425 -0.788,0.565 -1.211,0.322 l -6.951,-4.015 c 0.248,-0.273 0.481,-0.566 0.709,-0.869 m -224.609,93.786 13.11,7.571 v 10e-4 c -0.667,0.584 -1.26,1.248 -1.752,1.989 l -12.29,-8.047 c -0.402,-0.263 -0.523,-0.8 -0.269,-1.211 0.251,-0.408 0.784,-0.541 1.201,-0.303 m 244.942,-107.357 -8,-4.62 c 0.042,-0.336 0.071,-0.678 0.066,-1.035 v -10e-4 c -0.003,-0.154 -0.012,-0.297 -0.02,-0.441 -0.014,-0.251 -0.033,-0.494 -0.06,-0.724 l 8.911,5.288 c 0.421,0.249 0.561,0.79 0.314,1.212 -0.249,0.424 -0.789,0.567 -1.211,0.321 m -9.005,-1.782 c 0.325,-0.528 0.591,-1.1 0.775,-1.721 l 8.334,4.927 c 0.42,0.248 0.561,0.79 0.315,1.213 -0.248,0.423 -0.79,0.568 -1.212,0.322 z m -0.995,1.287 c 0.196,-0.205 0.385,-0.418 0.561,-0.647 v 0 l 8.4,4.954 c 0.42,0.249 0.562,0.791 0.315,1.214 -0.249,0.422 -0.789,0.566 -1.213,0.322 l -8.852,-5.113 c 0.28,-0.22 0.541,-0.467 0.789,-0.73 m -2.495,1.736 c 0.265,-0.117 0.531,-0.231 0.787,-0.38 l 8.678,5.128 c 0.42,0.249 0.56,0.79 0.315,1.214 -0.247,0.421 -0.789,0.564 -1.212,0.321 l -10.027,-5.789 c 0.493,-0.103 0.979,-0.282 1.459,-0.494 m -281.893,42.62 c -0.074,-0.861 -0.406,-1.752 -0.948,-2.569 l 12.33,7.945 c 0.403,0.261 0.527,0.798 0.275,1.21 -0.251,0.411 -0.782,0.546 -1.203,0.306 l -10.468,-6.044 c 0.034,-0.277 0.039,-0.561 0.014,-0.848 m -0.212,1.643 v -0.001 l 9.328,6.153 c 0.401,0.264 0.519,0.799 0.269,1.208 -0.253,0.408 -0.786,0.542 -1.203,0.302 l -10.073,-5.816 c 0.846,-0.465 1.402,-1.105 1.679,-1.846 m 272.071,-29.681 c 0.212,-0.171 0.423,-0.343 0.629,-0.53 v -0.002 0 l 7.283,4.317 c 0.42,0.249 0.56,0.79 0.315,1.214 -0.249,0.421 -0.79,0.564 -1.212,0.319 l -7.983,-4.609 c 0.331,-0.211 0.652,-0.453 0.968,-0.709 m -45.5,-6.012 -11.236,-7.368 c -0.4,-0.264 -0.522,-0.798 -0.27,-1.207 0.255,-0.412 0.785,-0.544 1.202,-0.305 l 6.788,3.919 -17.67,-11.359 c -0.407,-0.26 -0.53,-0.796 -0.278,-1.208 0.249,-0.414 0.781,-0.548 1.204,-0.307 l 1.911,1.103 -11.202,-6.898 c -0.414,-0.256 -0.546,-0.796 -0.298,-1.214 0.097,-0.161 0.243,-0.267 0.403,-0.339 0.01,-0.129 0.041,-0.26 0.114,-0.381 0.167,-0.279 0.459,-0.434 0.762,-0.434 0.149,0 0.301,0.039 0.437,0.116 l 69.784,39.555 c 0.425,0.241 0.577,0.785 0.334,1.211 -0.195,0.344 -0.583,0.494 -0.948,0.422 0.097,0.243 0.1,0.522 -0.042,0.767 -0.246,0.428 -0.79,0.571 -1.214,0.325 l -11.81,-6.818 7.88,4.981 c 0.071,0.046 0.123,0.109 0.177,0.169 0.02,0.024 0.052,0.04 0.071,0.067 0.037,0.053 0.054,0.114 0.078,0.173 0.021,0.046 0.051,0.088 0.061,0.136 0.009,0.042 0.003,0.088 0.006,0.132 0.007,0.069 0.019,0.137 0.009,0.204 -0.006,0.032 -0.024,0.062 -0.033,0.095 -0.021,0.077 -0.04,0.157 -0.082,0.231 l -0.002,0.003 v 10e-4 c -0.014,0.024 -0.037,0.036 -0.053,0.058 -0.055,0.074 -0.111,0.147 -0.182,0.198 -0.012,0.009 -0.029,0.011 -0.039,0.02 -0.273,0.18 -0.629,0.208 -0.93,0.034 l -23.823,-13.754 17.672,11.36 c 0.408,0.261 0.532,0.799 0.28,1.211 -0.251,0.414 -0.785,0.548 -1.203,0.307 l -11.962,-6.908 3.341,2.192 c 0.4,0.264 0.52,0.799 0.268,1.207 -0.253,0.409 -0.781,0.545 -1.201,0.304 l -18.219,-10.517 c -0.425,-0.245 -0.571,-0.789 -0.324,-1.213 0.062,-0.109 0.144,-0.2 0.239,-0.271 M 171.326,370.983 c -0.231,0.278 -0.413,0.581 -0.55,0.909 -0.102,0.245 -0.188,0.499 -0.242,0.767 l -7.552,-4.75 c -0.41,-0.258 -0.538,-0.796 -0.288,-1.212 0.249,-0.413 0.786,-0.551 1.205,-0.308 l 7.6,4.386 c -0.063,0.066 -0.115,0.139 -0.173,0.208 m -7.898,24.385 21.07,12.165 c -0.727,0.25 -1.292,0.661 -1.591,1.201 -0.1,0.18 -0.17,0.374 -0.206,0.582 -0.035,0.198 -0.018,0.372 -0.035,0.562 l -20.164,-12.993 c -0.405,-0.261 -0.529,-0.8 -0.277,-1.21 0.254,-0.412 0.786,-0.551 1.203,-0.307 m 9.873,9.556 9.338,5.391 c -0.002,0.237 0.013,0.466 0.038,0.688 0.072,0.635 0.252,1.21 0.512,1.731 0.315,0.635 0.747,1.19 1.254,1.665 l -12.075,-7.964 c -0.402,-0.266 -0.518,-0.8 -0.266,-1.209 0.252,-0.409 0.785,-0.543 1.199,-0.302 m 303.551,-3.736 c 0.793,-0.138 1.606,-0.394 2.416,-0.777 h 0.002 l 7.84,4.648 c 0.419,0.249 0.562,0.791 0.315,1.212 -0.123,0.213 -0.321,0.354 -0.539,0.412 -0.22,0.059 -0.461,0.032 -0.672,-0.09 l -9.363,-5.405 z"
           style="fill:#000000;fill-opacity:1;fill-rule:nonzero;stroke:none"
           id="path5505"
           inkscape:connector-curvature="0" /></g></g></g></svg>