<svg id="Layer_1" data-name="Layer 1" xmlns="http://www.w3.org/2000/svg" viewBox="0 0 512 512"><defs><style>.cls-1{fill:#898989;}</style></defs><title>star-other</title><path class="cls-1" d="M415.29,511.82a5.71,5.71,0,0,1-3.31-1.06L256,399.34,100,510.77a5.69,5.69,0,0,1-8.82-6l44.73-178.92L1.67,191.58a5.69,5.69,0,0,1,4-9.71h178.1L250.67,3.51c1.67-4.44,9-4.44,10.66,0l66.88,178.35h178.1a5.69,5.69,0,0,1,4,9.71L376.08,325.83,420.8,504.75a5.69,5.69,0,0,1-5.52,7.07ZM256,386.67a5.71,5.71,0,0,1,3.31,1.06L406,492.52,364.26,325.47a5.68,5.68,0,0,1,1.49-5.4L492.58,193.24H324.27a5.69,5.69,0,0,1-5.33-3.69L256,21.71,193.06,189.56a5.69,5.69,0,0,1-5.33,3.69H19.42L146.24,320.07a5.68,5.68,0,0,1,1.49,5.4L106,492.52l146.72-104.8A5.71,5.71,0,0,1,256,386.67Z"/></svg>